<svg id="Capa_1" enable-background="new 0 0 512 512" height="512" viewBox="0 0 512 512" width="512" xmlns="http://www.w3.org/2000/svg" xmlns:xlink="http://www.w3.org/1999/xlink"><linearGradient id="SVGID_1_" gradientUnits="userSpaceOnUse" x1="56.637" x2="427.065" y1="418.703" y2="48.275"><stop offset="0" stop-color="#ffdbed"/><stop offset="1" stop-color="#dcfdee"/></linearGradient><g><g><path d="m507.842 299.468c-.892-59.11-49.072-87.106-95.16-113.424-20.926-11.949-20.438-29.101-9.685-48.676 34.212-62.279 16.823-142.581-66.677-137.102-46.414 3.045-78.477 40.894-116.254 63.227-41.658 24.628-67.16 14.112-104.434-4.685-46.027-23.21-103.663 12.833-110.941 62.751-10.402 71.34 128.961 85.202 85.334 195.219-26.621 67.13-2.54 179.571 86.319 193.557 80.398 12.654 148.433-48.861 185.275-114.665 7.821-13.969 15.912-29.662 30.642-35.934 44.107-18.783 117.126 42.142 115.581-60.268z" fill="url(#SVGID_1_)"/></g><g><g><path d="m441.36 246.353c0-102.372-82.989-185.36-185.36-185.36s-185.36 82.988-185.36 185.36c0 62.956 31.394 118.572 79.372 152.074-1.676 1.788-2.71 4.186-2.71 6.83v67.751c0 5.523 4.477 10 10 10h197.396c5.523 0 10-4.477 10-10v-67.751c0-2.644-1.034-5.042-2.71-6.83 47.979-33.502 79.372-89.118 79.372-152.074z" fill="#2626bc" opacity=".1"/><g><g><g><circle cx="256" cy="222.353" fill="#ffa8cf" r="185.36"/><g><g><path d="m186.867 400.257c-2.761 0-5-2.239-5-5v-79.771c0-1.326.527-2.598 1.464-3.536l60.222-60.222c1.953-1.952 5.118-1.952 7.071 0 1.953 1.953 1.953 5.119 0 7.071l-58.757 58.757v77.7c0 2.762-2.239 5.001-5 5.001z" fill="#ff7eb8"/></g></g><path d="m256 65.955c-86.378 0-156.398 70.02-156.398 156.398s70.02 156.398 156.398 156.398 156.398-70.02 156.398-156.398-70.02-156.398-156.398-156.398zm0 264.875c-59.908 0-108.477-48.569-108.477-108.477s48.569-108.477 108.477-108.477 108.477 48.569 108.477 108.477-48.569 108.477-108.477 108.477z" fill="#ff5ba8"/><g><g><path d="m196.42 313.01-4.55 4.55v47.48c-3.4-1.53-6.73-3.18-10-4.95v-44.6c0-1.33.52-2.6 1.46-3.54l4.89-4.89c2.63 2.11 5.37 4.1 8.2 5.95z" fill="#fe2c8f"/></g></g><path d="m256 87.212c-74.638 0-135.141 60.503-135.141 135.141s60.503 135.141 135.141 135.141 135.141-60.503 135.141-135.141-60.503-135.141-135.141-135.141zm0 257.146c-67.379 0-122.005-54.626-122.005-122.005s54.626-122.005 122.005-122.005 122.005 54.626 122.005 122.005-54.626 122.005-122.005 122.005z" fill="#fe2c8f"/><circle cx="256" cy="222.353" fill="#fe2c8f" r="56.06"/><g><g><path d="m256 239.28v14.15l-20.94 20.94c-3.27-1.32-6.39-2.94-9.33-4.82z" fill="#db237a"/></g></g><path d="m441.36 222.353c0 5.7-.26 11.33-.76 16.9h-35.9c-5.52 0-10-4.48-10-10v-17.79c0-2.65-1.05-5.19-2.93-7.07l-38.1-38.1c-1.88-1.88-4.42-2.93-7.07-2.93h-20.46c-2.65 0-5.19 1.05-7.07 2.93l-32.9 32.9c-1.88 1.88-2.93 4.42-2.93 7.07v40.35c0 2.65-1.05 5.19-2.93 7.07l-24.31 24.3v-193.33l1.62-1.62c1.88-1.88 4.42-2.93 7.07-2.93h41.86c5.52 0 10-4.48 10-10v-22.99c72.64 25.09 124.81 94.08 124.81 175.24z" fill="#01eca5"/><circle cx="256" cy="222.353" fill="#db237a" r="23.43"/><path d="m256 36.993c102.372 0 185.36 82.989 185.36 185.36s-82.988 185.36-185.36 185.36z" fill="#8399fe"/><path d="m423.65 301.513c-29.31 61.97-91.97 105.08-164.8 106.17l39.411-39.411c1.875-1.875 2.929-4.419 2.929-7.071v-8.767c0-2.651 1.053-5.194 2.927-7.07l18.485-18.492c1.874-1.875 2.927-4.418 2.927-7.07v-34.309c0-5.523 4.477-10 10-10h57.958c2.652 0 5.196 1.054 7.071 2.929z" fill="#01eca5"/><path d="m441.36 222.353c0 5.7-.26 11.33-.76 16.9h-35.9c-5.52 0-10-4.48-10-10v-17.79c0-2.65-1.05-5.19-2.93-7.07l-38.1-38.1c-1.88-1.88-4.42-2.93-7.07-2.93h-20.46c-2.65 0-5.19 1.05-7.07 2.93l-32.9 32.9c-1.88 1.88-2.93 4.42-2.93 7.07v40.35c0 2.65-1.05 5.19-2.93 7.07l-24.31 24.3v-193.33l1.62-1.62c1.88-1.88 4.42-2.93 7.07-2.93h41.86c5.52 0 10-4.48 10-10v-22.99c72.64 25.09 124.81 94.08 124.81 175.24z" fill="#01eca5"/><circle cx="328.81" cy="102.348" fill="#00d890" r="7.5"/><g><circle cx="359.167" cy="328.504" fill="#00d890" r="7.5"/></g><circle cx="274.87" cy="158.793" fill="#00b574" r="7.5"/><circle cx="301.353" cy="157.1" fill="#00d890" r="7.5"/><g fill="#02ffb3"><circle cx="383.641" cy="155.982" r="7.5"/><circle cx="375.841" cy="304.265" r="7.5"/></g></g><circle cx="177.44" cy="202.305" fill="#ffc4df" r="7.5"/><circle cx="218.811" cy="304.265" fill="#ff7eb8" r="7.5"/><circle cx="196.712" cy="184.946" fill="#ff7eb8" r="7.5"/><circle cx="240.07" cy="148.482" fill="#ff5ba8" r="7.5"/><circle cx="241.38" cy="303.11" fill="#ffc4df" r="7.5"/></g><g><path d="m354.698 459.007h-197.396c-5.523 0-10-4.477-10-10v-67.751c0-5.523 4.477-10 10-10h197.396c5.523 0 10 4.477 10 10v67.751c0 5.523-4.477 10-10 10z" fill="#ff7eb8"/><g fill="#fff"><g><path d="m287.583 394.452h-5.332c-6.508 0-11.803 5.294-11.803 11.802v16.457c0 6.508 5.295 11.803 11.803 11.803h5.332c6.508 0 11.802-5.295 11.802-11.803v-16.457c.001-6.508-5.294-11.802-11.802-11.802zm1.803 28.259c0 .994-.809 1.803-1.802 1.803h-5.332c-.994 0-1.803-.809-1.803-1.803v-16.457c0-.994.809-1.802 1.803-1.802h5.332c.994 0 1.802.809 1.802 1.802z"/><path d="m338.224 417.727c-2.761 0-5 2.239-5 5v-.016c0 .996-.807 1.803-1.803 1.803h-5.331c-.996 0-1.803-.807-1.803-1.803v-16.457c0-.995.807-1.802 1.802-1.802h5.332c.995 0 1.802.807 1.802 1.802v.026c0 2.761 2.239 5 5 5 2.761 0 5-2.239 5-5v-.026c0-6.518-5.284-11.802-11.802-11.802h-5.332c-6.518 0-11.803 5.284-11.803 11.803v16.457c0 6.518 5.284 11.803 11.803 11.803h5.332c6.518 0 11.802-5.284 11.802-11.802v.015c.001-2.763-2.237-5.001-4.999-5.001z"/><path d="m251.416 394.452h-9.395c-2.761 0-5 2.239-5 5s2.239 5 5 5h9.395c1.387 0 2.515 1.128 2.515 2.515s-1.128 2.516-2.515 2.516h-9.395c-2.761 0-5 2.239-5 5s2.239 5 5 5h9.395c1.387 0 2.515 1.128 2.515 2.516 0 1.387-1.128 2.515-2.515 2.515h-9.395c-2.761 0-5 2.239-5 5s2.239 5 5 5h9.395c6.901 0 12.515-5.614 12.515-12.515 0-2.822-.95-5.42-2.531-7.516 1.582-2.096 2.531-4.694 2.531-7.516 0-6.901-5.614-12.515-12.515-12.515z"/><path d="m224.834 394.76c-2.761 0-5 2.239-5 5v7.935h-5.623v-7.935c0-2.761-2.239-5-5-5s-5 2.239-5 5v12.935c0 2.761 2.239 5 5 5h10.623v11.511c0 2.761 2.239 5 5 5s5-2.239 5-5v-29.446c0-2.761-2.238-5-5-5z"/><path d="m186.522 409.695h-7.747v-4.935h10.623c2.761 0 5-2.239 5-5s-2.239-5-5-5h-12.747c-4.343 0-7.876 3.533-7.876 7.876v9.183c0 4.343 3.533 7.876 7.876 7.876h7.747v4.511h-10.623c-2.761 0-5 2.239-5 5s2.239 5 5 5h12.747c4.343 0 7.876-3.533 7.876-7.876v-8.758c0-4.344-3.533-7.877-7.876-7.877z"/></g><circle cx="204.212" cy="429.514" r="5"/><circle cx="306.71" cy="392.751" r="5"/></g></g></g><path d="m256 31.993c-104.965 0-190.36 85.396-190.36 190.36 0 30.632 7.45 61.078 21.543 88.047 13.4 25.641 32.805 48.214 56.164 65.396-.666 1.695-1.044 3.533-1.044 5.461v67.75c0 8.271 6.729 15 15 15h34.057c2.761 0 5-2.239 5-5s-2.239-5-5-5h-34.057c-2.757 0-5-2.243-5-5v-67.75c0-2.757 2.243-5 5-5h197.396c2.757 0 5 2.243 5 5v67.75c0 2.757-2.243 5-5 5h-134.53c-2.761 0-5 2.239-5 5s2.239 5 5 5h134.529c8.271 0 15-6.729 15-15v-67.75c0-8.271-6.729-15-15-15h-162.831v-72.7l56.664-56.664c1.953-1.953 1.953-5.119 0-7.071s-5.118-1.952-7.071 0l-58.128 58.128c-.938.938-1.464 2.209-1.464 3.536v74.771h-24.565c-2.687 0-5.205.719-7.389 1.962-46.517-33.894-74.274-88.367-74.274-145.866 0-99.451 80.909-180.36 180.36-180.36s180.36 80.909 180.36 180.36c0 49.923-19.941 96.364-56.149 130.769-2.002 1.902-2.083 5.067-.181 7.068 1.902 2.002 5.067 2.084 7.068.181 18.524-17.601 33.098-38.339 43.317-61.64 10.58-24.125 15.945-49.822 15.945-76.377 0-104.966-85.395-190.361-190.36-190.361z" fill="#2626bc"/></g><g><path d="m464.359 129.338c-1.031 0-2.062-.318-2.939-.955l-3.859-2.804-3.859 2.804c-1.752 1.273-4.125 1.273-5.878 0-1.752-1.273-2.486-3.53-1.816-5.59l1.474-4.538-3.859-2.804c-1.752-1.273-2.486-3.53-1.816-5.59s2.589-3.455 4.755-3.455h4.771l1.474-4.537c.669-2.06 2.589-3.455 4.755-3.455s4.086 1.395 4.755 3.455l1.474 4.537h4.771c2.166 0 4.086 1.395 4.755 3.455s-.064 4.317-1.816 5.59l-3.859 2.804 1.474 4.538c.669 2.06-.064 4.317-1.816 5.59-.878.637-1.909.955-2.941.955z" fill="#8399fe"/></g><g><path d="m406.219 62.613c-1.28 0-2.559-.488-3.536-1.464l-10.5-10.5c-1.953-1.953-1.953-5.119 0-7.071l10.5-10.5c1.953-1.952 5.118-1.952 7.071 0l10.5 10.5c1.953 1.953 1.953 5.119 0 7.071l-10.5 10.5c-.976.976-2.255 1.464-3.535 1.464zm-3.428-15.5 3.429 3.429 3.429-3.429-3.429-3.429z" fill="#01eca5"/></g><g><path d="m411.65 438.459c-1.28 0-2.559-.488-3.536-1.464l-10.5-10.5c-1.953-1.953-1.953-5.119 0-7.071l10.5-10.5c1.953-1.952 5.118-1.952 7.071 0l10.5 10.5c1.953 1.953 1.953 5.119 0 7.071l-10.5 10.5c-.976.976-2.255 1.464-3.535 1.464zm-3.429-15.5 3.429 3.429 3.429-3.429-3.429-3.429z" fill="#8399fe"/></g><g><path d="m80.063 370.04c-1.28 0-2.559-.488-3.536-1.464l-10.5-10.5c-1.953-1.953-1.953-5.119 0-7.071l10.5-10.5c1.953-1.952 5.118-1.952 7.071 0l10.5 10.5c1.953 1.953 1.953 5.119 0 7.071l-10.5 10.5c-.975.976-2.255 1.464-3.535 1.464zm-3.428-15.5 3.429 3.429 3.429-3.429-3.429-3.429z" fill="#ff7eb8"/></g><g><path d="m48.288 317.807c-1.28 0-2.559-.488-3.536-1.464l-10.5-10.5c-1.953-1.953-1.953-5.119 0-7.071l10.5-10.5c1.953-1.952 5.118-1.952 7.071 0l10.5 10.5c1.953 1.953 1.953 5.119 0 7.071l-10.5 10.5c-.976.976-2.255 1.464-3.535 1.464zm-3.429-15.5 3.429 3.429 3.429-3.429-3.429-3.429z" fill="#01eca5"/></g></g></g></svg>