<svg id="Capa_1" enable-background="new 0 0 512 512" height="512" viewBox="0 0 512 512" width="512" xmlns="http://www.w3.org/2000/svg" xmlns:xlink="http://www.w3.org/1999/xlink"><linearGradient id="SVGID_1_" gradientUnits="userSpaceOnUse" x1="94.259" x2="444.728" y1="431.305" y2="80.836"><stop offset=".0485" stop-color="#ffdbed"/><stop offset=".9993" stop-color="#d2deff"/></linearGradient><g><g><path d="m481.808 351.905c-42.523-36.927-115.465-51.988-132.458-107.397-13.252-43.213 59.076-69.122 74.377-108.559 36.967-95.283-78.393-157.131-139.438-81.716-18.502 22.857-45.278 103.725-76.82 90.574-45.979-19.17-34.827-107.526-121.533-103.963-86.948 3.574-110.224 127.819-59.235 193.013 32.013 40.932 83.832 64.937 108.594 111.596 36.218 68.246-23.323 84.408-7.861 116.339 12.701 26.229 54.025 27.518 78.851 14.688 24.459-12.64 38.839-38.455 59.269-56.909 53.165-48.022 89.836 35.665 131.914 58.032 29.318 15.584 63.506 11.911 89.03-9.553 38.248-32.161 30.827-85.302-4.69-116.145z" fill="url(#SVGID_1_)"/></g><g><g><path d="m411.162 298.007-31.167-31.167c-1.125-1.125-2.651-1.757-4.243-1.757h-44.077c-1.591 0-3.117.632-4.243 1.757l-17.353 17.353-8.302-15.292v-39.197h11.648c4.682 0 8.477-3.795 8.477-8.477v-9.899c0-4.682-3.795-8.477-8.477-8.477h-52.37v-27.729c25.383 7.52 53.987 1.272 74.037-18.778 14.824-14.824 22.106-34.329 21.853-53.749-.032-2.486-1.956-4.511-4.422-4.829-3.519-.454-7.011-1.157-10.447-2.114-1.711-.477-3.047-1.813-3.523-3.525-.956-3.438-1.661-6.93-2.116-10.448-.319-2.466-2.344-4.388-4.83-4.42-14.381-.184-28.794 3.772-41.328 11.848-5.948-12.993-19.055-22.025-34.28-22.025-15.214 0-28.314 9.019-34.268 21.998-12.524-8.057-26.92-12.004-41.284-11.821-2.486.032-4.511 1.954-4.83 4.42-.455 3.518-1.161 7.01-2.116 10.448-.476 1.712-1.811 3.048-3.523 3.525-3.435.957-6.928 1.66-10.447 2.114-2.466.318-4.389 2.343-4.422 4.829-.253 19.42 7.029 38.925 21.853 53.749 20.064 20.064 48.697 26.307 74.093 18.761v27.746h-52.478c-4.682 0-8.477 3.795-8.477 8.477v9.899c0 4.682 3.795 8.477 8.477 8.477h11.649v39.191l-96.336 177.453c-11.039 20.334 3.682 45.076 26.819 45.076h230.58c23.137 0 37.858-24.742 26.819-45.076l-34.122-62.854h11.764c1.591 0 3.117-.632 4.243-1.757l31.167-31.167c1.125-1.125 1.757-2.651 1.757-4.243v-44.077c.002-1.591-.63-3.117-1.755-4.243z" fill="#2626bc" opacity=".1"/><circle cx="256" cy="80.774" fill="#ff5ba8" r="37.692"/><path d="m273.912 92.157c0 9.893-8.02 9.912-17.912 9.912s-17.912-.02-17.912-9.912 8.02-25.912 17.912-25.912 17.912 16.019 17.912 25.912z" fill="#ff7eb8"/><g><path d="m398.109 422.348-96.331-177.447v-39.197h-91.551v39.191l-96.336 177.453c-11.039 20.334 3.682 45.076 26.819 45.076h230.58c23.137 0 37.858-24.742 26.819-45.076z" fill="#b7c5ff"/><path d="m371.29 467.419h-230.58c-23.14 0-37.86-24.74-26.82-45.07l49.31-90.82c5.41-2.08 11.06-3.6 16.92-4.5 26.36-4.05 56.48 13.23 74.17 23.38 17.68 10.14 47.81 27.42 74.17 23.37 12.95-1.99 24.87-6.99 35.46-14.41l34.19 62.98c11.04 20.33-3.68 45.07-26.82 45.07z" fill="#00d890"/></g><g><path d="m313.427 205.704h-114.849c-4.682 0-8.477-3.795-8.477-8.477v-9.899c0-4.682 3.795-8.477 8.477-8.477h114.849c4.682 0 8.477 3.795 8.477 8.477v9.899c-.001 4.681-3.796 8.477-8.477 8.477z" fill="#d2deff"/><g><path d="m251.056 205.704v208.715c0 2.761 2.239 5 5 5s5-2.239 5-5v-208.715z" fill="#4369fd"/></g><g><path d="m251.056 178.851h10v26.853h-10z" fill="#6583fe"/></g></g><g><path d="m371.29 467.419h-230.58c-23.14 0-37.86-24.74-26.82-45.07l33.27-61.28c9.95 6.49 21.02 10.88 32.96 12.71 26.36 4.05 56.48-13.23 74.17-23.37 17.68-10.15 47.81-27.43 74.17-23.38 7.48 1.15 14.62 3.3 21.35 6.35l48.3 88.97c11.04 20.33-3.68 45.07-26.82 45.07z" fill="#02ffb3"/></g><g><path d="m376.95 383.369c-.39.08-.8.12-1.2.12h-44.07c-1.6 0-3.12-.63-4.25-1.75l-31.16-31.17c-1.13-1.13-1.76-2.65-1.76-4.24v-15.24c11.19-3.71 22.9-5.76 33.95-4.06 7.48 1.15 14.62 3.3 21.35 6.35z" fill="#01eca5"/></g><g><g><path d="m277.867 75.118c-20.442 20.442-26.552 49.787-18.328 75.547 25.753 8.231 55.105 2.128 75.554-18.321 14.824-14.824 22.106-34.329 21.853-53.749-.032-2.486-1.956-4.511-4.422-4.829-3.519-.454-7.011-1.157-10.447-2.114-1.712-.477-3.047-1.813-3.523-3.525-.956-3.438-1.661-6.93-2.116-10.448-.319-2.466-2.344-4.388-4.83-4.42-19.424-.248-38.917 7.035-53.741 21.859z" fill="#02ffb3"/><g><path d="m279.812 135.392c1.28 0 2.559-.488 3.536-1.464l44.618-44.618c1.953-1.953 1.953-5.119 0-7.071s-5.118-1.952-7.071 0l-44.618 44.618c-1.953 1.953-1.953 5.119 0 7.071.976.976 2.255 1.464 3.535 1.464z" fill="#00d890"/></g></g></g><g><g><path d="m234.189 75.118c20.442 20.442 26.552 49.787 18.328 75.547-25.753 8.231-55.105 2.128-75.554-18.321-14.824-14.824-22.106-34.329-21.853-53.749.032-2.486 1.956-4.511 4.422-4.829 3.519-.454 7.012-1.157 10.447-2.114 1.712-.477 3.047-1.813 3.523-3.525.956-3.438 1.661-6.93 2.116-10.448.319-2.466 2.344-4.388 4.83-4.42 19.424-.248 38.917 7.035 53.741 21.859z" fill="#02ffb3"/><g><path d="m232.244 135.392c-1.28 0-2.559-.488-3.536-1.464l-44.617-44.618c-1.953-1.953-1.953-5.119 0-7.071s5.118-1.952 7.071 0l44.618 44.618c1.953 1.953 1.953 5.119 0 7.071-.977.976-2.256 1.464-3.536 1.464z" fill="#00d890"/></g></g></g><g><circle cx="321.29" cy="391.622" fill="#dcfdee" r="7.5"/><circle cx="345.579" cy="418.419" fill="#97ffd2" r="7.5"/><circle cx="195.914" cy="414.956" fill="#97ffd2" r="7.5"/><g fill="#01eca5"><circle cx="313.79" cy="438.195" r="7.5"/><circle cx="175.508" cy="435.638" r="7.5"/></g></g><g><g><path d="m375.752 241.083h-44.077c-1.591 0-3.117.632-4.243 1.757l-31.167 31.167c-1.125 1.125-1.757 2.651-1.757 4.243v44.077c0 1.591.632 3.117 1.757 4.243l31.167 31.167c1.125 1.125 2.651 1.757 4.243 1.757h44.077c1.591 0 3.117-.632 4.243-1.757l31.167-31.167c1.125-1.125 1.757-2.651 1.757-4.243v-44.077c0-1.591-.632-3.117-1.757-4.243l-31.167-31.167c-1.126-1.125-2.652-1.757-4.243-1.757z" fill="#97ffd2"/></g><g><circle cx="353.714" cy="300.288" fill="#01eca5" r="45.126"/><path d="m414.697 270.472-31.167-31.167c-2.078-2.078-4.84-3.222-7.778-3.222h-44.077c-2.938 0-5.701 1.144-7.778 3.222l-12.618 12.618-4.501-8.291v-32.928h6.648c7.431 0 13.477-6.045 13.477-13.477v-9.899c0-7.431-6.045-13.477-13.477-13.477h-52.371v-17.517c7.063 1.957 14.241 2.914 21.356 2.914 20.769 0 40.999-8.151 56.216-23.368 15.318-15.319 23.599-35.686 23.316-57.35-.064-4.904-3.839-9.084-8.782-9.722-3.297-.425-6.576-1.088-9.792-2.019-.886-3.187-1.55-6.468-1.975-9.75-.639-4.942-4.82-8.716-9.725-8.778-14.037-.176-27.54 3.268-39.484 9.878-7.73-12.336-21.397-20.058-36.188-20.058-14.775 0-28.438 7.713-36.175 20.034-11.924-6.587-25.403-10.016-39.441-9.854-4.905.062-9.086 3.836-9.725 8.778-.425 3.283-1.089 6.563-2.022 9.798-3.168.883-6.447 1.546-9.745 1.971-4.941.638-8.716 4.818-8.781 9.723-.283 21.664 7.998 42.031 23.316 57.35 15.218 15.218 35.445 23.369 56.216 23.368 7.133 0 14.332-.963 21.413-2.93v17.533h-11.533c-2.761 0-5 2.239-5 5s2.239 5 5 5h73.903c1.917 0 3.477 1.56 3.477 3.477v9.899c0 1.917-1.56 3.477-3.477 3.477h-114.845c-1.917 0-3.477-1.56-3.477-3.477v-9.899c0-1.917 1.56-3.477 3.477-3.477h12.136c2.761 0 5-2.239 5-5s-2.239-5-5-5h-12.136c-7.431 0-13.477 6.046-13.477 13.477v9.899c0 7.431 6.046 13.477 13.477 13.477h6.649v32.922l-95.731 176.337c-6.034 11.114-5.775 24.237.691 35.105s17.876 17.356 30.522 17.356h230.58c12.646 0 24.056-6.488 30.522-17.356s6.725-23.991.691-35.105l-21.095-38.858c-1.316-2.426-4.351-3.326-6.78-2.008-2.427 1.317-3.326 4.353-2.008 6.78l21.095 38.858c4.334 7.984 4.149 17.413-.497 25.221s-12.843 12.469-21.929 12.469h-230.578c-9.085 0-17.283-4.661-21.929-12.469s-4.831-17.237-.497-25.221l96.337-177.453c.398-.732.606-1.553.606-2.386v-34.191h81.551v34.197c0 .833.208 1.653.606 2.386l6.52 12.01-11.175 11.175c-2.078 2.078-3.222 4.84-3.222 7.778v44.077c0 2.938 1.144 5.701 3.222 7.778l31.167 31.167c2.078 2.078 4.84 3.222 7.778 3.222h44.077c2.938 0 5.701-1.144 7.778-3.222l31.167-31.167c2.078-2.078 3.222-4.84 3.222-7.778v-44.079c.001-2.939-1.143-5.701-3.221-7.778zm-83.217-212.152c.485 3.753 1.245 7.503 2.257 11.146.938 3.378 3.62 6.062 6.999 7.003 3.628 1.011 7.379 1.77 11.148 2.256.027.003.048.011.063.018.225 18.912-7.014 36.69-20.39 50.065-17.907 17.907-43.746 24.627-68.002 17.841-1.464-5.242-2.295-10.557-2.522-15.851.074-1.97.076-3.937.004-5.897.722-17.134 7.772-33.655 20.366-46.248 13.374-13.374 31.169-20.61 50.059-20.396.007.016.014.036.018.063zm-75.48-10.241c11.354 0 21.836 5.949 27.747 15.436-3.308 2.422-6.458 5.109-9.416 8.066-8.227 8.227-14.378 17.924-18.303 28.376-3.925-10.452-10.076-20.149-18.303-28.376-2.97-2.97-6.134-5.667-9.456-8.095 5.918-9.469 16.394-15.407 27.731-15.407zm-75.501 80.729c-13.375-13.375-20.615-31.153-20.39-50.065.015-.007.035-.015.062-.018 3.771-.486 7.521-1.245 11.15-2.256 3.378-.941 6.059-3.625 6.998-7.003 1.013-3.643 1.772-7.393 2.257-11.146.004-.027.011-.047.018-.062 18.893-.23 36.686 7.021 50.059 20.396 12.593 12.593 19.644 29.115 20.366 46.248-.072 1.96-.07 3.927.004 5.897-.227 5.294-1.058 10.609-2.522 15.851-24.255 6.784-50.095.065-68.002-17.842zm227.42 193.519c0 .267-.104.518-.293.707l-31.167 31.167c-.186.186-.444.293-.707.293h-44.077c-.263 0-.521-.107-.707-.293l-31.167-31.167c-.189-.189-.293-.44-.293-.707v-44.077c0-.267.104-.518.293-.707l31.167-31.167c.186-.186.444-.293.707-.293h44.077c.263 0 .521.107.707.293l31.167 31.167c.189.189.293.44.293.707z" fill="#2626bc"/><g fill="#fff"><path d="m349.176 277.436c-.751-1.914-2.598-3.173-4.654-3.173h-.152c-2.056 0-3.903 1.259-4.654 3.173l-14.937 38.05c-1.009 2.57.257 5.472 2.827 6.481 2.569 1.007 5.472-.257 6.481-2.827l3.022-7.699h14.673l3.022 7.699c.773 1.97 2.66 3.174 4.656 3.174.607 0 1.226-.112 1.826-.347 2.57-1.009 3.836-3.911 2.827-6.481zm-8.142 24.006 3.411-8.689 3.411 8.689z"/><path d="m377.995 281.122h-1.859v-1.858c0-2.761-2.239-5-5-5s-5 2.239-5 5v1.858h-1.858c-2.761 0-5 2.239-5 5s2.239 5 5 5h1.858v1.859c0 2.761 2.239 5 5 5s5-2.239 5-5v-1.859h1.859c2.761 0 5-2.239 5-5s-2.238-5-5-5z"/></g></g></g></g><g><path d="m151.334 190.285c-1.031 0-2.062-.318-2.939-.955l-3.859-2.804-3.859 2.804c-1.753 1.272-4.125 1.273-5.878 0-1.752-1.273-2.486-3.53-1.816-5.59l1.474-4.537-3.859-2.804c-1.752-1.273-2.486-3.53-1.816-5.59s2.589-3.455 4.755-3.455h4.771l1.474-4.537c.669-2.06 2.589-3.455 4.755-3.455s4.086 1.395 4.755 3.455l1.474 4.537h4.771c2.166 0 4.086 1.395 4.755 3.455s-.064 4.317-1.816 5.59l-3.859 2.804 1.474 4.537c.669 2.06-.064 4.317-1.816 5.59-.878.637-1.91.955-2.941.955z" fill="#ff7eb8"/></g><g><path d="m103.907 235.684c-1.031 0-2.062-.318-2.939-.955-1.752-1.273-2.486-3.53-1.816-5.59l1.475-4.537-3.859-2.804c-1.753-1.273-2.486-3.53-1.817-5.59s2.589-3.455 4.755-3.455h4.771l1.474-4.537c.669-2.06 2.589-3.455 4.755-3.455s4.086 1.395 4.755 3.455l1.474 4.538h4.771c2.166 0 4.086 1.395 4.755 3.455s-.064 4.317-1.816 5.59l-3.859 2.803 1.475 4.537c.669 2.06-.064 4.317-1.816 5.59s-4.125 1.273-5.878 0l-3.86-2.804-3.859 2.804c-.878.637-1.91.955-2.941.955z" fill="#8399fe"/></g><g><path d="m435.7 401.082c-1.031 0-2.062-.318-2.939-.955-1.752-1.273-2.486-3.53-1.816-5.59l1.475-4.537-3.859-2.804c-1.752-1.273-2.486-3.53-1.816-5.59s2.589-3.455 4.755-3.455h4.771l1.474-4.537c.669-2.06 2.589-3.455 4.755-3.455 2.166 0 4.086 1.395 4.755 3.455l1.474 4.537h4.771c2.166 0 4.086 1.395 4.755 3.455s-.064 4.317-1.816 5.59l-3.86 2.804 1.475 4.537c.669 2.06-.064 4.317-1.816 5.59s-4.125 1.273-5.878 0l-3.859-2.804-3.86 2.804c-.878.637-1.91.955-2.941.955z" fill="#8399fe"/></g><g><path d="m93.93 365.457c-1.28 0-2.559-.488-3.536-1.464l-10.5-10.5c-1.953-1.953-1.953-5.119 0-7.071l10.5-10.5c1.953-1.952 5.118-1.952 7.071 0l10.5 10.5c1.953 1.953 1.953 5.119 0 7.071l-10.5 10.5c-.976.976-2.255 1.464-3.535 1.464zm-3.429-15.5 3.429 3.429 3.429-3.429-3.429-3.429z" fill="#01eca5"/></g><g><path d="m425.203 218.277c-1.28 0-2.559-.488-3.536-1.464l-10.5-10.5c-1.953-1.953-1.953-5.119 0-7.071l10.5-10.5c1.953-1.952 5.118-1.952 7.071 0l10.5 10.5c1.953 1.953 1.953 5.119 0 7.071l-10.5 10.5c-.976.976-2.256 1.464-3.535 1.464zm-3.429-15.5 3.429 3.429 3.429-3.429-3.429-3.429z" fill="#ff7eb8"/></g></g></g></svg>