<svg id="Capa_1" enable-background="new 0 0 512 512" height="512" viewBox="0 0 512 512" width="512" xmlns="http://www.w3.org/2000/svg" xmlns:xlink="http://www.w3.org/1999/xlink"><linearGradient id="SVGID_1_" gradientUnits="userSpaceOnUse" x1="49.38" x2="412.486" y1="417.365" y2="54.259"><stop offset=".0485" stop-color="#d2deff"/><stop offset=".9993" stop-color="#dcfdee"/></linearGradient><g><g><path d="m392.316 156.857c-29.407-49.49 2.869-55.228 2.869-98.98 0-73.942-128.277-60.659-170.765-47.965-57.215 17.094-162.975 114.845-163.037 174.558-.108 103.643 100.697 95.753 93.321 221.249-2.779 47.279-43.899 67.254-22.747 93.92 37.247 46.958 169.987-46.56 164.966-167.774-1.889-45.599 98.98 27.973 142.014-43.035 31.225-51.521-15.228-79.14-46.621-131.973z" fill="url(#SVGID_1_)"/></g><g><g><path d="m474.707 399.886c-2.938-18.66-19.703-31.192-37.694-29.685-.026-.169-.035-.337-.079-.506l-16.958-65.081h27.11v-41.208h-37.848l-20.563-78.915c7.083-3.007 12.063-10.032 12.063-18.198 0-5.871-2.588-11.137-6.667-14.759h48.015c2.761 0 5-2.239 5-5v-33.523h-411.548v33.523c0 2.761 2.239 5 5 5h46.83c-4.079 3.622-6.667 8.888-6.667 14.759 0 9.165 6.281 16.871 14.759 19.094v53.657c-2.218-.671-4.768-.281-6.764 1.573l-38.826 36.066c-4.259 3.956-4.259 10.697 0 14.653l38.825 36.067c1.996 1.854 4.547 2.244 6.764 1.574v47.589c0 .122.027.236.036.355-17.876 2.524-31.441 18.462-30.166 37.309 1.176 17.373 15.215 31.452 32.585 32.673 20.598 1.447 37.758-14.834 37.758-35.124 0-17.762-13.153-32.445-30.249-34.858.009-.119.036-.233.036-.355v-71.952h60.426v71.952c0 .122.027.236.036.355-17.876 2.524-31.441 18.462-30.166 37.309 1.176 17.373 15.215 31.453 32.585 32.673 20.598 1.447 37.758-14.834 37.758-35.124 0-17.762-13.153-32.445-30.249-34.858.009-.119.036-.233.036-.355v-71.952h60.426v71.952c0 .122.027.236.036.355-17.876 2.524-31.441 18.462-30.166 37.309 1.176 17.373 15.215 31.452 32.585 32.673 20.598 1.447 37.758-14.834 37.758-35.124 0-17.762-13.153-32.445-30.249-34.858.009-.119.036-.233.036-.355v-71.952h46.913l13.513 12.553v59.399c0 .122.027.236.036.355-17.876 2.524-31.441 18.462-30.166 37.309 1.176 17.373 15.216 31.452 32.585 32.673 20.598 1.447 37.758-14.834 37.758-35.124 0-17.762-13.153-32.445-30.249-34.858.009-.119.036-.233.036-.355v-50.109l1.019.947c4.479 4.16 11.764.984 11.764-5.128v-17.661h80.12l17.615 67.603c.017.066.048.126.067.191-16.128 6.15-25.691 23.382-21.75 40.697 4.502 19.783 24.846 31.851 44.609 25.87 16.668-5.045 27.234-21.889 24.526-39.09zm-88.612-225.299-.277-1.062c-.697-2.671-3.424-4.277-6.1-3.578-2.211.576-3.667 2.548-3.717 4.725-2.858-1.704-4.782-4.818-4.782-8.38 0-5.381 4.378-9.759 9.76-9.759 5.381 0 9.759 4.378 9.759 9.759 0 3.504-1.862 6.573-4.643 8.295zm-69.426.112c-.335-2.436-2.403-4.32-4.931-4.32-2.529 0-4.597 1.883-4.931 4.32-2.883-1.698-4.827-4.826-4.827-8.407 0-5.381 4.378-9.759 9.759-9.759 5.382 0 9.76 4.378 9.76 9.759-.001 3.581-1.946 6.709-4.83 8.407zm-70.426 0c-.335-2.436-2.403-4.32-4.931-4.32s-4.597 1.883-4.931 4.32c-2.883-1.698-4.828-4.826-4.828-8.408 0-5.381 4.378-9.759 9.759-9.759s9.76 4.378 9.76 9.759c0 3.582-1.945 6.71-4.829 8.408zm-70.426 0c-.335-2.436-2.403-4.32-4.931-4.32s-4.597 1.883-4.931 4.32c-2.883-1.698-4.828-4.826-4.828-8.408 0-5.381 4.378-9.759 9.759-9.759s9.76 4.378 9.76 9.759c-.001 3.582-1.946 6.71-4.829 8.408zm-85.117-8.407c0-5.381 4.378-9.759 9.759-9.759s9.76 4.378 9.76 9.759c0 3.581-1.945 6.71-4.828 8.408-.335-2.436-2.403-4.32-4.931-4.32s-4.597 1.883-4.931 4.32c-2.884-1.699-4.829-4.827-4.829-8.408zm14.759 97.113v-78.02c8.478-2.223 14.76-9.929 14.76-19.094 0-5.871-2.588-11.137-6.667-14.759h44.242c-4.079 3.622-6.667 8.888-6.667 14.759 0 9.165 6.281 16.871 14.759 19.094v78.02zm70.426 0v-78.02c8.478-2.223 14.76-9.929 14.76-19.094 0-5.871-2.588-11.137-6.667-14.759h44.242c-4.079 3.622-6.667 8.888-6.667 14.759 0 9.165 6.281 16.871 14.759 19.094v78.02zm70.427-78.019c8.478-2.223 14.76-9.929 14.76-19.094 0-5.871-2.589-11.137-6.668-14.759h44.242c-4.079 3.622-6.667 8.888-6.667 14.759 0 9.165 6.281 16.871 14.759 19.094v65.467l-13.513 12.553h-46.913zm83.209 78.019v-17.661c0-6.113-7.286-9.289-11.764-5.129l-1.019.947v-56.177c8.478-2.223 14.76-9.929 14.76-19.094 0-5.871-2.588-11.137-6.667-14.759h43.057c-4.079 3.622-6.667 8.888-6.667 14.759 0 10.127 7.662 18.489 17.491 19.619l20.193 77.495z" fill="#2626bc" opacity=".1"/><g><path d="m344.03 239.405h-243.57v-17.661c0-6.113-7.286-9.289-11.764-5.129l-38.826 36.068c-4.259 3.956-4.259 10.697 0 14.653l38.825 36.067c4.479 4.16 11.764.984 11.764-5.129v-17.661h243.57v-41.208z" fill="#ff7eb8"/><g><g><g><path d="m35.538 89.009h411.549v38.523h-411.549z" fill="#ffc4df"/><path d="m98.933 89.009h284.758v38.523h-284.758z" fill="#ff7eb8"/></g><g><g><circle cx="100.459" cy="387.778" fill="#9fb0fe" r="35.213"/><circle cx="92.849" cy="380.167" fill="#d2deff" r="13.624"/></g><g><circle cx="170.886" cy="387.778" fill="#9fb0fe" r="35.213"/><circle cx="163.275" cy="380.167" fill="#d2deff" r="13.624"/></g><g><circle cx="241.312" cy="387.778" fill="#9fb0fe" r="35.213"/><circle cx="233.701" cy="380.167" fill="#d2deff" r="13.624"/></g><g><circle cx="311.738" cy="387.778" fill="#9fb0fe" r="35.213"/><circle cx="304.128" cy="380.167" fill="#d2deff" r="13.624"/></g><g><circle cx="439.909" cy="381.291" fill="#9fb0fe" r="35.213"/><circle cx="430.799" cy="375.559" fill="#d2deff" r="13.624"/></g></g></g><g><path d="m447.086 239.405h-117.564v-17.661c0-6.113-7.286-9.289-11.764-5.129l-38.825 36.067c-4.259 3.956-4.259 10.697 0 14.653l38.825 36.067c4.479 4.16 11.764.984 11.764-5.129v-17.661h117.565v-41.207z" fill="#01eca5"/><g fill="#2626bc"><path d="m35.537 94.009h411.549c2.762 0 5-2.239 5-5s-2.238-5-5-5h-411.549c-2.761 0-5 2.239-5 5s2.239 5 5 5z"/><path d="m479.12 372.368c-4.555-20.018-23.406-33.136-43.334-31.069l-14.511-55.686h25.812c2.762 0 5-2.239 5-5s-2.238-5-5-5h-117.566c-2.762 0-5 2.239-5 5v17.661c0 1.14-.752 1.638-1.2 1.833-.449.196-1.326.407-2.16-.368l-38.825-36.067c-1.03-.957-1.598-2.258-1.598-3.664 0-1.405.567-2.706 1.598-3.663l38.825-36.067c.834-.775 1.711-.563 2.16-.368.448.195 1.2.694 1.2 1.833v17.661c0 2.761 2.238 5 5 5h74.479c.024 0 .047.006.07.006.031 0 .062-.005.092-.006h42.923c2.762 0 5-2.239 5-5s-2.238-5-5-5h-39.149l-19.257-73.918c7.08-3.008 12.058-10.031 12.058-18.196 0-3.55-.954-6.877-2.6-9.759h48.949c2.762 0 5-2.239 5-5s-2.238-5-5-5h-411.549c-2.761 0-5 2.239-5 5s2.239 5 5 5h47.763c-1.646 2.883-2.6 6.209-2.6 9.759 0 9.165 6.281 16.871 14.759 19.094v48.52c-3.635-.639-7.347.428-10.167 3.048l-38.825 36.068c-3.044 2.828-4.791 6.834-4.791 10.989 0 4.156 1.746 8.162 4.791 10.99l38.825 36.067c2.289 2.126 5.166 3.234 8.112 3.233.684 0 1.371-.074 2.055-.194v37.781c-19.821 2.471-35.213 19.412-35.213 39.891 0 22.174 18.04 40.213 40.213 40.213 15.145 0 28.356-8.419 35.213-20.819 6.857 12.4 20.068 20.819 35.213 20.819s28.356-8.419 35.213-20.819c6.857 12.4 20.068 20.819 35.213 20.819s28.356-8.419 35.213-20.819c6.857 12.4 20.068 20.819 35.213 20.819 16.129 0 30.648-9.585 36.989-24.42 1.085-2.54-.094-5.478-2.633-6.563-2.536-1.083-5.477.092-6.562 2.632-4.765 11.148-15.675 18.351-27.794 18.351-16.659 0-30.213-13.553-30.213-30.213s13.554-30.213 30.213-30.213c11.646 0 22.38 6.814 27.346 17.361 1.178 2.499 4.155 3.57 6.653 2.394s3.57-4.155 2.394-6.653c-5.89-12.509-17.884-21.053-31.396-22.766v-39.113c1.773.991 3.734 1.513 5.732 1.512 1.625 0 3.271-.337 4.851-1.025 4.443-1.938 7.204-6.152 7.204-11v-12.661h76.419l15.098 57.938c-8.322 3.04-15.37 8.702-20.164 16.323-5.721 9.091-7.559 19.866-5.175 30.339 2.383 10.474 8.702 19.392 17.793 25.113 6.496 4.087 13.85 6.192 21.34 6.192 2.993 0 6.01-.336 9-1.017 21.62-4.919 35.208-26.512 30.288-48.133zm-203.591-123.348c-3.045 2.828-4.791 6.834-4.791 10.989 0 4.156 1.746 8.162 4.791 10.99l4.967 4.614h-34.184v-31.208h17.815c2.762 0 5-2.239 5-5s-2.238-5-5-5h-17.815v-73.02c8.478-2.223 14.76-9.929 14.76-19.094 0-3.55-.954-6.877-2.6-9.759h36.108c-1.646 2.883-2.6 6.209-2.6 9.759 0 9.164 6.279 16.869 14.755 19.093v58.647zm-39.217 98.867c-13.018 1.623-24.123 9.484-30.213 20.497-6.09-11.013-17.195-18.874-30.213-20.497v-62.274h60.426zm-100.639 20.497c-6.09-11.013-17.195-18.874-30.213-20.497v-62.274h60.426v62.274c-13.019 1.623-24.123 9.484-30.213 20.497zm-15.454-226.092c0-3.55-.954-6.877-2.6-9.759h36.108c-1.646 2.883-2.6 6.209-2.6 9.759 0 9.165 6.281 16.871 14.759 19.094v73.02h-60.426v-73.02c8.477-2.224 14.759-9.929 14.759-19.094zm130.853 0c0 3.581-1.945 6.71-4.828 8.408-.335-2.436-2.403-4.32-4.931-4.32s-4.597 1.883-4.931 4.32c-2.883-1.698-4.828-4.826-4.828-8.408 0-5.381 4.378-9.759 9.759-9.759s9.759 4.377 9.759 9.759zm-14.76 19.093v73.02h-60.426v-73.02c8.478-2.223 14.76-9.929 14.76-19.094 0-3.55-.954-6.877-2.6-9.759h36.108c-1.646 2.883-2.6 6.209-2.6 9.759-.002 9.166 6.28 16.871 14.758 19.094zm-55.667-19.093c0 3.581-1.945 6.71-4.828 8.408-.335-2.436-2.403-4.32-4.931-4.32s-4.597 1.883-4.931 4.32c-2.883-1.698-4.828-4.826-4.828-8.408 0-5.381 4.378-9.759 9.759-9.759s9.759 4.377 9.759 9.759zm-14.76 102.113v31.208h-60.426v-31.208zm10 31.208v-31.208h60.426v31.208zm145.613-133.321c0 3.583-1.947 6.713-4.832 8.41-.334-2.437-2.402-4.322-4.932-4.322-2.528 0-4.595 1.882-4.931 4.317-2.881-1.699-4.824-4.826-4.824-8.405 0-5.381 4.378-9.759 9.759-9.759 5.382-.001 9.76 4.377 9.76 9.759zm13.023 92.113v-12.661c0-4.848-2.761-9.063-7.205-11-3.52-1.535-7.368-1.315-10.582.481v-49.839c8.48-2.222 14.764-9.928 14.764-19.095 0-3.55-.954-6.877-2.6-9.759h34.922c-1.646 2.883-2.6 6.209-2.6 9.759 0 10.129 7.665 18.493 17.497 19.62l18.886 72.494zm56.217-92.113c0 3.502-1.86 6.57-4.638 8.292l-.277-1.065c-.697-2.671-3.423-4.274-6.1-3.578-2.214.576-3.67 2.553-3.717 4.733-2.86-1.704-4.787-4.819-4.787-8.383 0-5.381 4.378-9.759 9.76-9.759 5.381 0 9.759 4.378 9.759 9.76zm-300.038 0c0-5.381 4.378-9.759 9.759-9.759s9.76 4.378 9.76 9.759c0 3.581-1.945 6.71-4.828 8.408-.335-2.436-2.403-4.32-4.931-4.32s-4.597 1.883-4.931 4.32c-2.884-1.699-4.829-4.827-4.829-8.408zm3.559 157.815c-.448.197-1.325.408-2.161-.368l-38.825-36.067c-1.03-.957-1.597-2.258-1.597-3.664 0-1.405.567-2.707 1.597-3.663l38.826-36.067c.834-.775 1.711-.563 2.16-.368.448.196 1.201.694 1.201 1.833v76.53c-.001 1.141-.753 1.639-1.201 1.834zm6.2 117.884c-16.66 0-30.213-13.554-30.213-30.213 0-16.66 13.553-30.213 30.213-30.213s30.213 13.553 30.213 30.213c.001 16.66-13.553 30.213-30.213 30.213zm70.426 0c-16.66 0-30.213-13.554-30.213-30.213 0-16.66 13.553-30.213 30.213-30.213s30.213 13.553 30.213 30.213c.001 16.66-13.553 30.213-30.213 30.213zm70.427 0c-16.66 0-30.213-13.554-30.213-30.213 0-16.66 13.553-30.213 30.213-30.213s30.213 13.553 30.213 30.213-13.554 30.213-30.213 30.213zm35.213-49.607c-6.09-11.013-17.195-18.874-30.213-20.497v-62.274h44.949l15.473 14.374v47.9c-13.016 1.624-24.12 9.485-30.209 20.497zm170.088 42.367c-7.869 1.792-15.965.409-22.795-3.889-6.831-4.298-11.578-10.999-13.369-18.868-1.79-7.869-.41-15.964 3.889-22.795 4.298-6.831 10.998-11.578 18.867-13.369 2.248-.512 4.493-.757 6.707-.757 13.786 0 26.272 9.516 29.458 23.513 3.695 16.245-6.513 32.469-22.757 36.165z"/></g></g></g></g></g><g><path d="m139.874 64.837c-1.031 0-2.063-.318-2.939-.955-1.752-1.273-2.486-3.53-1.816-5.59l1.475-4.537-3.859-2.804c-1.752-1.273-2.486-3.53-1.816-5.59s2.589-3.455 4.755-3.455h4.771l1.474-4.537c.669-2.06 2.589-3.455 4.755-3.455 2.166 0 4.086 1.395 4.755 3.455l1.474 4.537h4.77c2.166 0 4.086 1.395 4.755 3.455s-.064 4.317-1.816 5.59l-3.859 2.804 1.475 4.537c.669 2.06-.064 4.317-1.816 5.59s-4.125 1.273-5.878 0l-3.859-2.804-3.86 2.804c-.879.637-1.91.955-2.941.955z" fill="#8399fe"/></g><g><path d="m328.297 471.941c-1.031 0-2.062-.318-2.938-.955l-3.86-2.804-3.86 2.804c-1.752 1.273-4.124 1.273-5.878 0-1.752-1.273-2.485-3.53-1.815-5.59l1.475-4.537-3.859-2.803c-1.753-1.273-2.486-3.53-1.816-5.59.669-2.06 2.589-3.455 4.755-3.455h4.771l1.475-4.537c.669-2.06 2.589-3.455 4.755-3.455s4.086 1.395 4.755 3.455l1.475 4.537h4.771c2.166 0 4.086 1.395 4.755 3.455.67 2.06-.063 4.317-1.816 5.59l-3.859 2.803 1.475 4.537c.67 2.06-.063 4.317-1.815 5.59-.884.637-1.915.955-2.946.955z" fill="#8399fe"/></g><g><path d="m53.474 350.369c-1.031 0-2.062-.318-2.939-.955l-3.859-2.804-3.859 2.804c-1.752 1.273-4.125 1.273-5.878 0-1.752-1.273-2.486-3.53-1.816-5.59l1.474-4.537-3.859-2.804c-1.752-1.273-2.486-3.53-1.816-5.59s2.589-3.455 4.755-3.455h4.771l1.474-4.537c.669-2.06 2.589-3.455 4.755-3.455s4.086 1.395 4.755 3.455l1.474 4.537h4.771c2.166 0 4.086 1.395 4.755 3.455s-.064 4.317-1.816 5.59l-3.859 2.804 1.474 4.537c.669 2.06-.064 4.317-1.816 5.59-.878.636-1.909.955-2.941.955z" fill="#01eca5"/></g><g><path d="m465.963 196.481c-1.279 0-2.56-.488-3.535-1.464l-10.5-10.5c-1.953-1.953-1.953-5.119 0-7.071l10.5-10.5c1.951-1.952 5.119-1.952 7.07 0l10.5 10.5c1.953 1.953 1.953 5.119 0 7.071l-10.5 10.5c-.976.976-2.256 1.464-3.535 1.464zm-3.429-15.5 3.429 3.429 3.429-3.429-3.429-3.429z" fill="#01eca5"/></g><g><path d="m371.219 445.154c-1.279 0-2.56-.488-3.535-1.464l-10.5-10.5c-1.953-1.953-1.953-5.119 0-7.071l10.5-10.5c1.951-1.952 5.119-1.952 7.07 0l10.5 10.5c1.953 1.953 1.953 5.119 0 7.071l-10.5 10.5c-.975.976-2.255 1.464-3.535 1.464zm-3.428-15.5 3.429 3.429 3.429-3.429-3.429-3.429z" fill="#ff7eb8"/></g></g></g></svg>