<svg id="Capa_1" enable-background="new 0 0 512 512" height="512" viewBox="0 0 512 512" width="512" xmlns="http://www.w3.org/2000/svg" xmlns:xlink="http://www.w3.org/1999/xlink"><linearGradient id="SVGID_1_" gradientUnits="userSpaceOnUse" x1="141.121" x2="514.929" y1="486.209" y2="112.402"><stop offset=".0485" stop-color="#ffdbed"/><stop offset=".9993" stop-color="#d2deff"/></linearGradient><g><g><path d="m500.232 408.626c-22.727-30.158-64.915-53.759-64.561-95.661.185-21.915 13.118-41.294 22.546-61.079 31.104-65.266 38.868-163.195-17.178-213.121-22.628-20.158-72.025-27.587-101.049-19.692-75.041 20.413-16.158 70.286-30.04 104.178-45.058 110-292.932 92.458-308.846 174.437-9.376 48.302 40.633 137.822 163.722 81.126 91.981-42.367 187.226 147.747 291.785 112.924 41.212-13.726 73.762-43.115 43.621-83.112z" fill="url(#SVGID_1_)"/></g><g><g><g fill="#2626bc" opacity=".1"><g><path d="m288.209 135.274c2.762 0 5-2.239 5-5 0-1.282 1.043-2.325 2.324-2.325.758 0 1.312.278 1.693.85.417.623.676 1.739.153 3.002-1.309 3.167-7.981 9.478-12.301 12.949-1.654 1.329-2.29 3.557-1.586 5.558s2.595 3.341 4.716 3.341h15.71c2.762 0 5-2.239 5-5s-2.238-5-5-5h-2.968c2.421-2.63 4.615-5.475 5.671-8.028 1.722-4.165 1.316-8.793-1.082-12.381-2.249-3.363-5.896-5.291-10.007-5.291-6.796 0-12.324 5.529-12.324 12.325.001 2.761 2.239 5 5.001 5z"/><path d="m248.411 153.649c2.762 0 5-2.239 5-5v-14.911h13.477v14.911c0 2.761 2.238 5 5 5s5-2.239 5-5v-39.821c0-2.761-2.238-5-5-5s-5 2.239-5 5v14.91h-13.477v-14.91c0-2.761-2.238-5-5-5s-5 2.239-5 5v39.821c0 2.761 2.238 5 5 5z"/><path d="m327.591 153.649h6.126c7.541 0 13.676-6.135 13.676-13.676v-22.469c0-7.541-6.135-13.676-13.676-13.676h-6.126c-7.541 0-13.676 6.135-13.676 13.676v22.469c0 7.541 6.135 13.676 13.676 13.676zm-3.676-36.145c0-2.027 1.649-3.676 3.676-3.676h6.126c2.026 0 3.676 1.649 3.676 3.676v22.469c0 2.027-1.649 3.676-3.676 3.676h-6.126c-2.026 0-3.676-1.649-3.676-3.676z"/></g><path d="m467.666 445.885-57.355-57.355c-5.329-5.329-11.745-9.448-18.81-12.074-6.521-2.425-12.444-6.226-17.363-11.146l-8.228-8.228c10.456-13.384 16.901-28.879 19.307-44.875l4.719-1.265 8.405-31.367 31.367-8.405 8.405-31.367-22.963-22.963 8.405-31.367-22.962-22.962-31.367 8.405-8.405 31.367-30.119 8.07c-.934-.437-1.881-.838-2.825-1.243l-21.385-21.385-31.367 8.405-1.764 6.584c-12.522 2.155-24.696 6.783-35.74 13.899-4.319-8.904-8.902-17.911-13.612-26.853l15.339-15.339h70.689c2.762 0 5-2.239 5-5s-2.238-5-5-5h-72.761c-1.326 0-2.598.527-3.535 1.464l-14.648 14.648c-21.837-40.533-45.353-78.484-57.558-97.695-3.928-6.183-12.944-6.183-16.872 0-26.527 41.753-106.491 172.012-106.491 224.955 0 58.704 44.017 107.123 100.846 114.065v13.781c0 1.591.632 3.117 1.757 4.243l31.167 31.167c1.125 1.125 2.651 1.757 4.243 1.757h44.077c1.591 0 3.117-.632 4.243-1.757l31.167-31.167c1.125-1.125 1.757-2.651 1.757-4.243v-44.077c0-1.151-.335-2.266-.944-3.222 30.663 11.26 65.874 6.439 92.625-14.459l8.228 8.228c4.92 4.92 8.721 10.842 11.146 17.363 2.627 7.065 6.745 13.48 12.074 18.81l57.355 57.355c8.216 8.216 21.536 8.216 29.752 0 8.216-8.216 8.216-21.536.001-29.752z"/></g><g><g><path d="m268.022 283.793c0 63.471-51.454 114.925-114.925 114.925s-114.925-51.453-114.925-114.925c0-52.944 79.963-183.203 106.489-224.955 3.928-6.183 12.944-6.183 16.872 0 26.525 41.753 106.489 172.012 106.489 224.955z" fill="#9fb0fe"/><g><g><path d="m232.17 181.6-84.83 84.82c-.97.98-2.25 1.47-3.53 1.47s-2.56-.49-3.54-1.47c-1.95-1.95-1.95-5.12 0-7.07l87.12-87.12c1.61 3.12 3.21 6.25 4.78 9.37z" fill="#8399fe"/></g></g><path d="m233.853 304.856c0 44.6-36.155 62.755-80.755 62.755s-80.755-18.155-80.755-62.755c0-36.05 54.81-94.085 75.825-115.012 4.413-4.395 11.581-4.259 15.816.307 19.648 21.182 69.869 78.83 69.869 114.705z" fill="#8399fe"/><g><g><path d="m191.54 222.22-44.2 44.2c-.97.98-2.25 1.47-3.53 1.47s-2.56-.49-3.54-1.47c-1.95-1.95-1.95-5.12 0-7.07l44.94-44.94c2.08 2.51 4.19 5.12 6.33 7.81z" fill="#6583fe"/></g></g><path d="m190.648 189.588c0 20.739-16.812 29.181-37.551 29.181s-37.551-8.442-37.551-29.181c0-14.868 19.3-37.779 30.227-49.558 3.955-4.263 10.692-4.263 14.647 0 10.927 11.779 30.228 34.69 30.228 49.558z" fill="#6583fe"/></g><g><g><g><path d="m374.138 341.31-30.338-30.338-16.8 16.8 30.338 30.338c4.92 4.92 8.721 10.842 11.146 17.363 2.627 7.065 6.745 13.48 12.074 18.81l57.355 57.355c8.216 8.216 21.536 8.216 29.752 0 8.216-8.216 8.216-21.536 0-29.752l-57.355-57.355c-5.329-5.329-11.745-9.448-18.81-12.074-6.52-2.426-12.443-6.228-17.362-11.147z" fill="#ffc4df"/><path d="m453.769 407.988-43.458-43.458c-5.329-5.329-11.745-9.448-18.81-12.074-6.521-2.425-12.444-6.226-17.363-11.146l-30.338-30.338-16.8 16.8 30.338 30.338c4.92 4.92 8.721 10.842 11.146 17.363 2.627 7.065 6.745 13.48 12.074 18.81l43.458 43.458z" fill="#ff7eb8"/><path d="m383.853 348.823c-2.666 3.543-5.614 6.944-8.839 10.168-3.224 3.224-6.619 6.166-10.161 8.832-2.079-3.536-4.596-6.802-7.51-9.716l-30.342-30.342 16.794-16.794 30.342 30.342c2.913 2.914 6.18 5.432 9.716 7.51z" fill="#ff5ba8"/><path d="m427.273 411.245c-2.54 2.54-6.659 2.54-9.199 0l-22.567-22.567c-2.54-2.54-2.54-6.659 0-9.199 2.54-2.54 6.659-2.54 9.199 0l22.567 22.567c2.54 2.54 2.54 6.659 0 9.199z" fill="#ffa8cf"/></g><g><circle cx="289.808" cy="273.78" fill="#ff7eb8" r="96.498"/><path d="m377.41 314.3-18.84 5.05-22.96-22.97-31.37 8.41-5.07-5.07 5.07-18.93-17.89-17.89 3.33-12.44 31.37-8.41 17.89 17.9 5.07 5.07 31.37-8.41 10.71 10.71c1.07 15.98-1.82 32.17-8.68 46.98z" fill="#ff5ba8"/><circle cx="289.808" cy="273.78" fill="#b7c5ff" r="73.648"/><path d="m352.19 312.97-16.58-16.59-31.37 8.41-5.07-5.07 5.07-18.93-17.89-17.89 3.33-12.44 31.37-8.41 17.89 17.9 5.07 5.07 18.18-4.87c3.37 17.94.03 36.88-10 52.82z" fill="#9fb0fe"/></g></g><g><g><path d="m220.262 330.395h-44.077c-1.591 0-3.117.632-4.243 1.757l-31.167 31.167c-1.125 1.125-1.757 2.651-1.757 4.243v44.077c0 1.591.632 3.117 1.757 4.243l31.167 31.167c1.125 1.125 2.651 1.757 4.243 1.757h44.077c1.591 0 3.117-.632 4.243-1.757l31.167-31.167c1.125-1.125 1.757-2.651 1.757-4.243v-44.077c0-1.591-.632-3.117-1.757-4.243l-31.167-31.167c-1.126-1.125-2.652-1.757-4.243-1.757z" fill="#97ffd2"/></g><g><circle cx="198.223" cy="389.601" fill="#01eca5" r="45.126"/><g fill="#fff"><path d="m193.685 366.749c-.751-1.914-2.598-3.173-4.654-3.173h-.152c-2.056 0-3.903 1.259-4.654 3.173l-14.937 38.05c-1.009 2.57.257 5.472 2.827 6.481 2.569 1.007 5.472-.257 6.481-2.827l3.022-7.699h14.673l3.022 7.699c.773 1.97 2.66 3.174 4.656 3.174.607 0 1.226-.112 1.826-.347 2.57-1.009 3.836-3.911 2.827-6.481zm-8.141 24.005 3.411-8.689 3.411 8.689z"/><path d="m222.505 370.434h-1.859v-1.858c0-2.761-2.239-5-5-5s-5 2.239-5 5v1.858h-1.858c-2.761 0-5 2.239-5 5s2.239 5 5 5h1.858v1.859c0 2.761 2.239 5 5 5s5-2.239 5-5v-1.859h1.859c2.761 0 5-2.239 5-5s-2.239-5-5-5z"/></g></g></g><g><path d="m423.555 161.473-22.963-22.963-31.367 8.405-8.405 31.368 22.963 22.962 31.367-8.405z" fill="#6583fe"/><path d="m383.783 201.245-22.963-22.962-31.367 8.404-8.405 31.368 22.963 22.962 31.367-8.405z" fill="#b7c5ff"/><path d="m329.453 186.687-22.962-22.962-31.368 8.405-8.404 31.367 22.962 22.962 31.367-8.404z" fill="#9fb0fe"/><path d="m438.112 215.803-22.962-22.963-31.367 8.405-8.405 31.367 22.962 22.963 31.368-8.405z" fill="#9fb0fe"/><path d="m398.34 255.575-22.962-22.963-31.367 8.405-8.405 31.367 22.962 22.963 31.368-8.405z" fill="#6583fe"/><path d="m344.011 241.017-22.963-22.962-31.367 8.404-8.405 31.368 22.963 22.962 31.367-8.405z" fill="#8399fe"/></g></g><g><circle cx="120.807" cy="256.022" fill="#b7c5ff" r="5"/></g><g><circle cx="153.097" cy="192.935" fill="#b7c5ff" r="5"/></g><g><circle cx="168.94" cy="177.282" fill="#9fb0fe" r="5"/></g><g><circle cx="130.807" cy="277.123" fill="#9fb0fe" r="5"/></g><g><circle cx="93.438" cy="288.973" fill="#d2deff" r="5"/></g><g><circle cx="155.613" cy="310.103" fill="#6583fe" r="5"/></g><g fill="#2626bc"><path d="m471.206 418.355-37.8-37.81c-1.953-1.953-5.118-1.954-7.071-.001s-1.953 5.118-.001 7.071l37.801 37.811c3.027 3.028 4.695 7.053 4.695 11.334 0 4.288-1.668 8.317-4.693 11.343-6.257 6.25-16.438 6.249-22.69.002l-57.351-57.36c-4.859-4.859-8.536-10.585-10.928-17.015-2.689-7.244-6.825-13.688-12.293-19.156l-4.335-4.335c1.723-1.502 3.405-3.064 5.035-4.694 1.631-1.631 3.186-3.317 4.692-5.037l4.338 4.337c2.699 2.7 5.698 5.116 8.912 7.181 3.185 2.046 6.627 3.768 10.241 5.121 6.068 2.255 11.537 5.688 16.254 10.205.969.927 2.214 1.388 3.457 1.388 1.316 0 2.631-.517 3.612-1.542 1.91-1.995 1.841-5.16-.153-7.07-5.708-5.465-12.332-9.622-19.676-12.352-2.938-1.1-5.741-2.5-8.33-4.164-2.613-1.679-5.052-3.644-7.246-5.839l-5.153-5.154c8.591-12.021 14.405-25.722 17.097-40.418l1.61-.432c1.726-.462 3.073-1.81 3.536-3.536l7.658-28.579 28.578-7.654c1.726-.462 3.073-1.81 3.536-3.536l8.404-31.367c.462-1.725-.031-3.566-1.295-4.83l-20.92-20.921 7.657-28.579c.462-1.726-.031-3.566-1.295-4.83l-22.962-22.962c-1.263-1.263-3.104-1.756-4.829-1.294l-31.367 8.405c-1.726.462-3.073 1.81-3.536 3.536l-7.658 28.579-25.79 6.91-20.922-20.921c-1.263-1.264-3.104-1.756-4.829-1.294l-31.367 8.405c-1.726.462-3.073 1.81-3.536 3.536l-.944 3.525c-10.496 2.15-20.474 5.897-29.656 11.119-3.85-7.8-7.869-15.64-11.981-23.425l11.635-11.635h70.689c2.762 0 5-2.239 5-5s-2.238-5-5-5h-72.761c-1.326 0-2.598.527-3.535 1.464l-10.952 10.952c-21.109-39.089-43.687-75.672-57.033-96.68-2.768-4.355-7.498-6.956-12.655-6.956-.001 0-.001 0-.001 0-5.157 0-9.889 2.601-12.657 6.956-32.254 50.767-107.269 174.576-107.269 227.636 0 24.512 7.347 48.084 21.246 68.167 13.575 19.616 32.431 34.611 54.526 43.365.604.239 1.228.353 1.841.353 1.99 0 3.872-1.197 4.649-3.16 1.018-2.567-.239-5.473-2.807-6.49-42.193-16.716-69.456-56.846-69.456-102.235 0-51.852 80.91-183.24 105.708-222.274.937-1.474 2.474-2.319 4.217-2.319s3.279.845 4.215 2.318c13.569 21.357 36.734 58.906 58.092 98.7l-75.132 75.133c-1.953 1.953-1.953 5.119 0 7.071.976.976 2.256 1.464 3.535 1.464s2.56-.488 3.535-1.464l72.965-72.965c3.743 7.137 7.401 14.309 10.909 21.441-4.66 3.305-9.074 7.008-13.181 11.115-17.189 17.188-27.646 39.99-29.442 64.203-1.542 20.771 3.342 41.448 13.819 59.178h-26.228c-2.938 0-5.701 1.145-7.777 3.222l-31.167 31.167c-2.078 2.078-3.223 4.84-3.223 7.778v44.077c0 2.938 1.145 5.7 3.223 7.778l31.166 31.166c2.077 2.078 4.84 3.223 7.778 3.223h44.077c2.938 0 5.7-1.144 7.778-3.222l31.167-31.167c2.078-2.078 3.222-4.84 3.222-7.778v-40.127c8.947 2.495 18.095 3.732 27.195 3.732 20.987 0 41.698-6.492 59.006-18.774l5.175 5.175c4.442 4.443 7.803 9.68 9.989 15.568 2.897 7.789 7.349 14.72 13.229 20.602l57.354 57.363c5.076 5.071 11.744 7.606 18.412 7.605 6.669 0 13.339-2.536 18.416-7.607 4.917-4.917 7.625-11.457 7.625-18.416.001-6.952-2.707-13.488-7.623-18.404zm-85.352-135.496-1.826.489c-.028.007-.055.015-.083.022l-23.882 6.399-18.877-18.877 6.909-25.794 25.79-6.91 18.88 18.88zm-80.12-7.646-18.878-18.877 6.906-25.793 25.788-6.914 18.883 18.883-6.906 25.787zm53.592-91.354 18.88 18.88-6.91 25.791-25.791 6.911-18.88-18.88 6.91-25.791zm66.299 59.228-25.79 6.911-18.88-18.88 6.911-25.791 25.79-6.91 18.879 18.88zm-52.317-92.089 25.791-6.911 18.879 18.88-6.91 25.791-25.79 6.91-18.88-18.88zm-68.312 18.304 18.88 18.88-6.91 25.787-25.792 6.915-18.879-18.88 6.91-25.791zm-52.567 242.337c0 .264-.106.521-.292.707l-31.167 31.167c-.189.189-.44.293-.708.293h-44.077c-.263 0-.521-.106-.707-.293l-31.167-31.167c-.187-.187-.293-.444-.293-.707v-44.077c0-.263.106-.521.293-.707l31.168-31.168c.186-.186.443-.292.706-.292h44.077c.268 0 .519.104.708.293l31.167 31.167c.186.186.292.443.292.707zm6.778-51.855-31.167-31.167c-2.078-2.077-4.841-3.221-7.778-3.221h-5.988c-24.965-36.361-20.594-84.885 10.831-116.31 11.549-11.549 25.708-19.665 41.308-23.771l-4.525 16.888c-.462 1.725.031 3.566 1.295 4.83l20.92 20.92-6.905 25.79-21.063 5.644c-2.667.715-4.25 3.456-3.536 6.124.599 2.234 2.619 3.708 4.827 3.708.428 0 .863-.056 1.297-.172l21.06-5.643 18.881 18.881-4.731 17.654c-.72 2.666.858 5.411 3.524 6.13.437.118.875.174 1.306.174 2.204 0 4.223-1.469 4.824-3.699l4.736-17.671 25.786-6.913 20.924 20.923c.949.95 2.227 1.464 3.535 1.464.432 0 .866-.056 1.294-.17l18.936-5.074c-3.9 16.406-12.202 31.28-24.295 43.373-24.793 24.801-62.246 32.875-95.296 21.308z"/><path d="m288.209 111.274c2.762 0 5-2.239 5-5 0-1.282 1.043-2.325 2.324-2.325.758 0 1.312.278 1.693.85.417.623.676 1.739.153 3.002-1.309 3.167-7.981 9.478-12.301 12.949-1.654 1.329-2.29 3.557-1.586 5.558s2.595 3.341 4.716 3.341h15.71c2.762 0 5-2.239 5-5s-2.238-5-5-5h-2.968c2.421-2.63 4.615-5.475 5.671-8.028 1.722-4.165 1.316-8.793-1.082-12.381-2.249-3.363-5.896-5.291-10.007-5.291-6.796 0-12.324 5.529-12.324 12.325.001 2.761 2.239 5 5.001 5z"/><path d="m248.411 129.649c2.762 0 5-2.239 5-5v-14.911h13.477v14.911c0 2.761 2.238 5 5 5s5-2.239 5-5v-39.821c0-2.761-2.238-5-5-5s-5 2.239-5 5v14.91h-13.477v-14.91c0-2.761-2.238-5-5-5s-5 2.239-5 5v39.821c0 2.761 2.238 5 5 5z"/><path d="m327.591 129.649h6.126c7.541 0 13.676-6.135 13.676-13.676v-22.469c0-7.541-6.135-13.676-13.676-13.676h-6.126c-7.541 0-13.676 6.135-13.676 13.676v22.469c0 7.541 6.135 13.676 13.676 13.676zm-3.676-36.145c0-2.027 1.649-3.676 3.676-3.676h6.126c2.026 0 3.676 1.649 3.676 3.676v22.469c0 2.027-1.649 3.676-3.676 3.676h-6.126c-2.026 0-3.676-1.649-3.676-3.676z"/></g></g></g><g><g><path d="m440.801 342.748c-1.031 0-2.062-.318-2.939-.955l-3.858-2.804-3.86 2.804c-1.752 1.273-4.125 1.273-5.877 0-1.753-1.273-2.486-3.53-1.816-5.59l1.474-4.538-3.859-2.804c-1.752-1.273-2.485-3.53-1.815-5.59.669-2.06 2.589-3.455 4.755-3.455h4.771l1.475-4.537c.669-2.06 2.589-3.455 4.755-3.455 2.166 0 4.086 1.395 4.755 3.455l1.475 4.537h4.771c2.166 0 4.086 1.395 4.755 3.455.67 2.06-.063 4.317-1.816 5.59l-3.859 2.805 1.474 4.537c.67 2.06-.063 4.317-1.816 5.59-.883.636-1.914.955-2.945.955z" fill="#ff7eb8"/></g><g><path d="m84.927 443.751c-1.279 0-2.56-.488-3.535-1.464l-10.5-10.5c-1.953-1.953-1.953-5.119 0-7.071l10.5-10.5c1.951-1.952 5.119-1.952 7.07 0l10.5 10.5c1.953 1.953 1.953 5.119 0 7.071l-10.5 10.5c-.976.976-2.256 1.464-3.535 1.464zm-3.429-15.5 3.429 3.429 3.429-3.429-3.429-3.429z" fill="#01eca5"/></g></g><g><path d="m269.353 69.701c-1.279 0-2.56-.488-3.535-1.464l-10.5-10.5c-1.953-1.953-1.953-5.119 0-7.071l10.5-10.5c1.951-1.952 5.119-1.952 7.07 0l10.5 10.5c1.953 1.953 1.953 5.119 0 7.071l-10.5 10.5c-.976.975-2.256 1.464-3.535 1.464zm-3.429-15.5 3.429 3.429 3.429-3.429-3.429-3.429z" fill="#01eca5"/></g><g><path d="m314.405 440.741c-1.279 0-2.56-.488-3.535-1.464l-10.5-10.5c-1.953-1.953-1.953-5.119 0-7.071l10.5-10.5c1.951-1.952 5.119-1.952 7.07 0l10.5 10.5c1.953 1.953 1.953 5.119 0 7.071l-10.5 10.5c-.975.975-2.255 1.464-3.535 1.464zm-3.428-15.5 3.429 3.429 3.429-3.429-3.429-3.429z" fill="#8399fe"/></g><g><path d="m85.236 110.462c-1.031 0-2.062-.318-2.939-.955l-3.858-2.804-3.86 2.804c-1.752 1.273-4.125 1.273-5.877 0-1.753-1.273-2.486-3.53-1.816-5.59l1.474-4.538-3.859-2.804c-1.752-1.273-2.485-3.53-1.815-5.59.669-2.06 2.589-3.455 4.755-3.455h4.771l1.475-4.537c.669-2.06 2.589-3.455 4.755-3.455s4.086 1.395 4.755 3.455l1.475 4.537h4.771c2.166 0 4.086 1.395 4.755 3.455.67 2.06-.063 4.317-1.816 5.59l-3.859 2.805 1.474 4.537c.67 2.06-.063 4.317-1.816 5.59-.882.637-1.913.955-2.945.955z" fill="#8399fe"/></g></g></g></svg>