<svg id="Capa_1" enable-background="new 0 0 512 512" height="512" viewBox="0 0 512 512" width="512" xmlns="http://www.w3.org/2000/svg" xmlns:xlink="http://www.w3.org/1999/xlink"><linearGradient id="SVGID_1_" gradientUnits="userSpaceOnUse" x1="50.007" x2="413.113" y1="417.365" y2="54.259"><stop offset=".0485" stop-color="#ffdbed"/><stop offset=".9993" stop-color="#d2deff"/></linearGradient><g><g><path d="m392.943 156.857c-29.407-49.49 2.869-55.228 2.869-98.98 0-73.942-128.277-60.659-170.765-47.965-57.215 17.094-162.975 114.845-163.037 174.558-.108 103.643 100.697 95.753 93.321 221.249-2.779 47.279-43.899 67.254-22.747 93.92 37.247 46.958 169.987-46.56 164.966-167.774-1.889-45.599 98.98 27.973 142.014-43.035 31.225-51.521-15.228-79.14-46.621-131.973z" fill="url(#SVGID_1_)"/></g><g><g><path d="m421.68 350.609c32.342-58.052 30.917-124.589 30.651-131.942.003-.225.017-.448.017-.673 0-53.568-87.926-96.993-196.388-96.993s-196.388 43.425-196.388 96.993h-.045s-6.565 221.005 198.804 221.005c28.198 0 52.302-4.174 72.917-11.363l30.136 30.136c1.125 1.125 2.651 1.757 4.243 1.757h44.077c1.591 0 3.117-.632 4.243-1.757l31.167-31.167c1.125-1.125 1.757-2.651 1.757-4.243v-44.077c0-1.591-.632-3.117-1.757-4.243z" fill="#2626bc" opacity=".1"/><g><g><path d="m59.528 193.994s-6.565 221.005 198.804 221.005 193.971-221.005 193.971-221.005z" fill="#02ffb3"/><g fill="#01eca5"><path d="m188.122 286.571c-9.012 24.761-33.5 38.58-54.696 30.865-21.195-7.715-31.072-34.041-22.06-58.802s26.66-19.786 47.855-12.071 37.913 15.248 28.901 40.008z"/><path d="m400.555 258.635c9.012 24.761-.864 51.087-22.06 58.802-21.195 7.715-45.684-6.104-54.696-30.865s7.705-32.294 28.9-40.008c21.196-7.715 38.844-12.69 47.856 12.071z"/></g><path d="m364.911 387.56c-26.64 16.72-61.35 27.44-106.58 27.44-46.94 0-82.81-11.55-110.21-29.37 22.67-38.81 62.5-68.91 107.84-68.91 46.09 0 86.49 31.1 108.95 70.84z" fill="#97ffd2"/></g><g><ellipse cx="255.961" cy="193.994" fill="#9fb0fe" rx="196.388" ry="96.993"/><path d="m317.934 147.949c0 22.428-27.746 34.609-61.973 34.609s-61.973-12.181-61.973-34.609 27.746-46.609 61.973-46.609 61.973 24.182 61.973 46.609z" fill="#8399fe"/></g></g><g><path d="m317.934 123.949c0 22.428-27.746 34.609-61.973 34.609s-61.973-12.181-61.973-34.609 27.746-46.609 61.973-46.609 61.973 24.182 61.973 46.609z" fill="#ff7eb8"/><circle cx="255.922" cy="114.698" fill="#ff5ba8" r="20.037"/></g><ellipse cx="275.959" cy="124.92" fill="#ffc4df" rx="15.722" ry="13.14"/><path d="m365.739 212.624c-1.438-2.358-4.514-3.104-6.872-1.667-2.976 1.814-7.389 4.248-13.267 6.861l-9.487-10.026c15.934-6.43 23.638-12.866 26.825-16.169 1.917-1.987 1.86-5.153-.127-7.07-1.988-1.917-5.152-1.859-7.07.127-2.165 2.244-8.864 8.121-24.271 14.207-12.125 4.789-31.413 10.344-58.174 12.045l-1.177-12.92c12.302-.76 23.944-2.42 34.732-4.999 2.687-.642 4.343-3.339 3.701-6.025-.643-2.686-3.34-4.344-6.025-3.7-14.473 3.459-30.6 5.214-47.931 5.214-9.8 0-19.318-.569-28.291-1.691-2.743-.339-5.239 1.601-5.581 4.341-.343 2.74 1.601 5.239 4.341 5.582 9.383 1.173 19.318 1.768 29.531 1.768 1.855 0 3.69-.032 5.519-.071l1.179 12.942c-2.189.054-4.421.083-6.699.083-17.039 0-33.212-1.577-48.069-4.688-2.701-.563-5.353 1.167-5.918 3.869-.566 2.703 1.166 5.353 3.869 5.919 6.254 1.31 12.734 2.346 19.39 3.133l-2.284 12.786c-30.702-3.724-51.225-12.007-62.007-17.487-2.461-1.25-5.472-.269-6.723 2.192-1.252 2.462-.271 5.472 2.191 6.723 26.021 13.225 61.375 20.508 99.551 20.508 42.331 0 81.504-9.082 107.477-24.916 2.359-1.437 3.105-4.514 1.667-6.871zm-66.284 18.465-2.881-12.67c11.62-1.854 21.371-4.355 29.287-6.913l9.769 10.324c-9.523 3.468-21.536 6.87-36.175 9.259zm-65.894 2.395 2.29-12.821c6.76.521 13.68.794 20.745.794 10.978 0 20.98-.633 30.031-1.677l2.89 12.708c-9.927 1.199-20.882 1.922-32.921 1.922-8.176.001-15.845-.337-23.035-.926z" fill="#4369fd"/><g><g><path d="m162.976 151.764c8.464 12.136-5.974 25.048-25.428 38.616s-36.56 22.654-45.024 10.518.446-32.973 19.901-46.541 42.088-14.729 50.551-2.593z" fill="#02ffb3"/></g><g><path d="m118.081 204.41c-1.314-.107-2.584-.731-3.479-1.836l-10.992-13.569c-1.738-2.146-1.408-5.294.738-7.033 2.147-1.739 5.295-1.407 7.033.738l10.992 13.569c1.738 2.146 1.408 5.294-.738 7.033-1.042.842-2.318 1.199-3.554 1.098z" fill="#dcfdee"/></g><g><path d="m152.88 178.601c-1.314-.107-2.584-.731-3.479-1.836l-10.992-13.569c-1.738-2.146-1.408-5.295.738-7.033 2.148-1.739 5.294-1.407 7.033.738l10.992 13.569c1.738 2.146 1.408 5.295-.738 7.033-1.042.843-2.318 1.199-3.554 1.098z" fill="#dcfdee"/></g><g><path d="m124.247 176.373c-1.291-.105-2.541-.709-3.435-1.783l-11.52-13.831c-1.768-2.122-1.48-5.275.641-7.042s5.275-1.481 7.041.642l11.52 13.831c1.768 2.122 1.48 5.275-.641 7.042-1.047.872-2.346 1.244-3.606 1.141z" fill="#dcfdee"/></g></g><g><ellipse cx="401.533" cy="189.42" fill="#97ffd2" rx="19.812" ry="17.093"/><g><circle cx="405.763" cy="189.946" fill="#fff" r="8.096"/></g></g><circle cx="385.586" cy="225.089" fill="#8399fe" r="5"/><circle cx="375.586" cy="241.268" fill="#b7c5ff" r="5"/><circle cx="141.313" cy="228.411" fill="#b7c5ff" r="5"/><circle cx="146.313" cy="251.268" fill="#d2deff" r="5"/><circle cx="340.63" cy="151.389" fill="#b7c5ff" r="5"/><circle cx="373.506" cy="158.558" fill="#d2deff" r="5"/><circle cx="184.815" cy="198.45" fill="#6583fe" r="5"/><circle cx="165.889" cy="129.92" fill="#6583fe" r="5"/><g><path d="m255.961 272.97c-6.419 0-12.163-2.62-17.719-5.153-4.231-1.93-8.229-3.752-11.862-4.052-3.965-.324-8.386.848-13.062 2.092-5.745 1.529-11.686 3.111-17.672 2.076-6.52-1.126-12.047-4.976-16.923-8.372-3.721-2.591-7.235-5.039-10.616-5.984-2.659-.743-4.213-3.501-3.47-6.161.743-2.659 3.5-4.214 6.161-3.47 5.014 1.401 9.398 4.455 13.64 7.409 4.412 3.073 8.58 5.976 12.909 6.723 3.833.663 8.479-.576 13.4-1.885 5.292-1.408 10.761-2.865 16.454-2.394 5.373.442 10.364 2.718 15.19 4.919 4.794 2.186 9.323 4.251 13.569 4.251s8.774-2.065 13.569-4.251c4.825-2.201 9.815-4.477 15.189-4.919 5.688-.474 11.162.986 16.453 2.394 4.925 1.31 9.574 2.546 13.403 1.885 4.329-.747 8.496-3.65 12.908-6.723 4.241-2.954 8.626-6.008 13.64-7.409 2.661-.747 5.418.81 6.161 3.47.743 2.659-.811 5.418-3.47 6.161-3.381.945-6.896 3.393-10.615 5.984-4.877 3.396-10.403 7.246-16.923 8.372-5.983 1.034-11.926-.547-17.675-2.076-4.677-1.244-9.095-2.416-13.062-2.092-3.633.3-7.63 2.122-11.86 4.052-5.554 2.534-11.298 5.153-17.717 5.153z" fill="#ff7eb8"/></g><g><g><path d="m409.705 317.119h-44.077c-1.591 0-3.117.632-4.243 1.757l-31.167 31.167c-1.125 1.125-1.757 2.651-1.757 4.243v44.077c0 1.591.632 3.117 1.757 4.243l31.167 31.167c1.125 1.125 2.651 1.757 4.243 1.757h44.077c1.591 0 3.117-.632 4.243-1.757l31.167-31.167c1.125-1.125 1.757-2.651 1.757-4.243v-44.077c0-1.591-.632-3.117-1.757-4.243l-31.167-31.167c-1.125-1.125-2.651-1.757-4.243-1.757z" fill="#ffa8cf"/></g><g><circle cx="387.667" cy="376.325" fill="#ff5ba8" r="45.126"/><path d="m310.888 95.827c-11.878-13.39-31.601-23.487-54.927-23.487-38.331 0-66.973 27.247-66.973 51.609 0 12.613 7.206 23.038 20.839 30.148 11.868 6.189 27.821 9.461 46.134 9.461s34.266-3.271 46.134-9.461c13.633-7.11 20.839-17.535 20.839-30.148 0-5.581-1.519-11.31-4.297-16.831 76.001 12.804 128.357 48.083 128.674 86.876-.4 23.632-19.768 46.85-54.696 64.102-36.418 17.986-84.949 27.892-136.653 27.892s-100.235-9.905-136.653-27.892c-35.296-17.433-54.734-40.197-54.734-64.102 0-35.607 43.829-68.4 111.659-83.546 2.695-.602 4.392-3.274 3.79-5.97s-3.274-4.393-5.97-3.79c-34.655 7.738-64.136 20.203-85.252 36.047-22.193 16.652-34.01 36.25-34.218 56.709-.031 1.076-.753 27.154 6.454 61.281 6.675 31.606 21.686 76.55 55.295 111.172 34.849 35.899 82.625 54.102 142 54.102 15.871 0 31.084-1.321 45.216-3.926 2.716-.5 4.512-3.108 4.011-5.823-.501-2.716-3.112-4.512-5.823-4.011-13.536 2.495-28.139 3.76-43.403 3.76-56.542 0-101.888-17.165-134.778-51.019-31.904-32.839-46.253-75.79-52.672-106.038-1.775-8.366-3.058-16.247-3.986-23.362 10.141 14.03 26.356 26.799 47.984 37.481 37.768 18.653 87.871 28.926 141.081 28.926s103.313-10.272 141.081-28.926c22.185-10.957 38.673-24.109 48.754-38.567-2.567 24.309-9.093 58.119-25.349 89.809l-2.965-2.965c-2.078-2.077-4.841-3.22-7.777-3.22h-44.077c-2.938 0-5.7 1.144-7.777 3.222l-31.168 31.168c-2.077 2.078-3.222 4.84-3.222 7.777v44.077c0 2.937 1.145 5.699 3.223 7.778l31.167 31.167c2.077 2.078 4.84 3.222 7.777 3.222h44.077c2.937 0 5.699-1.144 7.778-3.222l31.168-31.168c2.077-2.078 3.221-4.84 3.221-7.777v-44.077c0-2.938-1.144-5.7-3.222-7.778l-20.793-20.794c31.099-58.304 29.817-123.189 29.492-131.72 0-23.24-14.69-45.026-42.483-63.005-26.057-16.853-63.192-29.348-103.98-35.161zm-54.927 57.731c-28.358 0-56.973-9.155-56.973-29.609 0-19.242 24.887-41.609 56.973-41.609s56.973 22.367 56.973 41.609c0 20.454-28.615 29.609-56.973 29.609zm185.911 244.805c0 .268-.104.519-.292.707l-31.166 31.166c-.189.19-.441.294-.709.294h-44.077c-.263 0-.521-.107-.707-.293l-31.166-31.166c-.189-.19-.294-.441-.294-.708v-44.077c0-.267.104-.518.293-.707l31.167-31.167c.187-.186.444-.293.707-.293h44.077c.268 0 .52.104.708.293l31.166 31.166c.188.189.293.44.293.708z" fill="#2626bc"/><g fill="#fff"><path d="m383.129 353.473c-.751-1.914-2.598-3.173-4.654-3.173h-.152c-2.056 0-3.903 1.259-4.654 3.173l-14.937 38.05c-1.009 2.57.257 5.472 2.827 6.481 2.569 1.007 5.472-.257 6.481-2.827l3.022-7.699h14.673l3.022 7.699c.773 1.97 2.66 3.174 4.656 3.174.607 0 1.226-.112 1.826-.347 2.57-1.009 3.836-3.911 2.827-6.481zm-8.142 24.005 3.411-8.689 3.411 8.689z"/><path d="m411.949 357.158h-1.859v-1.858c0-2.761-2.239-5-5-5s-5 2.239-5 5v1.858h-1.858c-2.761 0-5 2.239-5 5s2.239 5 5 5h1.858v1.859c0 2.761 2.239 5 5 5s5-2.239 5-5v-1.859h1.859c2.761 0 5-2.239 5-5s-2.239-5-5-5z"/></g></g></g></g><g><g><path d="m355.044 80.201c-1.279 0-2.56-.488-3.535-1.464l-10.5-10.5c-1.953-1.953-1.953-5.119 0-7.071l10.5-10.5c1.951-1.952 5.119-1.952 7.07 0l10.5 10.5c1.953 1.953 1.953 5.119 0 7.071l-10.5 10.5c-.975.975-2.256 1.464-3.535 1.464zm-3.429-15.5 3.429 3.429 3.429-3.429-3.429-3.429z" fill="#8399fe"/></g></g><g><g><path d="m98.565 413.851c-1.279 0-2.56-.488-3.535-1.464l-10.5-10.5c-1.953-1.953-1.953-5.119 0-7.071l10.5-10.5c1.951-1.952 5.119-1.952 7.07 0l10.5 10.5c1.953 1.953 1.953 5.119 0 7.071l-10.5 10.5c-.975.976-2.255 1.464-3.535 1.464zm-3.428-15.5 3.429 3.429 3.429-3.429-3.429-3.429z" fill="#ff7eb8"/></g></g><g><g><path d="m102.494 82.34c-1.279 0-2.56-.488-3.535-1.464l-10.5-10.5c-1.953-1.953-1.953-5.119 0-7.071l10.5-10.5c1.951-1.952 5.119-1.952 7.07 0l10.5 10.5c1.953 1.953 1.953 5.119 0 7.071l-10.5 10.5c-.975.976-2.256 1.464-3.535 1.464zm-3.429-15.5 3.429 3.429 3.429-3.429-3.429-3.429z" fill="#01eca5"/></g></g><g><path d="m427.188 110.124c-1.031 0-2.062-.318-2.938-.955l-3.86-2.804-3.86 2.804c-1.752 1.273-4.124 1.273-5.878 0-1.752-1.273-2.485-3.53-1.815-5.59l1.475-4.537-3.859-2.804c-1.753-1.273-2.486-3.53-1.816-5.59.669-2.06 2.589-3.455 4.755-3.455h4.771l1.475-4.537c.669-2.06 2.589-3.455 4.755-3.455s4.086 1.395 4.755 3.455l1.475 4.537h4.771c2.166 0 4.086 1.395 4.755 3.455.67 2.06-.063 4.317-1.816 5.59l-3.859 2.804 1.475 4.537c.67 2.06-.063 4.317-1.815 5.59-.883.636-1.914.955-2.946.955z" fill="#ff7eb8"/></g><g><path d="m252.76 474.992c-1.031 0-2.062-.318-2.938-.955l-3.86-2.804-3.86 2.804c-1.752 1.272-4.124 1.273-5.878 0-1.752-1.273-2.485-3.53-1.815-5.59l1.475-4.537-3.859-2.804c-1.753-1.273-2.486-3.53-1.816-5.59.669-2.06 2.589-3.455 4.755-3.455h4.771l1.475-4.537c.669-2.06 2.589-3.455 4.755-3.455s4.086 1.395 4.755 3.455l1.475 4.537h4.771c2.166 0 4.086 1.395 4.755 3.455.67 2.06-.063 4.317-1.816 5.59l-3.859 2.804 1.475 4.537c.67 2.06-.063 4.317-1.815 5.59-.883.636-1.915.955-2.946.955z" fill="#8399fe"/></g></g></g></svg>