<svg id="Capa_1" enable-background="new 0 0 512 512" height="512" viewBox="0 0 512 512" width="512" xmlns="http://www.w3.org/2000/svg" xmlns:xlink="http://www.w3.org/1999/xlink"><linearGradient id="SVGID_1_" gradientUnits="userSpaceOnUse" x1="121.911" x2="457.155" y1="412.399" y2="77.156"><stop offset=".0485" stop-color="#ffdbed"/><stop offset=".9993" stop-color="#d2deff"/></linearGradient><g><g><path d="m499.921 416.962c-23.422-54.774-46.584-75.804-124.145-135.196-52.998-40.584-29.401-92.717-9.407-112.711 58.876-58.876 83.995-82.063 59.47-119.965-78.45-121.24-254.135 97.438-328.768-5.2-57.441-64.938-97.085 38.643-97.071 162.753.024 217.123 255.412 209.575 411.996 278.505 70.247 30.924 125.319 19.262 87.925-68.186z" fill="url(#SVGID_1_)"/></g><g><g><g fill="#2626bc" opacity=".1"><path d="m416.36 243.43h-5.917c-13.783-58.218-59.719-104.135-117.948-117.891v-12.848c0-9.448-7.659-17.107-17.107-17.107h-186.274c-9.448 0-17.107 7.659-17.107 17.107v186.274c0 9.448 7.659 17.107 17.107 17.107h12.322c13.126 56.26 56.262 101.114 111.544 116.702v14.036c0 9.45 7.66 17.11 17.11 17.11h186.27c9.45 0 17.11-7.66 17.11-17.11v-186.27c0-9.45-7.66-17.11-17.11-17.11zm-203.38 151.227c-35.261-13.274-62.834-42.365-74.02-78.585h74.02zm79.515-151.227v-80.341c38.202 11.951 68.417 42.149 80.391 80.341z"/><path d="m388.933 128.548 36.826 23.754c3.327 2.146 7.71-.242 7.71-4.202v-47.509c0-3.959-4.383-6.348-7.71-4.202l-36.826 23.754c-3.053 1.971-3.053 6.436 0 8.405z"/><path d="m116.544 430.954-36.827-23.754c-3.327-2.146-7.71.242-7.71 4.202v47.509c0 3.959 4.383 6.348 7.71 4.202l36.826-23.754c3.053-1.97 3.053-6.435.001-8.405z"/></g><g><g><path d="m256 414.703c-87.509 0-158.703-71.194-158.703-158.703s71.194-158.703 158.703-158.703 158.703 71.194 158.703 158.703-71.194 158.703-158.703 158.703zm0-281.167c-67.527 0-122.464 54.937-122.464 122.464s54.937 122.464 122.464 122.464 122.464-54.937 122.464-122.464-54.937-122.464-122.464-122.464z" fill="#01eca5"/></g><path d="m139.488 218.289h-37.649c-2.959 12.093-4.539 24.72-4.539 37.711 0 21.25 4.2 41.54 11.81 60.07h40.2c-10.04-17.76-15.77-38.26-15.77-60.07 0-13.154 2.093-25.826 5.948-37.711z" fill="#00d890"/><g><path d="m433.47 236.54v186.27c0 9.45-7.66 17.11-17.11 17.11h-186.27c-9.45 0-17.11-7.66-17.11-17.11v-186.27c0-9.45 7.66-17.11 17.11-17.11h186.27c9.45 0 17.11 7.66 17.11 17.11z" fill="#ff7eb8"/><g fill="#ffa8cf"><circle cx="241.609" cy="250.129" r="10.071"/><circle cx="404.841" cy="250.129" r="10.071"/></g><path d="m292.49 219.43v79.53c0 9.45-7.65 17.11-17.1 17.11h-62.41v-79.53c0-9.45 7.66-17.11 17.11-17.11z" fill="#ff5ba8"/><circle cx="326.163" cy="325.825" fill="#ffa8cf" r="73.749"/><path d="m292.49 260.2v38.76c0 9.45-7.65 17.11-17.1 17.11h-22.34c3.22-24.41 18.39-45.05 39.44-55.87z" fill="#ff7eb8"/><path d="m387.118 382.702c-18.806-8.593-33.32-18.802-44.524-29.28 7.751-9.789 13.373-19.285 17.413-27.621 6.947-14.332 10.235-27.096 11.793-35.803h10.286c6.687 0 12.107-5.421 12.107-12.107 0-6.687-5.421-12.107-12.107-12.107h-47.49v-7.851c0-6.687-5.421-12.107-12.107-12.107-6.687 0-12.107 5.421-12.107 12.107v7.851h-40.142c-6.687 0-12.107 5.421-12.107 12.107 0 6.687 5.421 12.107 12.107 12.107h76.861c-1.547 6.894-4.347 16.121-9.409 26.312-3.281 6.605-7.132 12.862-11.496 18.794-5.664-7.636-9.832-14.992-12.878-21.524-2.826-6.06-10.031-8.68-16.09-5.856-6.06 2.826-8.682 10.029-5.856 16.09 4.17 8.942 10.085 19.178 18.415 29.691-12.296 11.475-27.174 21.244-44.58 29.198-6.081 2.779-8.759 9.963-5.98 16.045 2.034 4.451 6.426 7.078 11.02 7.078 1.682 0 3.393-.353 5.024-1.098 21.382-9.77 37.993-21.47 50.889-33.508 12.923 12.064 29.532 23.747 50.892 33.508 1.631.745 3.341 1.098 5.024 1.098 4.593 0 8.986-2.628 11.02-7.078 2.781-6.083.104-13.267-5.978-16.046z" fill="#fff"/></g><g><path d="m275.388 292.072h-186.274c-9.448 0-17.107-7.659-17.107-17.107v-186.274c0-9.448 7.659-17.107 17.107-17.107h186.274c9.448 0 17.107 7.659 17.107 17.107v186.274c0 9.448-7.659 17.107-17.107 17.107z" fill="#6583fe"/><circle cx="182.251" cy="181.828" fill="#8399fe" r="73.749"/><path d="m248.435 245.008-54.846-135.536c-1.87-4.619-6.355-7.643-11.338-7.643s-9.468 3.024-11.337 7.643l-54.847 135.536c-2.534 6.261.488 13.391 6.749 15.925 6.258 2.534 13.391-.488 15.925-6.749l12.883-31.835h61.253l12.883 31.835c1.926 4.759 6.505 7.646 11.342 7.646 1.527 0 3.081-.288 4.583-.896 6.262-2.535 9.283-9.665 6.75-15.926zm-86.912-47.121 20.728-51.223 20.728 51.223z" fill="#fff"/></g><path d="m388.933 104.548 36.826 23.754c3.327 2.146 7.71-.242 7.71-4.202v-47.508c0-3.959-4.383-6.348-7.71-4.202l-36.826 23.754c-3.053 1.97-3.053 6.435 0 8.404z" fill="#ff7eb8"/><g><path d="m116.544 406.954-36.827-23.754c-3.327-2.146-7.71.242-7.71 4.202v47.509c0 3.959 4.383 6.348 7.71 4.202l36.826-23.754c3.053-1.97 3.053-6.435.001-8.405z" fill="#ff7eb8"/><g fill="#2626bc"><path d="m416.362 214.431h-2.039c-7.346-27.97-22.026-53.545-42.655-74.162-20.626-20.614-46.204-35.281-74.173-42.613v-8.965c0-12.19-9.917-22.107-22.107-22.107h-186.274c-12.19 0-22.107 9.917-22.107 22.107v186.274c0 12.19 9.917 22.107 22.107 22.107h8.428c14.247 55.013 56.071 98.727 110.44 115.417v10.323c0 12.19 9.917 22.107 22.107 22.107h186.273c12.19 0 22.107-9.917 22.107-22.107v-186.274c.001-12.19-9.917-22.107-22.107-22.107zm-12.396 0h-27.472c-12.77-36.952-41.98-66.164-78.999-78.944v-27.474c51.184 14.404 92.043 55.242 106.471 106.418zm-326.959 60.534v-186.274c0-6.676 5.431-12.107 12.107-12.107h186.273c6.676 0 12.107 5.431 12.107 12.107v186.274c0 6.676-5.431 12.107-12.107 12.107h-186.273c-6.676 0-12.107-5.431-12.107-12.107zm30.882 22.107h100.092v66.09c-22.343-10.055-41.218-26.997-53.628-48.354-1.387-2.388-4.447-3.198-6.835-1.811-2.387 1.387-3.198 4.448-1.811 6.835 14.212 24.458 36.243 43.583 62.275 54.208v27.96c-48.796-16.053-86.383-55.444-100.093-104.928zm320.581 125.74c0 6.676-5.431 12.107-12.107 12.107h-186.274c-6.676 0-12.107-5.431-12.107-12.107v-125.74h57.406c12.19 0 22.107-9.917 22.107-22.107v-128.846c31.486 11.924 56.445 36.881 68.364 68.311h-43.005c-2.761 0-5 2.239-5 5s2.239 5 5 5h93.509c6.676 0 12.107 5.431 12.107 12.107z"/><path d="m433.255 67.812c-3.217-1.753-7.127-1.609-10.206.377l-36.826 23.754c-2.868 1.85-4.58 4.991-4.58 8.403s1.712 6.554 4.58 8.403l36.827 23.754c1.646 1.062 3.531 1.598 5.42 1.598 1.643 0 3.289-.405 4.785-1.22 3.217-1.753 5.215-5.118 5.215-8.781v-47.508c0-3.663-1.998-7.028-5.215-8.78zm-4.785 56.289-36.826-23.754 36.826-23.754z"/><path d="m119.254 402.753-36.826-23.754c-3.078-1.986-6.99-2.13-10.206-.378-3.217 1.753-5.215 5.118-5.215 8.781v47.509c0 3.663 1.998 7.027 5.215 8.78 1.496.815 3.143 1.221 4.786 1.221 1.889 0 3.773-.536 5.42-1.598l36.826-23.754c2.868-1.85 4.58-4.991 4.58-8.403s-1.713-6.554-4.58-8.404zm-42.247 32.158v-47.509l36.826 23.754z"/></g></g><g fill="#8399fe"><circle cx="100.635" cy="101.829" r="10.071"/><circle cx="263.867" cy="101.829" r="10.071"/></g></g></g><g><path d="m339.526 71.624c-1.031 0-2.062-.318-2.939-.955l-3.859-2.804-3.859 2.804c-1.752 1.273-4.125 1.273-5.878 0-1.752-1.273-2.486-3.53-1.816-5.59l1.474-4.538-3.859-2.804c-1.752-1.273-2.486-3.53-1.816-5.59s2.589-3.455 4.755-3.455h4.771l1.474-4.537c.669-2.06 2.589-3.455 4.755-3.455s4.086 1.395 4.755 3.455l1.474 4.537h4.771c2.166 0 4.086 1.395 4.755 3.455s-.064 4.317-1.816 5.59l-3.859 2.804 1.474 4.538c.669 2.06-.064 4.317-1.816 5.59-.878.636-1.909.955-2.941.955z" fill="#ff7eb8"/></g><g><path d="m482.017 147.8c-1.031 0-2.062-.318-2.939-.955l-3.859-2.804-3.859 2.804c-1.752 1.273-4.125 1.273-5.878 0-1.752-1.273-2.486-3.53-1.816-5.59l1.474-4.537-3.859-2.804c-1.752-1.273-2.486-3.53-1.816-5.59s2.589-3.455 4.755-3.455h4.771l1.474-4.537c.669-2.06 2.589-3.455 4.755-3.455s4.086 1.395 4.755 3.455l1.474 4.538h4.771c2.166 0 4.086 1.395 4.755 3.455s-.064 4.317-1.816 5.59l-3.859 2.804 1.474 4.537c.669 2.06-.064 4.317-1.816 5.59-.879.635-1.91.954-2.941.954z" fill="#01eca5"/></g><g><path d="m161 462.921c-1.031 0-2.062-.318-2.939-.955l-3.859-2.804-3.859 2.804c-1.752 1.273-4.125 1.273-5.878 0-1.752-1.273-2.486-3.53-1.816-5.59l1.474-4.537-3.859-2.804c-1.752-1.273-2.486-3.53-1.816-5.59s2.589-3.455 4.755-3.455h4.771l1.474-4.537c.669-2.06 2.589-3.455 4.755-3.455s4.086 1.395 4.755 3.455l1.474 4.537h4.771c2.166 0 4.086 1.395 4.755 3.455s-.064 4.317-1.816 5.59l-3.859 2.804 1.474 4.537c.669 2.06-.064 4.317-1.816 5.59-.878.637-1.91.955-2.941.955z" fill="#01eca5"/></g><g><path d="m456.265 207.828c-1.28 0-2.559-.488-3.536-1.464l-10.5-10.5c-1.953-1.953-1.953-5.119 0-7.071l10.5-10.5c1.953-1.952 5.118-1.952 7.071 0l10.5 10.5c1.953 1.953 1.953 5.119 0 7.071l-10.5 10.5c-.976.975-2.256 1.464-3.535 1.464zm-3.429-15.5 3.429 3.429 3.429-3.429-3.429-3.429z" fill="#8399fe"/></g><g><path d="m54.647 345.175c-1.28 0-2.559-.488-3.536-1.464l-10.5-10.5c-1.953-1.953-1.953-5.119 0-7.071l10.5-10.5c1.953-1.952 5.118-1.952 7.071 0l10.5 10.5c1.953 1.953 1.953 5.119 0 7.071l-10.5 10.5c-.976.976-2.255 1.464-3.535 1.464zm-3.429-15.5 3.429 3.429 3.429-3.429-3.429-3.429z" fill="#ff7eb8"/></g></g></g></svg>