<svg id="Capa_1" enable-background="new 0 0 512 512" height="512" viewBox="0 0 512 512" width="512" xmlns="http://www.w3.org/2000/svg" xmlns:xlink="http://www.w3.org/1999/xlink"><linearGradient id="SVGID_1_" gradientUnits="userSpaceOnUse" x1="46.733" x2="409.84" y1="417.365" y2="54.259"><stop offset=".0485" stop-color="#d2deff"/><stop offset=".9993" stop-color="#dcfdee"/></linearGradient><g><g><path d="m389.669 156.857c-29.407-49.49 2.869-55.228 2.869-98.98 0-73.942-128.277-60.659-170.765-47.965-57.214 17.094-162.974 114.845-163.036 174.558-.108 103.643 100.697 95.753 93.321 221.249-2.779 47.279-43.899 67.254-22.747 93.92 37.247 46.958 169.987-46.56 164.966-167.774-1.889-45.599 98.98 27.973 142.014-43.035 31.225-51.521-15.228-79.14-46.622-131.973z" fill="url(#SVGID_1_)"/></g><g><g><g fill="#2626bc" opacity=".1"><path d="m413.048 243.43h-5.917c-13.783-58.218-59.719-104.135-117.948-117.891v-12.848c0-9.448-7.659-17.107-17.107-17.107h-186.274c-9.448 0-17.107 7.659-17.107 17.107v186.274c0 9.448 7.659 17.107 17.107 17.107h12.322c13.126 56.26 56.262 101.114 111.544 116.702v14.036c0 9.45 7.66 17.11 17.11 17.11h186.27c9.45 0 17.11-7.66 17.11-17.11v-186.27c0-9.45-7.66-17.11-17.11-17.11zm-203.38 151.227c-35.261-13.274-62.834-42.365-74.02-78.585h74.02zm79.515-151.227v-80.341c38.202 11.951 68.417 42.149 80.391 80.341z"/><path d="m385.621 128.548 36.826 23.754c3.327 2.146 7.71-.242 7.71-4.202v-47.509c0-3.959-4.383-6.348-7.71-4.202l-36.826 23.754c-3.053 1.971-3.053 6.436 0 8.405z"/><path d="m113.231 430.954-36.826-23.754c-3.327-2.146-7.71.242-7.71 4.202v47.509c0 3.959 4.383 6.348 7.71 4.202l36.826-23.754c3.053-1.97 3.053-6.435 0-8.405z"/></g><g><g><path d="m252.688 414.703c-87.509 0-158.703-71.194-158.703-158.703s71.194-158.703 158.703-158.703 158.702 71.194 158.702 158.703-71.194 158.703-158.702 158.703zm0-281.167c-67.527 0-122.464 54.937-122.464 122.464s54.937 122.464 122.464 122.464 122.464-54.937 122.464-122.464-54.938-122.464-122.464-122.464z" fill="#ff7eb8"/></g><path d="m136.176 218.289h-37.65c-2.958 12.092-4.539 24.719-4.539 37.711 0 21.25 4.2 41.54 11.81 60.07h40.2c-10.04-17.76-15.77-38.26-15.77-60.07.001-13.154 2.093-25.826 5.949-37.711z" fill="#ff5ba8"/><g><path d="m430.158 236.54v186.27c0 9.45-7.66 17.11-17.11 17.11h-186.27c-9.45 0-17.11-7.66-17.11-17.11v-186.27c0-9.45 7.66-17.11 17.11-17.11h186.27c9.45 0 17.11 7.66 17.11 17.11z" fill="#01eca5"/><g><circle cx="238.296" cy="250.129" fill="#ffa8cf" r="10.071"/><circle cx="401.529" cy="250.129" fill="#02ffb3" r="10.071"/></g><path d="m289.178 219.43v79.53c0 9.45-7.65 17.11-17.1 17.11h-62.41v-79.53c0-9.45 7.66-17.11 17.11-17.11z" fill="#00d890"/><circle cx="322.851" cy="325.825" fill="#02ffb3" r="73.749"/><path d="m289.178 260.2v38.76c0 9.45-7.65 17.11-17.1 17.11h-22.34c3.22-24.41 18.39-45.05 39.44-55.87z" fill="#01eca5"/><g><path d="m272.839 265.881h41.852c5.538 0 10.028-4.49 10.028-10.028s-4.49-10.028-10.028-10.028h-41.852c-5.538 0-10.028 4.49-10.028 10.028s4.49 10.028 10.028 10.028z" fill="#fff"/><path d="m351.86 286.9c0-5.538-4.49-10.028-10.028-10.028h-96.133c-5.538 0-10.028 4.49-10.028 10.028s4.49 10.028 10.028 10.028h96.133c5.538 0 10.028-4.489 10.028-10.028z" fill="#fff"/><path d="m289.178 276.87v20.06h-43.48c-5.54 0-10.03-4.49-10.03-10.03s4.49-10.03 10.03-10.03z" fill="#d2deff"/><g fill="#fff"><path d="m368.719 385.769h-85.852v-9.155c0-5.538-4.49-10.028-10.028-10.028s-10.028 4.49-10.028 10.028v19.183c0 5.538 4.49 10.028 10.028 10.028h95.88c5.538 0 10.028-4.49 10.028-10.028s-4.49-10.028-10.028-10.028z"/><path d="m383.938 306.368h-5.191v-50.515c0-5.538-4.49-10.028-10.028-10.028s-10.028 4.49-10.028 10.028v109.506c0 5.538 4.49 10.028 10.028 10.028s10.028-4.49 10.028-10.028v-38.936h5.191c5.538 0 10.028-4.49 10.028-10.028s-4.49-10.027-10.028-10.027z"/><path d="m331.328 333.583c0-15.395-16.691-27.004-38.824-27.004s-38.824 11.609-38.824 27.004 16.691 27.005 38.824 27.005c22.133-.001 38.824-11.61 38.824-27.005zm-57.592 0c0-1.675 6.863-6.949 18.769-6.949s18.769 5.273 18.769 6.949c0 1.675-6.863 6.949-18.769 6.949s-18.769-5.274-18.769-6.949z"/></g><path d="m262.488 316.07h9.59c6.62 0 12.35-3.76 15.2-9.26-10.12.86-18.79 4.23-24.79 9.26z" fill="#d2deff"/></g></g><g><path d="m272.075 292.072h-186.273c-9.448 0-17.107-7.659-17.107-17.107v-186.274c0-9.448 7.659-17.107 17.107-17.107h186.274c9.448 0 17.107 7.659 17.107 17.107v186.274c0 9.448-7.66 17.107-17.108 17.107z" fill="#6583fe"/><circle cx="178.939" cy="181.828" fill="#8399fe" r="73.749"/><path d="m245.122 245.008-54.846-135.536c-1.87-4.619-6.355-7.643-11.338-7.643s-9.468 3.024-11.337 7.643l-54.847 135.536c-2.534 6.261.488 13.391 6.749 15.925 6.258 2.534 13.391-.488 15.925-6.749l12.883-31.835h61.253l12.883 31.835c1.926 4.759 6.505 7.646 11.342 7.646 1.527 0 3.081-.288 4.583-.896 6.262-2.535 9.284-9.665 6.75-15.926zm-86.911-47.121 20.728-51.223 20.728 51.223z" fill="#fff"/></g><path d="m385.621 104.548 36.826 23.754c3.327 2.146 7.71-.242 7.71-4.202v-47.508c0-3.959-4.383-6.348-7.71-4.202l-36.826 23.754c-3.053 1.97-3.053 6.435 0 8.404z" fill="#00d890"/><g><path d="m113.231 406.954-36.826-23.754c-3.327-2.146-7.71.242-7.71 4.202v47.509c0 3.959 4.383 6.348 7.71 4.202l36.826-23.754c3.053-1.97 3.053-6.435 0-8.405z" fill="#00d890"/><g fill="#2626bc"><path d="m413.05 214.431h-2.028c-12.623-47.988-47.016-88.316-92.683-108.378-2.526-1.11-5.478.038-6.589 2.566s.039 5.478 2.566 6.589c42.076 18.485 73.953 55.288 86.334 99.223h-27.46c-12.802-37.038-41.96-66.176-79.008-78.955v-46.785c0-12.19-9.917-22.107-22.107-22.107h-186.273c-12.19 0-22.107 9.917-22.107 22.107v186.274c0 12.19 9.917 22.107 22.107 22.107h8.427c14.255 54.995 56.134 98.744 110.44 115.417v10.322c0 12.19 9.917 22.107 22.107 22.107h186.274c12.19 0 22.107-9.917 22.107-22.107v-186.273c0-12.19-9.917-22.107-22.107-22.107zm-50.495 0h-68.372v-68.321c31.51 11.918 56.431 36.821 68.372 68.321zm-288.861 60.534v-186.274c0-6.676 5.431-12.107 12.107-12.107h186.273c6.676 0 12.107 5.431 12.107 12.107v186.274c0 6.676-5.431 12.107-12.107 12.107h-186.272c-6.676 0-12.108-5.431-12.108-12.107zm30.871 22.107h27.453c11.855 34.704 38.654 63.108 72.652 76.995v27.932c-48.743-16.039-86.388-55.457-100.105-104.927zm320.592 125.74c0 6.676-5.431 12.107-12.107 12.107h-186.274c-6.676 0-12.107-5.431-12.107-12.107v-103.328c0-2.761-2.239-5-5-5s-5 2.239-5 5v43.697c-28.497-12.841-51.061-36.876-62.03-66.109h129.436c12.19 0 22.107-9.917 22.107-22.107v-50.534h118.868c6.676 0 12.107 5.431 12.107 12.107z"/><path d="m429.942 67.812c-3.217-1.753-7.126-1.609-10.206.377l-36.826 23.754c-2.868 1.85-4.58 4.991-4.58 8.403s1.712 6.554 4.58 8.403l36.827 23.754c1.646 1.062 3.531 1.598 5.42 1.598 1.643 0 3.289-.405 4.785-1.22 3.217-1.753 5.215-5.118 5.215-8.781v-47.508c0-3.663-1.998-7.028-5.215-8.78zm-4.785 56.289-36.826-23.754 36.826-23.754z"/><path d="m115.941 402.753-36.826-23.754c-3.078-1.986-6.989-2.13-10.206-.378-3.217 1.753-5.215 5.118-5.215 8.781v47.509c0 3.663 1.998 7.027 5.215 8.78 1.496.815 3.143 1.221 4.786 1.221 1.889 0 3.773-.536 5.42-1.598l36.826-23.754c2.868-1.85 4.58-4.991 4.58-8.403s-1.712-6.554-4.58-8.404zm-42.247 32.158v-47.509l36.826 23.754z"/></g></g><g fill="#8399fe"><circle cx="97.322" cy="101.829" r="10.071"/><circle cx="260.555" cy="101.829" r="10.071"/></g></g></g><g><g><path d="m68.694 359.583c-1.28 0-2.559-.488-3.536-1.464l-10.5-10.5c-1.953-1.953-1.953-5.119 0-7.071l10.5-10.5c1.953-1.952 5.118-1.952 7.071 0l10.5 10.5c1.953 1.953 1.953 5.119 0 7.071l-10.5 10.5c-.975.976-2.255 1.464-3.535 1.464zm-3.428-15.5 3.429 3.429 3.429-3.429-3.429-3.429z" fill="#01eca5"/></g></g><g><g><path d="m438.639 483.368c-1.28 0-2.559-.488-3.536-1.464l-10.5-10.5c-1.953-1.953-1.953-5.119 0-7.071l10.5-10.5c1.953-1.952 5.118-1.952 7.071 0l10.5 10.5c1.953 1.953 1.953 5.119 0 7.071l-10.5 10.5c-.976.975-2.255 1.464-3.535 1.464zm-3.429-15.5 3.429 3.429 3.429-3.429-3.429-3.429z" fill="#01eca5"/></g></g><g><g><path d="m287.277 53.098c-1.28 0-2.559-.488-3.536-1.464l-10.5-10.5c-1.953-1.953-1.953-5.119 0-7.071l10.5-10.5c1.953-1.952 5.118-1.952 7.071 0l10.5 10.5c1.953 1.953 1.953 5.119 0 7.071l-10.5 10.5c-.975.975-2.255 1.464-3.535 1.464zm-3.428-15.5 3.429 3.429 3.429-3.429-3.429-3.429z" fill="#01eca5"/></g></g><g><g><path d="m449.604 187.737c-1.031 0-2.062-.318-2.939-.955l-3.859-2.804-3.859 2.804c-1.752 1.273-4.125 1.273-5.878 0-1.752-1.273-2.486-3.53-1.816-5.59l1.474-4.538-3.859-2.804c-1.752-1.273-2.486-3.53-1.816-5.59s2.589-3.455 4.755-3.455h4.771l1.474-4.537c.669-2.06 2.589-3.455 4.755-3.455s4.086 1.395 4.755 3.455l1.474 4.537h4.771c2.166 0 4.086 1.395 4.755 3.455s-.064 4.317-1.816 5.59l-3.859 2.804 1.474 4.538c.669 2.06-.064 4.317-1.816 5.59-.879.637-1.91.955-2.941.955z" fill="#ff7eb8"/></g></g><g><g><path d="m352.476 63.521c-1.031 0-2.062-.318-2.939-.955l-3.859-2.804-3.859 2.804c-1.752 1.273-4.125 1.273-5.878 0-1.752-1.273-2.486-3.53-1.816-5.59l1.474-4.538-3.859-2.804c-1.752-1.273-2.486-3.53-1.816-5.59s2.589-3.455 4.755-3.455h4.771l1.474-4.537c.669-2.06 2.589-3.455 4.755-3.455s4.086 1.395 4.755 3.455l1.474 4.537h4.771c2.166 0 4.086 1.395 4.755 3.455s-.064 4.317-1.816 5.59l-3.859 2.804 1.474 4.538c.669 2.06-.064 4.317-1.816 5.59-.879.637-1.91.955-2.941.955z" fill="#8399fe"/></g></g></g></g></svg>