<svg id="Capa_1" enable-background="new 0 0 512 512" height="512" viewBox="0 0 512 512" width="512" xmlns="http://www.w3.org/2000/svg" xmlns:xlink="http://www.w3.org/1999/xlink"><linearGradient id="SVGID_1_" gradientUnits="userSpaceOnUse" x1="56.637" x2="427.065" y1="418.703" y2="48.275"><stop offset="0" stop-color="#ffdbed"/><stop offset="1" stop-color="#dcfdee"/></linearGradient><g><g><path d="m507.842 299.468c-.892-59.11-49.072-87.106-95.16-113.424-20.926-11.949-20.438-29.101-9.685-48.676 34.212-62.279 16.823-142.581-66.677-137.102-46.414 3.045-78.477 40.894-116.254 63.227-41.658 24.628-67.16 14.112-104.434-4.685-46.027-23.21-103.663 12.833-110.941 62.751-10.402 71.34 128.961 85.202 85.334 195.219-26.621 67.13-2.54 179.571 86.319 193.557 80.398 12.654 148.433-48.861 185.275-114.665 7.821-13.969 15.912-29.662 30.642-35.934 44.107-18.783 117.126 42.142 115.581-60.268z" fill="url(#SVGID_1_)"/></g><g><g><path d="m464.174 127.788h-416.348c-5.523 0-10 4.477-10 10v273.198c0 5.523 4.477 10 10 10h176.681v1.226c0 5.523 4.477 10 10 10h196.128c5.523 0 10-4.477 10-10v-1.226h23.539c5.523 0 10-4.477 10-10v-273.198c0-5.523-4.477-10-10-10z" fill="#2626bc" opacity=".1"/><g><path d="m464.174 396.986h-416.348c-5.523 0-10-4.477-10-10v-273.198c0-5.523 4.477-10 10-10h416.348c5.523 0 10 4.477 10 10v273.198c0 5.523-4.477 10-10 10z" fill="#ff7eb8"/><path d="m454.17 128.79v243.2c0 2.76-2.23 5-5 5h-386.34c-2.77 0-5-2.24-5-5v-243.2c0-2.76 2.23-5 5-5h386.34c2.77 0 5 2.24 5 5z" fill="#01eca5"/><g><path d="m436.28 123.79v29.2c0 1.59-.64 3.12-1.76 4.24l-31.17 31.17c-1.12 1.13-2.65 1.76-4.24 1.76h-44.08c-1.59 0-3.11-.63-4.24-1.76l-31.17-31.17c-1.12-1.12-1.75-2.65-1.75-4.24v-29.2z" fill="#00d890"/></g><g><path d="m407.715 376.986h-22.749c-2.588 0-4.749-1.975-4.98-4.553l-3.201-35.697c-.21-2.341 1.634-4.357 3.984-4.357h31.143c2.35 0 4.194 2.016 3.984 4.357l-3.201 35.697c-.232 2.578-2.392 4.553-4.98 4.553z" fill="#ff5ba8"/><path d="m398.34 332.379h8.314v44.607h-8.314z" fill="#ffa8cf"/><g><path d="m390.614 376.986h-72.483v-11.788c0-6.383 5.175-11.558 11.558-11.558h49.368c6.383 0 11.558 5.175 11.558 11.558v11.788z" fill="#6583fe"/></g><g><path d="m332.368 353.641h44.008v3.157c0 3.876-3.142 7.017-7.017 7.017h-29.974c-3.876 0-7.017-3.142-7.017-7.017z" fill="#8399fe"/></g><path d="m430.635 408.212h-196.128c-5.523 0-10-4.477-10-10v-16.226c0-2.761 2.239-5 5-5h206.128c2.761 0 5 2.239 5 5v16.226c0 5.523-4.477 10-10 10z" fill="#ffc4df"/></g></g><g fill="#fff"><path d="m188.335 248.789c2.761 0 5-2.239 5-5s-2.239-5-5-5h-38.466c-5.17 0-9.376 4.206-9.376 9.376v56.558c0 5.17 4.206 9.376 9.376 9.376h38.466c2.761 0 5-2.239 5-5s-2.239-5-5-5h-37.842v-24.026h27.395c2.761 0 5-2.239 5-5s-2.239-5-5-5h-27.395v-21.283h37.842z"/><path d="m224.311 263.36h-15.333c-2.761 0-5 2.239-5 5s2.239 5 5 5h15.333c2.761 0 5-2.239 5-5s-2.239-5-5-5z"/><path d="m224.311 279.528h-15.333c-2.761 0-5 2.239-5 5s2.239 5 5 5h15.333c2.761 0 5-2.239 5-5s-2.239-5-5-5z"/><path d="m285.571 254.424c-4.5 0-8.581 1.809-11.57 4.731-2.989-2.922-7.07-4.731-11.57-4.731-2.77 0-5.379.692-7.677 1.899-.916-1.149-2.311-1.899-3.894-1.899-2.761 0-5 2.239-5 5v35.442c0 2.761 2.239 5 5 5s5-2.239 5-5v-23.871c0-3.623 2.948-6.571 6.571-6.571s6.57 2.948 6.57 6.571v23.871c0 2.761 2.238 5 5 5s5-2.239 5-5v-23.871c0-3.623 2.947-6.571 6.57-6.571s6.571 2.948 6.571 6.571v23.871c0 2.761 2.238 5 5 5s5-2.239 5-5v-23.871c.001-9.138-7.433-16.571-16.571-16.571z"/><path d="m326.378 263.022h5.241c2.972 0 5.39 2.418 5.39 5.39 0 2.761 2.238 5 5 5s5-2.239 5-5c0-8.486-6.903-15.39-15.39-15.39h-5.241c-8.486 0-15.39 6.904-15.39 15.39v16.064c0 8.486 6.903 15.39 15.39 15.39h5.241c8.486 0 15.39-6.904 15.39-15.39 0-2.761-2.238-5-5-5s-5 2.239-5 5c0 2.972-2.418 5.39-5.39 5.39h-5.241c-2.972 0-5.39-2.418-5.39-5.39v-16.064c0-2.972 2.418-5.39 5.39-5.39z"/><path d="m377.296 267.833h-5.183c3.194-3.311 6.239-7.033 7.593-10.307 1.887-4.565 1.447-9.632-1.177-13.555-2.447-3.661-6.42-5.76-10.899-5.76-7.411 0-13.441 6.03-13.441 13.442 0 2.761 2.238 5 5 5s5-2.239 5-5c0-1.898 1.544-3.442 3.441-3.442 1.132 0 2.002.443 2.587 1.318.752 1.125.847 2.725.247 4.177-1.561 3.776-9.363 11.178-14.405 15.228-1.654 1.329-2.29 3.557-1.586 5.558s2.594 3.341 4.716 3.341h18.107c2.762 0 5-2.239 5-5s-2.238-5-5-5z"/></g><g><path d="m152.298 197.65c0 20.68-16.76 37.45-37.44 37.45-20.69 0-37.45-16.77-37.45-37.45s16.76-37.45 37.45-37.45v37.45z" fill="#6583fe"/><path d="m159.788 190.16h-37.44v-37.45c20.68 0 37.44 16.77 37.44 37.45z" fill="#ff7eb8"/></g><g><g><path d="m177.914 153.667h12.583c2.761 0 5-2.239 5-5s-2.239-5-5-5h-12.583c-2.761 0-5 2.239-5 5s2.239 5 5 5z" fill="#ff7eb8"/></g><g><path d="m177.914 174.048h28.583c2.761 0 5-2.239 5-5s-2.239-5-5-5h-28.583c-2.761 0-5 2.239-5 5s2.239 5 5 5z" fill="#fff"/></g></g><g><g><path d="m239.095 153.667h12.583c2.761 0 5-2.239 5-5s-2.239-5-5-5h-12.583c-2.761 0-5 2.239-5 5s2.238 5 5 5z" fill="#6583fe"/></g><g><path d="m239.095 174.048h28.583c2.761 0 5-2.239 5-5s-2.239-5-5-5h-28.583c-2.761 0-5 2.239-5 5s2.238 5 5 5z" fill="#fff"/></g></g><g><g><path d="m399.11 47.747h-44.077c-1.591 0-3.117.632-4.243 1.757l-31.167 31.167c-1.125 1.125-1.757 2.651-1.757 4.243v44.077c0 1.591.632 3.117 1.757 4.243l31.167 31.167c1.125 1.125 2.651 1.757 4.243 1.757h44.077c1.591 0 3.117-.632 4.243-1.757l31.167-31.167c1.125-1.125 1.757-2.651 1.757-4.243v-44.077c0-1.591-.632-3.117-1.757-4.243l-31.167-31.167c-1.126-1.125-2.652-1.757-4.243-1.757z" fill="#ffa8cf"/></g><g><circle cx="377.072" cy="106.952" fill="#ff5ba8" r="45.126"/><path d="m464.17 98.79h-22.893v-13.876c0-2.938-1.145-5.7-3.223-7.778l-31.165-31.166c-2.077-2.078-4.84-3.223-7.778-3.223h-44.077c-2.938 0-5.7 1.144-7.778 3.222l-31.167 31.167c-2.078 2.078-3.222 4.84-3.222 7.778v44.077c0 2.938 1.144 5.701 3.222 7.778l31.167 31.167c2.079 2.078 4.841 3.222 7.778 3.222h44.077c2.938 0 5.701-1.145 7.777-3.222l31.167-31.167c2.078-2.078 3.223-4.84 3.223-7.778v-20.201h22.893c2.757 0 5 2.243 5 5v273.2c0 2.757-2.243 5-5 5h-18.535v-10.004c0-5.514-4.486-10-10-10h-206.129c-5.514 0-10 4.486-10 10v10.004h-171.677c-2.757 0-5-2.243-5-5v-273.2c0-2.757 2.243-5 5-5h241.67c2.762 0 5-2.239 5-5s-2.238-5-5-5h-241.67c-8.271 0-15 6.729-15 15v273.2c0 8.271 6.729 15 15 15h172.178c1.682 6.444 7.535 11.222 14.499 11.222h133.763c2.762 0 5-2.239 5-5s-2.238-5-5-5h-133.763c-2.757 0-5-2.243-5-5v-16.226h206.127v16.226c0 2.757-2.243 5-5 5h-33.556c-2.762 0-5 2.239-5 5s2.238 5 5 5h33.556c6.964 0 12.818-4.777 14.499-11.222h19.036c8.271 0 15-6.729 15-15v-273.2c.001-8.271-6.728-15-14.999-15zm-32.893 30.201c0 .263-.106.521-.293.707l-31.168 31.168c-.186.186-.443.292-.706.292h-44.077c-.267 0-.519-.104-.708-.293l-31.167-31.167c-.186-.186-.292-.443-.292-.707v-44.077c0-.264.106-.521.292-.707l31.167-31.167c.189-.189.44-.293.708-.293h44.077c.263 0 .521.106.707.293l31.167 31.167c.187.187.293.444.293.707z" fill="#2626bc"/><g fill="#fff"><path d="m372.533 84.101c-.751-1.914-2.598-3.173-4.654-3.173h-.152c-2.056 0-3.903 1.259-4.654 3.173l-14.937 38.05c-1.009 2.57.257 5.472 2.827 6.481 2.569 1.007 5.472-.257 6.481-2.827l3.022-7.699h14.673l3.022 7.699c.773 1.97 2.66 3.174 4.656 3.174.607 0 1.226-.112 1.826-.347 2.57-1.009 3.836-3.911 2.827-6.481zm-8.141 24.005 3.411-8.689 3.411 8.689z"/><path d="m401.353 87.786h-1.859v-1.858c0-2.761-2.239-5-5-5s-5 2.239-5 5v1.858h-1.858c-2.761 0-5 2.239-5 5s2.239 5 5 5h1.858v1.859c0 2.761 2.239 5 5 5s5-2.239 5-5v-1.859h1.859c2.761 0 5-2.239 5-5s-2.239-5-5-5z"/></g></g></g></g><g><path d="m230.282 80.988c-1.031 0-2.062-.318-2.939-.955l-3.859-2.804-3.859 2.804c-1.753 1.272-4.125 1.273-5.878 0-1.752-1.273-2.486-3.53-1.816-5.59l1.474-4.537-3.859-2.804c-1.752-1.273-2.486-3.53-1.816-5.59s2.589-3.455 4.755-3.455h4.771l1.474-4.537c.669-2.06 2.589-3.455 4.755-3.455s4.086 1.395 4.755 3.455l1.474 4.537h4.771c2.166 0 4.086 1.395 4.755 3.455s-.064 4.317-1.816 5.59l-3.859 2.804 1.474 4.537c.669 2.06-.064 4.317-1.816 5.59-.878.637-1.91.955-2.941.955z" fill="#ff7eb8"/></g><g><path d="m97.292 457.291c-1.031 0-2.062-.318-2.939-.955l-3.859-2.804-3.859 2.804c-1.753 1.272-4.125 1.273-5.878 0-1.752-1.273-2.486-3.53-1.816-5.59l1.474-4.537-3.859-2.804c-1.752-1.273-2.486-3.53-1.816-5.59s2.589-3.455 4.755-3.455h4.771l1.474-4.537c.669-2.06 2.589-3.455 4.755-3.455s4.086 1.395 4.755 3.455l1.474 4.537h4.771c2.166 0 4.086 1.395 4.755 3.455s-.064 4.317-1.816 5.59l-3.859 2.804 1.474 4.537c.669 2.06-.064 4.317-1.816 5.59-.878.637-1.909.955-2.941.955z" fill="#ff7eb8"/></g><g><path d="m289.612 70.565c-1.279 0-2.56-.488-3.535-1.464l-10.5-10.5c-1.953-1.953-1.953-5.119 0-7.071l10.5-10.5c1.951-1.952 5.119-1.952 7.07 0l10.5 10.5c1.953 1.953 1.953 5.119 0 7.071l-10.5 10.5c-.975.976-2.255 1.464-3.535 1.464zm-3.428-15.5 3.429 3.429 3.429-3.429-3.429-3.429z" fill="#01eca5"/></g><g><path d="m421.83 459.41c-1.279 0-2.56-.488-3.535-1.464l-10.5-10.5c-1.953-1.953-1.953-5.119 0-7.071l10.5-10.5c1.951-1.952 5.119-1.952 7.07 0l10.5 10.5c1.953 1.953 1.953 5.119 0 7.071l-10.5 10.5c-.975.976-2.256 1.464-3.535 1.464zm-3.429-15.5 3.429 3.429 3.429-3.429-3.429-3.429z" fill="#ff7eb8"/></g><g><path d="m373.075 479.659c-1.279 0-2.56-.488-3.535-1.464l-10.5-10.5c-1.953-1.953-1.953-5.119 0-7.071l10.5-10.5c1.951-1.952 5.119-1.952 7.07 0l10.5 10.5c1.953 1.953 1.953 5.119 0 7.071l-10.5 10.5c-.975.976-2.256 1.464-3.535 1.464zm-3.429-15.5 3.429 3.429 3.429-3.429-3.429-3.429z" fill="#8399fe"/></g></g></g></svg>