<svg id="Capa_1" enable-background="new 0 0 512 512" height="512" viewBox="0 0 512 512" width="512" xmlns="http://www.w3.org/2000/svg" xmlns:xlink="http://www.w3.org/1999/xlink"><linearGradient id="SVGID_1_" gradientUnits="userSpaceOnUse" x1="94.259" x2="444.728" y1="433.435" y2="82.967"><stop offset="0" stop-color="#ffdbed"/><stop offset="1" stop-color="#dcfdee"/></linearGradient><g><g><path d="m481.808 354.036c-42.523-36.927-115.465-51.988-132.458-107.397-13.252-43.213 59.076-69.122 74.377-108.559 36.967-95.283-78.393-157.131-139.438-81.716-18.502 22.857-45.278 103.725-76.82 90.574-45.979-19.17-34.827-107.526-121.533-103.963-86.948 3.573-110.224 127.819-59.235 193.013 32.013 40.932 83.832 64.937 108.594 111.596 36.218 68.246-23.323 84.408-7.861 116.339 12.701 26.229 54.025 27.518 78.851 14.688 24.459-12.64 38.839-38.455 59.269-56.909 53.165-48.022 89.836 35.665 131.914 58.032 29.318 15.584 63.506 11.911 89.03-9.553 38.248-32.162 30.827-85.303-4.69-116.145z" fill="url(#SVGID_1_)"/></g><g><g><g opacity=".1"><g><g><path d="m119.318 354.262h-11.598c-2.762 0-5-2.239-5-5s2.238-5 5-5h11.598c2.762 0 5 2.239 5 5s-2.238 5-5 5z" fill="#2626bc"/></g><g><path d="m124.161 338.491c-.848 0-1.708-.216-2.495-.671l-10.044-5.799c-2.392-1.381-3.211-4.438-1.83-6.83 1.38-2.391 4.438-3.212 6.83-1.83l10.044 5.799c2.392 1.381 3.211 4.438 1.83 6.83-.926 1.604-2.606 2.501-4.335 2.501z" fill="#2626bc"/></g></g><g><g><path d="m267.807 354.262h-11.598c-2.762 0-5-2.239-5-5s2.238-5 5-5h11.598c2.762 0 5 2.239 5 5s-2.239 5-5 5z" fill="#2626bc"/></g><g><path d="m251.366 338.491c-1.729 0-3.409-.897-4.335-2.501-1.381-2.392-.562-5.449 1.83-6.83l10.044-5.799c2.392-1.382 5.45-.561 6.83 1.83 1.381 2.392.562 5.449-1.83 6.83l-10.044 5.799c-.787.455-1.647.671-2.495.671z" fill="#2626bc"/></g></g></g><g><g fill="#2626bc" opacity=".1"><path d="m307.27 423.538h-16.731c3.08 0 5.577-2.497 5.577-5.577v-13.53c0-6.16-4.994-11.154-11.154-11.154h-195.058c-6.16 0-11.154 4.994-11.154 11.154v13.53c0 3.08 2.497 5.577 5.577 5.577h-16.73c-6.16 0-11.154 4.994-11.154 11.154v13.53c0 3.08 2.497 5.577 5.577 5.577h250.827c3.08 0 5.577-2.497 5.577-5.577v-13.53c0-6.16-4.994-11.154-11.154-11.154z"/><path d="m447.766 225.117-31.167-31.167c-1.125-1.125-2.651-1.757-4.243-1.757h-44.076c-1.591 0-3.117.632-4.243 1.757l-31.167 31.167c-1.125 1.125-1.757 2.651-1.757 4.243v28.54c-.476-.191-.945-.395-1.426-.574-7.495-2.787-14.301-7.156-19.955-12.81l-19.187-19.187 3.957-3.957c3.905-3.905 3.905-10.237 0-14.142l-8.594-8.594 36.025-36.025 4.024 4.024c3.905 3.905 10.237 3.905 14.142 0l11.906-11.906c3.905-3.905 3.905-10.237 0-14.142l-84.815-84.815c-3.905-3.905-10.237-3.905-14.142 0l-11.908 11.905c-3.905 3.905-3.905 10.237 0 14.142l4.024 4.024-116.24 116.242-4.024-4.024c-3.905-3.905-10.237-3.905-14.142 0l-11.906 11.906c-3.905 3.905-3.905 10.237 0 14.142l84.815 84.815c3.905 3.905 10.237 3.905 14.142 0l11.906-11.906c3.905-3.905 3.905-10.237 0-14.142l-4.024-4.024 36.025-36.025 8.594 8.594c3.905 3.905 10.237 3.905 14.142 0l3.957-3.957 19.187 19.187c5.654 5.654 10.023 12.461 12.81 19.956 3.019 8.119 7.752 15.492 13.877 21.618l77.385 77.385c10.223 10.223 26.799 10.223 37.022 0 10.223-10.223 10.223-26.799 0-37.022l-37.984-37.984h21.651c1.591 0 3.117-.632 4.243-1.757l31.167-31.167c1.125-1.125 1.757-2.651 1.757-4.243v-44.077c-.001-1.592-.633-3.118-1.758-4.243z"/></g><g><g><g><g><path d="m309.731 220.515-49.01-49.01-22.136 22.136 49.01 49.01c5.654 5.654 10.023 12.461 12.81 19.955 3.019 8.119 7.752 15.492 13.877 21.618l77.385 77.385c10.223 10.223 26.799 10.223 37.022 0 10.223-10.223 10.223-26.799 0-37.022l-77.385-77.385c-6.125-6.125-13.498-10.858-21.618-13.877-7.495-2.787-14.301-7.156-19.955-12.81z" fill="#ffa8cf"/><g><path d="m414.35 310.25c-.63.23-1.3.35-1.99.35h-44.08c-1.59 0-3.12-.63-4.24-1.75l-31.17-31.17c-1.13-1.13-1.76-2.65-1.76-4.24v-39.57c7.56 3.03 14.43 7.57 20.19 13.33z" fill="#ff7eb8"/></g><path d="m257.401 172.886h31.3v66.17h-31.3z" fill="#ff7eb8" transform="matrix(.707 -.707 .707 .707 -65.669 253.404)"/><path d="m411.603 307.501-45.95-45.951c-12.341 12.341-24.682 24.682-37.022 37.022l45.951 45.95z" fill="#6583fe"/><g><path d="m411.6 307.5-3.1 3.1h-40.22c-1.59 0-3.12-.63-4.24-1.75l-22.84-22.84c6.78-6.79 15.37-15.38 24.45-24.46z" fill="#4369fd"/></g></g><path d="m294.5 197.371-30.05 30.05c-3.905 3.905-10.237 3.905-14.142 0l-16.392-16.392 44.192-44.192 16.392 16.392c3.906 3.905 3.906 10.237 0 14.142z" fill="#ffdbed"/><g><path d="m137.394 104.065h176.066v108.564h-176.066z" fill="#ff7eb8" transform="matrix(.707 -.707 .707 .707 -45.942 205.78)"/><g fill="#ffa8cf"><path d="m230.523 94.921-9.218-9.218-68.522 68.522 9.218 9.218c5.858 5.858 15.355 5.858 21.213 0l47.309-47.309c5.858-5.858 5.858-15.355 0-21.213z"/><path d="m220.331 221.773 9.218 9.218 68.522-68.522-9.218-9.218c-5.858-5.858-15.355-5.858-21.213 0l-47.309 47.309c-5.858 5.858-5.858 15.355 0 21.213z"/></g></g><g fill="#ffa8cf"><path d="m352.003 130.728-11.906 11.906c-3.905 3.905-10.237 3.905-14.142 0l-84.815-84.815c-3.905-3.905-3.905-10.237 0-14.142l11.906-11.906c3.905-3.905 10.237-3.905 14.142 0l84.815 84.815c3.905 3.905 3.905 10.237 0 14.142z"/><path d="m209.714 273.017-11.906 11.906c-3.905 3.905-10.237 3.905-14.142 0l-84.815-84.815c-3.905-3.905-3.905-10.237 0-14.142l11.906-11.906c3.905-3.905 10.237-3.905 14.142 0l84.815 84.815c3.905 3.905 3.905 10.237 0 14.142z"/></g></g><path d="m262.963 135.846-60.037 60.037c-2.343 2.343-6.142 2.343-8.485 0l-6.549-6.549c-2.343-2.343-2.343-6.142 0-8.485l60.037-60.037c2.343-2.343 6.142-2.343 8.485 0l6.549 6.549c2.343 2.343 2.343 6.142 0 8.485z" fill="#ffa8cf"/></g><g><path d="m312.847 429.799h-250.827c-3.08 0-5.577-2.497-5.577-5.577v-13.53c0-6.16 4.994-11.154 11.154-11.154h239.673c6.16 0 11.154 4.994 11.154 11.154v13.53c0 3.08-2.497 5.577-5.577 5.577z" fill="#4369fd"/><path d="m290.539 399.538h-206.212c-3.08 0-5.577-2.497-5.577-5.577v-13.53c0-6.16 4.994-11.154 11.154-11.154h195.058c6.16 0 11.154 4.994 11.154 11.154v13.53c0 3.08-2.497 5.577-5.577 5.577z" fill="#6583fe"/><path d="m113.773 369.277h147.32v30.261h-147.32z" fill="#8399fe"/></g><g><g><path d="m412.356 168.192h-44.077c-1.591 0-3.117.632-4.243 1.757l-31.167 31.167c-1.125 1.125-1.757 2.651-1.757 4.243v44.077c0 1.591.632 3.117 1.757 4.243l31.167 31.167c1.125 1.125 2.651 1.757 4.243 1.757h44.077c1.591 0 3.117-.632 4.243-1.757l31.167-31.167c1.125-1.125 1.757-2.651 1.757-4.243v-44.077c0-1.591-.632-3.117-1.757-4.243l-31.167-31.167c-1.125-1.125-2.651-1.757-4.243-1.757z" fill="#97ffd2"/></g><g><circle cx="390.318" cy="227.398" fill="#01eca5" r="45.126"/><g fill="#fff"><path d="m385.78 204.546c-.751-1.914-2.598-3.173-4.654-3.173h-.152c-2.056 0-3.903 1.259-4.654 3.173l-14.937 38.05c-1.009 2.57.257 5.472 2.827 6.481 2.569 1.007 5.472-.257 6.481-2.827l3.022-7.699h14.673l3.022 7.699c.773 1.97 2.66 3.174 4.656 3.174.607 0 1.226-.112 1.826-.347 2.57-1.009 3.836-3.911 2.827-6.481zm-8.142 24.005 3.411-8.689 3.411 8.689z"/><path d="m414.6 208.231h-1.859v-1.858c0-2.761-2.239-5-5-5s-5 2.239-5 5v1.858h-1.858c-2.761 0-5 2.239-5 5s2.239 5 5 5h1.858v1.859c0 2.761 2.239 5 5 5s5-2.239 5-5v-1.859h1.859c2.761 0 5-2.239 5-5s-2.239-5-5-5z"/></g></g></g></g></g><g fill="#2626bc"><path d="m307.27 394.538h-6.183c.01-.192.029-.382.029-.577v-13.53c0-8.907-7.247-16.154-16.154-16.154h-195.058c-8.907 0-16.154 7.247-16.154 16.154v13.53c0 .195.019.385.029.577h-6.183c-8.907 0-16.154 7.247-16.154 16.154v13.53c0 5.833 4.745 10.577 10.577 10.577h250.827c5.832 0 10.577-4.745 10.577-10.577v-13.53c.001-8.907-7.246-16.154-16.153-16.154zm-223.52-.577v-13.53c0-3.393 2.761-6.154 6.154-6.154h195.058c3.394 0 6.154 2.761 6.154 6.154v13.53c0 .318-.259.577-.577.577h-206.212c-.318 0-.577-.259-.577-.577zm229.674 30.261c0 .318-.259.577-.577.577h-250.827c-.318 0-.577-.259-.577-.577v-13.53c0-3.393 2.761-6.154 6.154-6.154h239.673c3.394 0 6.154 2.761 6.154 6.154z"/><path d="m451.301 197.581-31.167-31.167c-2.077-2.078-4.84-3.222-7.777-3.222h-44.077c-2.938 0-5.7 1.144-7.777 3.222l-31.166 31.166c-2.079 2.077-3.224 4.84-3.224 7.779v20.937c-1.502-.763-2.971-1.593-4.387-2.5-3.047-1.961-5.895-4.255-8.46-6.812l-15.655-15.654.42-.42c2.838-2.832 4.401-6.6 4.401-10.611s-1.563-7.779-4.397-10.605l-5.06-5.06 28.955-28.955.49.49c2.924 2.924 6.766 4.386 10.606 4.386s7.683-1.462 10.606-4.386l11.905-11.906c5.849-5.849 5.849-15.365 0-21.213l-84.814-84.815c-2.833-2.833-6.6-4.394-10.606-4.394s-7.773 1.561-10.607 4.394l-11.904 11.906c-5.849 5.849-5.849 15.365 0 21.213l.489.489-91.08 91.07c-1.953 1.953-1.953 5.118-.001 7.071.977.977 2.257 1.465 3.536 1.465s2.56-.488 3.535-1.464l91.08-91.071 69.694 69.694-109.17 109.172-77.255-77.255c-5.848-5.849-15.365-5.849-21.213 0l-11.905 11.906c-5.849 5.849-5.849 15.365 0 21.213l84.814 84.815c2.833 2.833 6.6 4.394 10.605 4.394 4.007 0 7.773-1.561 10.606-4.394l11.906-11.906c2.834-2.833 4.394-6.6 4.394-10.606 0-4.007-1.56-7.774-4.394-10.607l-.489-.489 28.955-28.955 5.056 5.055c2.83 2.838 6.598 4.401 10.608 4.402h.001c4.011 0 7.779-1.563 10.605-4.397l.424-.424 15.646 15.654c5.192 5.193 9.115 11.304 11.659 18.167 3.242 8.72 8.44 16.812 15.031 23.403l21.97 21.97c.976.976 2.256 1.464 3.535 1.464s2.56-.488 3.535-1.464c1.953-1.953 1.953-5.119 0-7.071l-21.97-21.97c-5.582-5.582-9.983-12.435-12.727-19.812-3.047-8.219-7.745-15.539-13.963-21.757l-15.646-15.654 15.06-15.06 15.661 15.661c3.07 3.06 6.473 5.8 10.121 8.149 3.099 1.985 6.389 3.669 9.79 5.058v12.167c0 2.939 1.145 5.702 3.223 7.778l31.166 31.166c2.077 2.078 4.84 3.223 7.778 3.223h20.353l36.522 36.522c4.002 4.002 6.206 9.321 6.206 14.975s-2.204 10.972-6.205 14.974c-3.999 3.999-9.317 6.201-14.976 6.201s-10.976-2.202-14.975-6.201l-35.05-35.05c-1.951-1.952-5.119-1.952-7.07 0-1.953 1.953-1.953 5.119 0 7.071l35.05 35.05c5.887 5.887 13.716 9.129 22.045 9.129s16.158-3.242 22.047-9.13c5.89-5.891 9.134-13.72 9.134-22.045s-3.244-16.154-9.135-22.046l-29.452-29.451h9.582c2.938 0 5.701-1.145 7.777-3.222l31.167-31.167c2.078-2.077 3.223-4.84 3.223-7.779v-44.077c.004-2.939-1.14-5.701-3.218-7.777zm-206.624-150.368 11.904-11.906c.976-.975 2.256-1.462 3.536-1.462s2.562.488 3.536 1.462l84.814 84.815c1.949 1.949 1.949 5.122 0 7.071l-11.905 11.906c-1.951 1.95-5.121 1.95-7.072 0l-84.814-84.814c-1.949-1.951-1.949-5.123.001-7.072zm-38.498 222.268-11.906 11.906c-1.95 1.949-5.121 1.951-7.071 0l-84.814-84.815c-1.949-1.949-1.949-5.122 0-7.071l11.905-11.906c.976-.975 2.256-1.462 3.536-1.462s2.561.487 3.536 1.462l84.814 84.814c1.949 1.951 1.949 5.123 0 7.072zm51.201-44.128c-1.335 0-2.588-.52-3.534-1.468l-5.06-5.059 37.119-37.119 5.064 5.064c.944.941 1.464 2.195 1.464 3.53s-.52 2.589-1.468 3.535l-30.055 30.054c-.941.943-2.195 1.463-3.53 1.463zm187.143 24.083c0 .267-.104.518-.293.707l-31.168 31.168c-.186.186-.443.292-.706.292h-44.077c-.263 0-.521-.106-.707-.293l-31.167-31.167c-.189-.189-.293-.439-.293-.707v-44.077c0-.263.106-.52.293-.707l31.167-31.167c.187-.186.444-.293.707-.293h44.077c.263 0 .521.107.707.293l31.168 31.169c.186.185.292.442.292.705z"/><path d="m102.721 325.262c0 2.761 2.238 5 5 5h11.598c2.762 0 5-2.239 5-5s-2.238-5-5-5h-11.598c-2.762 0-5 2.238-5 5z"/><path d="m121.666 313.82c.787.455 1.647.671 2.495.671 1.729 0 3.409-.897 4.335-2.501 1.381-2.392.562-5.449-1.83-6.83l-10.044-5.799c-2.393-1.383-5.45-.561-6.83 1.83-1.381 2.392-.562 5.449 1.83 6.83z"/><path d="m251.209 325.262c0 2.761 2.238 5 5 5h11.598c2.762 0 5-2.239 5-5s-2.238-5-5-5h-11.598c-2.762 0-5 2.238-5 5z"/><path d="m258.905 299.361-10.044 5.799c-2.392 1.381-3.211 4.438-1.83 6.83.926 1.604 2.606 2.501 4.335 2.501.848 0 1.708-.216 2.495-.671l10.044-5.799c2.392-1.381 3.211-4.438 1.83-6.83-1.38-2.391-4.438-3.212-6.83-1.83z"/></g></g><g><path d="m131.117 96.389c-1.031 0-2.062-.318-2.938-.955l-3.86-2.804-3.86 2.804c-1.752 1.272-4.124 1.273-5.878 0-1.752-1.273-2.485-3.53-1.815-5.59l1.475-4.537-3.859-2.804c-1.753-1.273-2.486-3.53-1.816-5.59.669-2.06 2.589-3.455 4.755-3.455h4.771l1.475-4.537c.669-2.06 2.589-3.455 4.755-3.455s4.086 1.395 4.755 3.455l1.475 4.537h4.771c2.166 0 4.086 1.395 4.755 3.455.67 2.06-.063 4.317-1.816 5.59l-3.859 2.804 1.475 4.537c.67 2.06-.063 4.317-1.815 5.59-.882.637-1.915.955-2.946.955z" fill="#ff7eb8"/></g><g><path d="m463.843 164.319c-1.031 0-2.062-.318-2.939-.955l-3.858-2.804-3.86 2.804c-1.752 1.273-4.124 1.273-5.878 0-1.752-1.273-2.485-3.53-1.815-5.59l1.474-4.537-3.859-2.804c-1.752-1.273-2.485-3.53-1.815-5.59.669-2.06 2.589-3.455 4.755-3.455h4.77l1.476-4.538c.669-2.06 2.589-3.455 4.755-3.455 2.166 0 4.086 1.395 4.755 3.455l1.475 4.537h4.771c2.166 0 4.086 1.395 4.755 3.455.67 2.06-.063 4.317-1.816 5.59l-3.859 2.804 1.474 4.537c.67 2.06-.063 4.317-1.816 5.59-.883.638-1.914.956-2.945.956z" fill="#ff7eb8"/></g><g><path d="m74.241 338.152c-1.031 0-2.062-.318-2.938-.955l-3.86-2.804-3.858 2.804c-1.754 1.273-4.126 1.273-5.878 0-1.753-1.273-2.486-3.53-1.816-5.59l1.474-4.537-3.859-2.804c-1.753-1.273-2.486-3.53-1.816-5.59.669-2.06 2.589-3.455 4.755-3.455h4.771l1.475-4.537c.669-2.06 2.589-3.455 4.755-3.455s4.086 1.395 4.755 3.455l1.475 4.537h4.771c2.166 0 4.086 1.395 4.755 3.455.67 2.06-.063 4.317-1.815 5.59l-3.859 2.804 1.474 4.537c.67 2.06-.063 4.317-1.815 5.59-.883.636-1.915.955-2.946.955z" fill="#01eca5"/></g><g><path d="m187.434 83.743c-1.279 0-2.56-.488-3.535-1.464l-10.5-10.5c-1.953-1.953-1.953-5.119 0-7.071l10.5-10.5c1.951-1.952 5.119-1.952 7.07 0l10.5 10.5c1.953 1.953 1.953 5.119 0 7.071l-10.5 10.5c-.976.975-2.256 1.464-3.535 1.464zm-3.429-15.5 3.429 3.429 3.429-3.429-3.429-3.429z" fill="#01eca5"/></g><g><path d="m365.6 422.168c-1.279 0-2.56-.488-3.535-1.464l-10.5-10.5c-1.953-1.953-1.953-5.119 0-7.071l10.5-10.5c1.951-1.952 5.119-1.952 7.07 0l10.5 10.5c1.953 1.953 1.953 5.119 0 7.071l-10.5 10.5c-.976.976-2.256 1.464-3.535 1.464zm-3.429-15.5 3.429 3.429 3.429-3.429-3.429-3.429z" fill="#8399fe"/></g></g></g></svg>