<svg id="Capa_1" enable-background="new 0 0 512 512" height="512" viewBox="0 0 512 512" width="512" xmlns="http://www.w3.org/2000/svg" xmlns:xlink="http://www.w3.org/1999/xlink"><linearGradient id="SVGID_1_" gradientUnits="userSpaceOnUse" x1="50.045" x2="413.152" y1="417.365" y2="54.259"><stop offset="0" stop-color="#ffdbed"/><stop offset="1" stop-color="#dcfdee"/></linearGradient><g><path d="m88.462 369.213c-1.28 0-2.559-.488-3.536-1.464l-10.5-10.5c-1.953-1.953-1.953-5.119 0-7.071l10.5-10.5c1.953-1.952 5.118-1.952 7.071 0l10.5 10.5c1.953 1.953 1.953 5.119 0 7.071l-10.5 10.5c-.976.976-2.255 1.464-3.535 1.464zm-3.429-15.5 3.429 3.429 3.429-3.429-3.429-3.429z" fill="#ff7eb8"/></g><g><g><path d="m392.981 156.857c-29.407-49.49 2.869-55.228 2.869-98.98 0-73.942-128.277-60.659-170.765-47.965-57.214 17.094-162.974 114.845-163.036 174.558-.108 103.643 100.697 95.753 93.321 221.249-2.779 47.279-43.899 67.254-22.747 93.92 37.247 46.958 169.987-46.56 164.966-167.774-1.889-45.599 98.98 27.973 142.014-43.035 31.225-51.521-15.228-79.14-46.622-131.973z" fill="url(#SVGID_1_)"/></g><g><g><path d="m385.539 83.358h-258.052c-37.853 0-69.405 30.111-69.896 67.961-.499 38.458 30.526 69.79 68.869 69.79.71 0 1.414-.023 2.119-.044 3.2 5.234 8.152 14.693 15.104 23.296h-22.783c-1.59 0-3.12.63-4.24 1.75l-31.17 31.17c-1.13 1.13-1.76 2.65-1.76 4.24v44.08c0 1.59.63 3.12 1.76 4.24l31.17 31.17c1.12 1.13 2.65 1.76 4.24 1.76h44.07c.24 0 .48-.01.72-.05l.001 118.279c0 2.761 2.239 5 5 5h170.617c2.761 0 5-2.239 5-5v-219.76h.001c19.377-6.522 31.214-30.531 37.111-40.177 1.698.051 3.408.055 5.135-.019 35.371-1.51 64.134-30.151 65.782-65.516 1.843-39.537-29.666-72.17-68.798-72.17z" fill="#2626bc" opacity=".1"/><g><path d="m165.69 237.24h180.62v224.76h-180.62z" fill="#ff7eb8"/><path d="m165.69 237.24h180.62v24h-180.62z" fill="#ff5ba8"/><g><path d="m202.14 281.52v44.08c0 1.59-.63 3.12-1.76 4.24l-31.16 31.17c-.96.96-2.2 1.56-3.53 1.71v-118.31c1.33.15 2.57.75 3.53 1.7l31.16 31.17c1.13 1.13 1.76 2.65 1.76 4.24z" fill="#ff5ba8"/></g><path d="m384.27 195.71c-5.57 8.53-17.61 34.68-37.96 41.53h-180.62c-20.35-6.85-32.39-33-37.96-41.53v-77.739h256.54z" fill="#ffa8cf"/><path d="m384.27 117.97v77.74c-3.01 4.61-7.92 14.38-15.01 23.46-24-5.82-43.09-24.21-49.9-47.81-2.11-7.32-8.94-12.26-16.56-12.26h-93.61c-7.77 0-14.47 5.21-16.66 12.66-6.91 23.41-25.92 41.63-49.79 47.41-7.09-9.08-12-18.85-15.01-23.46v-77.74z" fill="#ff7eb8"/><g fill="#ff5ba8"><path d="m214.199 237.243h-36.986v-18.772c0-8.284 6.716-15 15-15h6.986c8.284 0 15 6.716 15 15z"/><path d="m274.492 237.243h-36.986v-18.772c0-8.284 6.716-15 15-15h6.986c8.284 0 15 6.716 15 15z"/><path d="m334.785 237.243h-36.985v-18.772c0-8.284 6.716-15 15-15h6.986c8.284 0 15 6.716 15 15v18.772z"/></g></g><g fill="#ffc4df"><path d="m241.724 461.999h-39.583v-161.018c0-10.93 8.861-19.791 19.791-19.791 10.93 0 19.791 8.861 19.791 19.791v161.018z"/><path d="m309.858 461.999h-39.583v-161.018c0-10.93 8.861-19.791 19.791-19.791 10.93 0 19.791 8.861 19.791 19.791v161.018z"/></g><g><path d="m385.539 59.358h-258.052c-37.853 0-69.405 30.111-69.896 67.961-.499 38.458 30.526 69.79 68.869 69.79 31.257 0 57.648-20.822 66.065-49.352 2.198-7.45 8.896-12.661 16.663-12.661h93.612c7.616 0 14.447 4.945 16.558 12.263 8.552 29.649 36.486 51.081 69.197 49.685 35.371-1.509 64.134-30.151 65.782-65.516 1.843-39.537-29.666-72.17-68.798-72.17z" fill="#ff5ba8"/><g><path d="m385.539 75.733h-258.198c-28.748 0-52.826 22.743-53.371 51.486-.558 29.411 23.204 53.514 52.49 53.514 18.375 0 34.567-9.493 43.946-23.83 3.278-5.011-.252-11.66-6.24-11.66h-.005c-2.524 0-4.881 1.268-6.257 3.384-7.198 11.064-20.063 18.116-34.453 16.987-18.322-1.437-33.076-16.297-34.392-34.628-1.574-21.917 15.812-40.254 37.401-40.254h258.376c20.478 0 37.709 16.124 38.193 36.597.498 21.089-16.511 38.403-37.489 38.403-13.13 0-24.697-6.787-31.397-17.033-1.398-2.138-3.753-3.456-6.308-3.456-5.976 0-9.525 6.635-6.255 11.638 9.857 15.082 27.25 24.81 46.796 23.776 26.867-1.421 48.555-23.415 49.622-50.299 1.186-29.912-22.805-54.625-52.459-54.625z" fill="#ffa8cf"/></g><g><path d="m286.728 102.971h-61.456c-4.142 0-7.5 3.358-7.5 7.5 0 4.142 3.358 7.5 7.5 7.5h61.456c4.142 0 7.5-3.358 7.5-7.5 0-4.142-3.358-7.5-7.5-7.5z" fill="#ffa8cf"/></g><circle cx="126.46" cy="128.233" fill="#ffa8cf" r="21.262"/><g><circle cx="385.539" cy="128.233" fill="#ffa8cf" r="21.262"/></g></g><g fill="#ffa8cf"><g><circle cx="195.92" cy="110.471" r="7.5"/><circle cx="173.912" cy="110.471" r="7.5"/></g><g><circle cx="338.087" cy="110.471" r="7.5"/><circle cx="316.079" cy="110.471" r="7.5"/></g></g></g><g><g><path d="m164.974 220.358h-44.077c-1.591 0-3.117.632-4.243 1.757l-31.167 31.167c-1.125 1.125-1.757 2.651-1.757 4.243v44.077c0 1.591.632 3.117 1.757 4.243l31.167 31.167c1.125 1.125 2.651 1.757 4.243 1.757h44.077c1.591 0 3.117-.632 4.243-1.757l31.167-31.167c1.125-1.125 1.757-2.651 1.757-4.243v-44.077c0-1.591-.632-3.117-1.757-4.243l-31.167-31.167c-1.125-1.125-2.651-1.757-4.243-1.757z" fill="#97ffd2"/></g><g><circle cx="142.936" cy="279.563" fill="#01eca5" r="45.126"/><g fill="#2626bc"><path d="m165.691 363.695c-2.761 0-5 2.239-5 5v93.304c0 2.761 2.239 5 5 5s5-2.239 5-5v-93.304c0-2.761-2.239-5-5-5z"/><path d="m438.986 77.233c-14.08-14.751-33.062-22.875-53.447-22.875h-51.813c-2.761 0-5 2.239-5 5s2.239 5 5 5h51.813c17.626 0 34.039 7.024 46.213 19.78 12.167 12.747 18.414 29.495 17.59 47.158-1.522 32.672-28.317 59.358-61 60.753-29.583 1.265-55.99-17.683-64.18-46.075-2.697-9.349-11.481-15.878-21.362-15.878h-93.612c-9.968 0-18.592 6.529-21.459 16.246-7.95 26.947-33.145 45.767-61.269 45.767-17.218 0-33.363-6.749-45.46-19.004-12.095-12.253-18.633-28.49-18.41-45.721.451-34.752 29.563-63.026 64.897-63.026h177.429c2.761 0 5-2.239 5-5s-2.239-5-5-5h-177.429c-40.776 0-74.375 32.701-74.896 72.896-.258 19.926 7.303 38.705 21.292 52.876 13.826 14.006 32.225 21.78 51.874 21.962.281.48.568.973.869 1.492 1.949 3.354 4.346 7.471 7.219 11.774h-12.948c-2.938 0-5.701 1.144-7.778 3.222l-31.168 31.168c-2.077 2.078-3.221 4.84-3.221 7.777v44.077c0 2.938 1.144 5.699 3.222 7.778l31.167 31.167c2.078 2.078 4.84 3.222 7.778 3.222h44.077c2.938 0 5.699-1.144 7.778-3.222l31.167-31.167c2.078-2.078 3.222-4.84 3.222-7.778v-44.077c0-2.938-1.144-5.701-3.222-7.778l-7.503-7.503h144.892v219.756c0 2.761 2.239 5 5 5s5-2.239 5-5v-221.346c16.862-7.463 27.529-25.826 34.065-37.077.3-.516.585-1.006.863-1.483.842-.007 1.685-.018 2.533-.053 37.807-1.614 68.802-32.484 70.563-70.279.952-20.421-6.274-39.786-20.346-54.529zm-241.845 180.291v44.077c0 .267-.104.518-.293.707l-31.166 31.167c-.189.189-.441.293-.708.293h-44.077c-.263 0-.521-.107-.707-.293l-31.166-31.165c-.189-.189-.293-.441-.293-.708v-44.077c0-.267.104-.519.293-.707l31.167-31.167c.186-.186.444-.293.707-.293h44.077c.267 0 .519.104.707.293l31.167 31.167c.188.188.292.439.292.706zm148.279-25.281h-159.004l-13.665-13.665c-2.078-2.077-4.84-3.221-7.777-3.221h-18.846c-3.664-4.791-6.744-9.793-9.229-14.016 28.17-4.08 52.223-24.382 60.421-52.17 1.602-5.428 6.371-9.075 11.868-9.075h93.612c5.452 0 10.285 3.557 11.754 8.649 8.187 28.385 32.094 48.583 60.537 52.611-6.275 10.673-16.021 25.89-29.671 30.887z"/></g><g fill="#fff"><path d="m138.398 256.711c-.751-1.914-2.598-3.173-4.654-3.173h-.152c-2.056 0-3.903 1.259-4.654 3.173l-14.938 38.05c-1.009 2.57.257 5.472 2.827 6.481 2.569 1.007 5.472-.257 6.481-2.827l3.022-7.699h14.673l3.022 7.699c.773 1.97 2.66 3.174 4.656 3.174.607 0 1.226-.112 1.826-.347 2.57-1.009 3.836-3.911 2.827-6.481zm-8.142 24.006 3.411-8.689 3.411 8.689z"/><path d="m167.218 260.397h-1.859v-1.858c0-2.761-2.239-5-5-5s-5 2.239-5 5v1.858h-1.859c-2.761 0-5 2.239-5 5s2.239 5 5 5h1.858v1.859c0 2.761 2.239 5 5 5s5-2.239 5-5v-1.859h1.859c2.761 0 5-2.239 5-5s-2.238-5-4.999-5z"/></g></g></g></g><g><path d="m396.338 430.805c-1.031 0-2.062-.318-2.939-.955l-3.859-2.804-3.859 2.804c-1.752 1.273-4.125 1.273-5.878 0-1.752-1.273-2.486-3.53-1.816-5.59l1.474-4.537-3.859-2.804c-1.752-1.273-2.486-3.53-1.816-5.59s2.589-3.455 4.755-3.455h4.771l1.474-4.537c.669-2.06 2.589-3.455 4.755-3.455s4.086 1.395 4.755 3.455l1.474 4.537h4.771c2.166 0 4.086 1.395 4.755 3.455s-.064 4.317-1.816 5.59l-3.859 2.804 1.474 4.537c.669 2.06-.064 4.317-1.816 5.59-.878.636-1.91.955-2.941.955z" fill="#ff7eb8"/></g><g><path d="m413.599 273.319c-1.031 0-2.062-.318-2.939-.955l-3.859-2.804-3.859 2.804c-1.752 1.273-4.125 1.273-5.878 0-1.752-1.273-2.486-3.53-1.816-5.59l1.474-4.538-3.859-2.804c-1.752-1.273-2.486-3.53-1.816-5.59s2.589-3.455 4.755-3.455h4.771l1.474-4.537c.669-2.06 2.589-3.455 4.755-3.455s4.086 1.395 4.755 3.455l1.474 4.537h4.771c2.166 0 4.086 1.395 4.755 3.455s-.064 4.317-1.816 5.59l-3.859 2.804 1.474 4.538c.669 2.06-.064 4.317-1.816 5.59-.878.637-1.91.955-2.941.955z" fill="#01eca5"/></g><g><path d="m438.039 331.172c-1.28 0-2.559-.488-3.536-1.464l-10.5-10.5c-1.953-1.953-1.953-5.119 0-7.071l10.5-10.5c1.953-1.952 5.118-1.952 7.071 0l10.5 10.5c1.953 1.953 1.953 5.119 0 7.071l-10.5 10.5c-.976.976-2.255 1.464-3.535 1.464zm-3.429-15.5 3.429 3.429 3.429-3.429-3.429-3.429z" fill="#8399fe"/></g></g><g><path d="m83.73 49.334c-1.28 0-2.559-.488-3.536-1.464l-10.5-10.5c-1.953-1.953-1.953-5.119 0-7.071l10.5-10.5c1.953-1.952 5.118-1.952 7.071 0l10.5 10.5c1.953 1.953 1.953 5.119 0 7.071l-10.5 10.5c-.976.976-2.255 1.464-3.535 1.464zm-3.429-15.5 3.429 3.429 3.429-3.429-3.429-3.429z" fill="#01eca5"/></g></svg>