<svg id="Capa_1" enable-background="new 0 0 512 512" height="512" viewBox="0 0 512 512" width="512" xmlns="http://www.w3.org/2000/svg" xmlns:xlink="http://www.w3.org/1999/xlink"><linearGradient id="SVGID_1_" gradientUnits="userSpaceOnUse" x1="121.911" x2="457.155" y1="412.399" y2="77.156"><stop offset=".0485" stop-color="#ffdbed"/><stop offset=".9993" stop-color="#d2deff"/></linearGradient><g><g><path d="m499.921 416.962c-23.422-54.774-46.584-75.804-124.145-135.196-52.998-40.584-29.401-92.717-9.407-112.711 58.876-58.876 83.995-82.063 59.47-119.965-78.45-121.24-254.135 97.438-328.768-5.2-57.441-64.938-97.085 38.643-97.071 162.753.024 217.123 255.412 209.575 411.996 278.505 70.247 30.924 125.319 19.262 87.925-68.186z" fill="url(#SVGID_1_)"/></g><g><g><path d="m470.844 280.614-28.214-28.214-19.264-99.857c10.078-3.977 17.212-13.796 17.212-25.287 0-15.013-12.17-27.183-27.183-27.183-10.063 0-18.842 5.472-23.542 13.599h-110.311c-2.251-3.893-5.436-7.177-9.254-9.541 5.384-2.782 8.845-7.63 8.845-15.011 0-9.556-12.942-24.664-19.466-31.672-1.984-2.132-5.349-2.132-7.333 0-6.523 7.008-19.466 22.116-19.466 31.672 0 7.381 3.462 12.23 8.845 15.011-3.818 2.364-7.003 5.647-9.254 9.541h-110.313c-4.7-8.127-13.479-13.599-23.542-13.599-15.013 0-27.183 12.17-27.183 27.183 0 11.491 7.134 21.31 17.213 25.287l-19.264 99.857-28.214 28.214c-1.125 1.125-1.757 2.651-1.757 4.243v44.077c0 1.591.632 3.117 1.757 4.243l31.167 31.167c1.125 1.125 2.651 1.757 4.243 1.757h44.077c1.591 0 3.117-.632 4.243-1.757l31.167-31.167c1.125-1.125 1.757-2.651 1.757-4.243v-44.077c0-1.591-.632-3.117-1.757-4.243l-28.214-28.214-19.264-99.857c5.737-2.264 10.516-6.42 13.571-11.703h110.313c2.388 4.129 5.828 7.57 9.957 9.957v268.831h-83.945c-6.16 0-11.154 4.994-11.154 11.154v13.53c0 3.08 2.497 5.577 5.577 5.577h-16.731c-6.16 0-11.154 4.994-11.154 11.154v13.53c0 3.08 2.497 5.577 5.577 5.577h250.827c3.08 0 5.577-2.497 5.577-5.577v-13.53c0-6.16-4.994-11.154-11.154-11.154h-16.731c3.08 0 5.577-2.497 5.577-5.577v-13.53c0-6.16-4.994-11.154-11.154-11.154h-83.945v-268.831c4.129-2.388 7.569-5.828 9.957-9.957h110.313c3.055 5.283 7.834 9.439 13.571 11.703l-19.263 99.856-28.215 28.215c-1.125 1.125-1.757 2.651-1.757 4.243v44.077c0 1.591.632 3.117 1.757 4.243l31.167 31.167c1.125 1.125 2.651 1.757 4.243 1.757h44.077c1.591 0 3.117-.632 4.243-1.757l31.167-31.167c1.125-1.125 1.757-2.651 1.757-4.243v-44.077c.001-1.592-.631-3.118-1.756-4.243zm-354.098-32.925h-36.283l17.99-93.254c.051 0 .101.004.151.004s.101-.004.151-.004zm278.508 0 17.99-93.254c.051 0 .1.004.151.004s.101-.004.151-.004l17.991 93.254z" fill="#2626bc" opacity=".1"/><path d="m279.132 65.12c0 12.776-10.357 17.976-23.132 17.976-12.776 0-23.132-5.201-23.132-17.976 0-9.556 12.942-24.664 19.466-31.672 1.984-2.132 5.349-2.132 7.333 0 6.523 7.008 19.465 22.116 19.465 31.672z" fill="#b7c5ff"/><g><path d="m242.42 119.69h27.16v291.07h-27.16z" fill="#6583fe"/><path d="m269.58 119.69v31.11c-4 2.32-8.64 3.64-13.58 3.64s-9.58-1.32-13.58-3.64v-31.11z" fill="#4369fd"/></g><g transform="matrix(0 1 -1 0 359.256 -152.744)"><path d="m242.416-54.139h27.168v314.791h-27.168z" fill="#b7c5ff"/><path d="m242.416 1.582h27.168v203.348h-27.168z" fill="#6583fe"/></g><g><g><g opacity=".1"><g><g><path d="m207.885 380.613h-11.598c-2.762 0-5-2.239-5-5s2.238-5 5-5h11.598c2.762 0 5 2.239 5 5s-2.238 5-5 5z" fill="#2626bc"/></g><g><path d="m212.728 364.843c-.848 0-1.708-.216-2.495-.671l-10.044-5.799c-2.392-1.381-3.211-4.438-1.83-6.83 1.38-2.391 4.438-3.212 6.83-1.83l10.044 5.799c2.392 1.381 3.211 4.438 1.83 6.83-.926 1.604-2.607 2.501-4.335 2.501z" fill="#2626bc"/></g></g><g><g><path d="m316.373 380.613h-11.598c-2.762 0-5-2.239-5-5s2.238-5 5-5h11.598c2.762 0 5 2.239 5 5s-2.238 5-5 5z" fill="#2626bc"/></g><g><path d="m299.933 364.843c-1.729 0-3.409-.897-4.335-2.501-1.381-2.392-.562-5.449 1.83-6.83l10.044-5.799c2.392-1.382 5.45-.561 6.83 1.83 1.381 2.392.562 5.449-1.83 6.83l-10.044 5.799c-.787.454-1.647.671-2.495.671z" fill="#2626bc"/></g></g></g><g><path d="m381.414 456.151h-250.828c-3.08 0-5.577-2.497-5.577-5.577v-13.53c0-6.16 4.994-11.154 11.154-11.154h239.673c6.16 0 11.154 4.994 11.154 11.154v13.53c0 3.08-2.496 5.577-5.576 5.577z" fill="#4369fd"/><path d="m359.106 425.889h-206.212c-3.08 0-5.577-2.497-5.577-5.577v-13.53c0-6.16 4.994-11.154 11.154-11.154h195.058c6.16 0 11.154 4.994 11.154 11.154v13.53c0 3.081-2.497 5.577-5.577 5.577z" fill="#6583fe"/><path d="m182.34 395.628h147.32v30.261h-147.32z" fill="#8399fe"/></g></g></g><g><circle cx="256" cy="103.256" fill="#ff7eb8" r="27.183"/><circle cx="256" cy="103.256" fill="#ffa8cf" r="10"/></g><g fill="#ff7eb8"><circle cx="413.396" cy="103.256" r="27.183"/><circle cx="98.604" cy="103.256" r="27.183"/></g><g><g><path d="m120.643 223.689h-44.077c-1.591 0-3.117.632-4.243 1.757l-31.167 31.167c-1.125 1.125-1.757 2.651-1.757 4.243v44.077c0 1.591.632 3.117 1.757 4.243l31.167 31.167c1.125 1.125 2.651 1.757 4.243 1.757h44.077c1.591 0 3.117-.632 4.243-1.757l31.167-31.167c1.125-1.125 1.757-2.651 1.757-4.243v-44.077c0-1.591-.632-3.117-1.757-4.243l-31.167-31.167c-1.126-1.124-2.652-1.757-4.243-1.757z" fill="#97ffd2"/></g><g><circle cx="98.604" cy="282.895" fill="#01eca5" r="45.126"/><g fill="#fff"><path d="m94.066 260.043c-.751-1.914-2.598-3.173-4.654-3.173h-.152c-2.056 0-3.903 1.259-4.654 3.173l-14.937 38.05c-1.009 2.57.257 5.472 2.827 6.481 2.569 1.007 5.472-.257 6.481-2.827l3.022-7.699h14.673l3.022 7.699c.773 1.97 2.66 3.174 4.656 3.174.607 0 1.226-.112 1.826-.347 2.57-1.009 3.836-3.911 2.827-6.481zm-8.141 24.005 3.411-8.689 3.411 8.689z"/><path d="m122.886 263.729h-1.859v-1.858c0-2.761-2.239-5-5-5s-5 2.239-5 5v1.858h-1.858c-2.761 0-5 2.239-5 5s2.239 5 5 5h1.858v1.859c0 2.761 2.239 5 5 5s5-2.239 5-5v-1.859h1.859c2.761 0 5-2.239 5-5s-2.239-5-5-5z"/></g></g></g><g><g><path d="m435.434 223.689h-44.077c-1.591 0-3.117.632-4.243 1.757l-31.167 31.167c-1.125 1.125-1.757 2.651-1.757 4.243v44.077c0 1.591.632 3.117 1.757 4.243l31.167 31.167c1.125 1.125 2.651 1.757 4.243 1.757h44.077c1.591 0 3.117-.632 4.243-1.757l31.167-31.167c1.125-1.125 1.757-2.651 1.757-4.243v-44.077c0-1.591-.632-3.117-1.757-4.243l-31.167-31.167c-1.126-1.124-2.652-1.757-4.243-1.757z" fill="#97ffd2"/></g><g><circle cx="413.396" cy="282.895" fill="#01eca5" r="45.126"/><g fill="#2626bc"><path d="m191.288 351.613c0 2.761 2.238 5 5 5h11.597c2.762 0 5-2.239 5-5s-2.238-5-5-5h-11.597c-2.762 0-5 2.239-5 5z"/><path d="m210.232 340.172c.787.455 1.647.671 2.495.671 1.729 0 3.409-.897 4.335-2.501 1.381-2.392.562-5.449-1.83-6.83l-10.044-5.799c-2.394-1.382-5.45-.561-6.83 1.83-1.381 2.392-.562 5.449 1.83 6.83z"/><path d="m304.775 356.613h11.598c2.762 0 5-2.239 5-5s-2.238-5-5-5h-11.598c-2.762 0-5 2.239-5 5s2.239 5 5 5z"/><path d="m312.472 334.373c2.392-1.381 3.211-4.439 1.83-6.83-1.38-2.392-4.438-3.212-6.83-1.83l-10.043 5.799c-2.392 1.381-3.211 4.439-1.83 6.83.926 1.604 2.606 2.501 4.335 2.501.848 0 1.708-.216 2.495-.671z"/><path d="m474.379 253.078-31.166-31.166c-.654-.654-1.382-1.205-2.156-1.667l-16.729-86.72c12.38-4.485 21.251-16.359 21.251-30.269 0-17.746-14.438-32.183-32.183-32.183s-32.183 14.437-32.183 32.183c0 2.973.414 5.849 1.172 8.584h-95.374c.758-2.735 1.172-5.611 1.172-8.584 0-2.974-.414-5.851-1.172-8.586h74.339c2.762 0 5-2.239 5-5s-2.238-5-5-5h-79.101c-1.132-1.594-2.403-3.082-3.8-4.443 3.7-3.885 5.681-9.06 5.681-15.107 0-10.507-11.311-24.874-20.807-35.083-1.891-2.024-4.56-3.185-7.323-3.185s-5.433 1.161-7.331 3.192c-9.488 10.202-20.799 24.568-20.799 35.075 0 6.046 1.981 11.222 5.681 15.107-1.396 1.362-2.667 2.849-3.8 4.443h-104.898c-5.837-8.219-15.423-13.597-26.248-13.597-17.745 0-32.183 14.437-32.183 32.183 0 13.909 8.871 25.784 21.251 30.269l-16.73 86.72c-.774.462-1.502 1.012-2.156 1.666l-31.167 31.167c-2.078 2.078-3.223 4.84-3.223 7.778v44.077c0 2.938 1.145 5.7 3.223 7.778l31.167 31.167c2.077 2.078 4.84 3.222 7.778 3.222h44.076c2.938 0 5.701-1.144 7.778-3.222l31.167-31.167c2.078-2.078 3.222-4.84 3.222-7.778v-44.077c0-2.938-1.144-5.701-3.222-7.778l-31.166-31.166c-.654-.654-1.382-1.205-2.156-1.667l-16.73-86.72c6.221-2.254 11.55-6.378 15.318-11.685h104.898c5.836 8.22 15.424 13.599 26.25 13.599 2.973 0 5.849-.414 8.584-1.172v256.361h-17.168v-233.667c0-2.761-2.238-5-5-5s-5 2.239-5 5v233.668h-78.945c-8.907 0-16.153 7.247-16.153 16.154v13.53c0 .195.019.385.029.577h-6.184c-8.907 0-16.153 7.247-16.153 16.154v13.53c0 5.833 4.745 10.577 10.577 10.577h250.827c5.832 0 10.576-4.745 10.576-10.577v-13.53c0-8.907-7.246-16.154-16.153-16.154h-6.184c.01-.192.029-.382.029-.577v-13.53c0-8.907-7.246-16.154-16.153-16.154h-78.945v-261.122c2.966-2.106 5.56-4.7 7.666-7.666h104.896c3.768 5.307 9.097 9.431 15.319 11.685l-16.729 86.72c-.774.462-1.502 1.012-2.156 1.666l-31.167 31.167c-2.078 2.078-3.222 4.84-3.222 7.778v44.077c0 2.938 1.144 5.701 3.222 7.778l31.167 31.167c2.077 2.078 4.84 3.222 7.778 3.222h44.076c2.938 0 5.701-1.144 7.778-3.222l31.167-31.167c2.078-2.078 3.223-4.84 3.223-7.778v-44.077c0-2.938-1.145-5.7-3.223-7.778zm-92.389 183.965v13.53c0 .318-.259.577-.576.577h-250.827c-.318 0-.577-.259-.577-.577v-13.53c0-3.393 2.761-6.154 6.153-6.154h239.674c3.392.001 6.153 2.761 6.153 6.154zm-22.307-30.261v13.53c0 .318-.259.577-.576.577h-206.212c-.318 0-.577-.259-.577-.577v-13.53c0-3.393 2.761-6.154 6.153-6.154h195.059c3.392 0 6.153 2.761 6.153 6.154zm-121.813-341.662c0-5.417 6.943-16.247 18.139-28.265 11.178 12.018 18.121 22.848 18.121 28.265 0 4.046-1.345 7.068-4.047 9.205-4.256-2.08-9.035-3.252-14.083-3.252s-9.826 1.171-14.083 3.252c-2.702-2.137-4.047-5.159-4.047-9.205zm-85.352 195.029c.186.186.292.443.292.707v44.077c0 .264-.106.521-.292.707l-31.167 31.167c-.187.186-.444.293-.708.293h-44.077c-.264 0-.521-.107-.708-.293l-31.167-31.167c-.187-.187-.293-.444-.293-.707v-44.077c0-.263.106-.521.293-.707l31.168-31.168c.188-.188.439-.292.707-.292h44.076c.268 0 .519.104.708.293zm-36.737-41.46h-34.353l16.066-83.279c.37.013.739.028 1.111.028s.742-.016 1.111-.028zm-16.36-93.271 4.093-21.215c.523-2.711-1.251-5.333-3.962-5.857-2.711-.518-5.334 1.25-5.856 3.962l-4.093 21.214c-7.757-3.459-13.181-11.239-13.181-20.267 0-12.231 9.951-22.183 22.183-22.183s22.183 9.951 22.183 22.183c-.001 11.959-9.513 21.731-21.367 22.163zm30.194-13.578c.758-2.735 1.172-5.611 1.172-8.584 0-2.974-.414-5.851-1.172-8.586h95.375c-.758 2.735-1.172 5.612-1.172 8.586 0 2.973.414 5.849 1.172 8.584zm104.202-8.584c0-12.231 9.951-22.183 22.183-22.183s22.183 9.951 22.183 22.183-9.951 22.183-22.183 22.183-22.183-9.951-22.183-22.183zm157.396 0c0-12.231 9.951-22.183 22.183-22.183s22.183 9.951 22.183 22.183c0 11.958-9.512 21.731-21.366 22.162l4.093-21.215c.523-2.711-1.251-5.333-3.962-5.857-2.712-.518-5.334 1.25-5.856 3.962l-4.093 21.214c-7.759-3.458-13.182-11.238-13.182-20.266zm22.183 32.183c.373 0 .742-.016 1.112-.028l16.065 83.279h-34.354l16.065-83.279c.37.012.739.028 1.112.028zm54.206 169.494c0 .263-.106.521-.293.707l-31.167 31.167c-.187.186-.444.293-.708.293h-44.076c-.264 0-.521-.107-.708-.293l-31.167-31.167c-.186-.186-.292-.443-.292-.707v-44.077c0-.264.106-.521.292-.707l31.168-31.168c.188-.188.439-.292.707-.292h44.076c.268 0 .519.104.708.293l31.167 31.167c.187.187.293.444.293.707z"/></g><g fill="#fff"><path d="m408.858 260.043c-.751-1.914-2.598-3.173-4.654-3.173h-.152c-2.056 0-3.903 1.259-4.654 3.173l-14.937 38.05c-1.009 2.57.257 5.472 2.827 6.481 2.569 1.007 5.472-.257 6.481-2.827l3.022-7.699h14.673l3.022 7.699c.773 1.97 2.66 3.174 4.656 3.174.607 0 1.226-.112 1.826-.347 2.57-1.009 3.836-3.911 2.827-6.481zm-8.142 24.005 3.411-8.689 3.411 8.689z"/><path d="m437.677 263.729h-1.859v-1.858c0-2.761-2.239-5-5-5s-5 2.239-5 5v1.858h-1.858c-2.761 0-5 2.239-5 5s2.239 5 5 5h1.858v1.859c0 2.761 2.239 5 5 5s5-2.239 5-5v-1.859h1.859c2.761 0 5-2.239 5-5s-2.238-5-5-5z"/></g></g></g></g><g><path d="m96.134 421.552c-1.031 0-2.062-.318-2.939-.955l-3.858-2.804-3.86 2.804c-1.752 1.273-4.125 1.273-5.877 0-1.753-1.273-2.486-3.53-1.816-5.59l1.474-4.538-3.859-2.804c-1.752-1.273-2.485-3.53-1.815-5.59.669-2.06 2.589-3.455 4.755-3.455h4.771l1.475-4.537c.669-2.06 2.589-3.455 4.755-3.455s4.086 1.395 4.755 3.455l1.475 4.537h4.771c2.166 0 4.086 1.395 4.755 3.455.67 2.06-.063 4.317-1.816 5.59l-3.859 2.805 1.474 4.537c.67 2.06-.063 4.317-1.816 5.59-.883.636-1.914.955-2.945.955z" fill="#ff7eb8"/></g><g><path d="m203.086 47.311c-1.031 0-2.062-.318-2.939-.955l-3.858-2.804-3.86 2.804c-1.752 1.273-4.125 1.273-5.877 0-1.753-1.273-2.486-3.53-1.816-5.59l1.474-4.538-3.858-2.804c-1.753-1.273-2.486-3.53-1.816-5.59.669-2.06 2.589-3.455 4.755-3.455h4.771l1.475-4.537c.669-2.06 2.589-3.455 4.755-3.455s4.086 1.395 4.755 3.455l1.475 4.537h4.771c2.166 0 4.086 1.395 4.755 3.455.67 2.06-.063 4.317-1.816 5.59l-3.859 2.804 1.474 4.537c.67 2.06-.063 4.317-1.816 5.59-.883.638-1.914.956-2.945.956z" fill="#8399fe"/></g><g><path d="m427.804 49.542c-1.031 0-2.062-.318-2.938-.955l-3.86-2.804-3.859 2.804c-1.752 1.273-4.125 1.273-5.877 0-1.753-1.273-2.486-3.53-1.816-5.59l1.474-4.537-3.859-2.804c-1.753-1.273-2.486-3.53-1.816-5.59.669-2.06 2.589-3.455 4.755-3.455h4.771l1.475-4.537c.669-2.06 2.589-3.455 4.755-3.455s4.086 1.395 4.755 3.455l1.475 4.537h4.771c2.166 0 4.086 1.395 4.755 3.455.67 2.06-.063 4.317-1.815 5.59l-3.859 2.804 1.474 4.537c.67 2.06-.063 4.317-1.815 5.59-.884.636-1.915.955-2.946.955z" fill="#ff7eb8"/></g><g><path d="m314.973 253.269c-1.279 0-2.56-.488-3.535-1.464l-10.5-10.5c-1.953-1.953-1.953-5.119 0-7.071l10.5-10.5c1.951-1.952 5.119-1.952 7.07 0l10.5 10.5c1.953 1.953 1.953 5.119 0 7.071l-10.5 10.5c-.976.975-2.256 1.464-3.535 1.464zm-3.429-15.5 3.429 3.429 3.429-3.429-3.429-3.429z" fill="#8399fe"/></g><g><path d="m472.602 197.771c-1.279 0-2.56-.488-3.535-1.464l-10.5-10.5c-1.953-1.953-1.953-5.119 0-7.071l10.5-10.5c1.951-1.952 5.119-1.952 7.07 0l10.5 10.5c1.953 1.953 1.953 5.119 0 7.071l-10.5 10.5c-.976.976-2.256 1.464-3.535 1.464zm-3.429-15.5 3.429 3.429 3.429-3.429-3.429-3.429z" fill="#01eca5"/></g></g></g></svg>