<svg id="Capa_1" enable-background="new 0 0 512 512" height="512" viewBox="0 0 512 512" width="512" xmlns="http://www.w3.org/2000/svg" xmlns:xlink="http://www.w3.org/1999/xlink"><linearGradient id="SVGID_1_" gradientUnits="userSpaceOnUse" x1="94.259" x2="444.728" y1="430.393" y2="79.924"><stop offset=".0485" stop-color="#d2deff"/><stop offset=".9993" stop-color="#dcfdee"/></linearGradient><g><g><path d="m481.808 350.993c-42.523-36.927-115.465-51.988-132.458-107.397-13.252-43.213 59.076-69.122 74.377-108.559 36.967-95.283-78.393-157.131-139.438-81.716-18.502 22.857-45.278 103.725-76.82 90.574-45.979-19.17-34.827-107.526-121.533-103.963-86.948 3.573-110.224 127.819-59.235 193.013 32.013 40.932 83.832 64.937 108.594 111.596 36.218 68.246-23.323 84.408-7.861 116.339 12.701 26.229 54.025 27.518 78.851 14.688 24.459-12.64 38.839-38.455 59.269-56.909 53.165-48.022 89.836 35.665 131.914 58.032 29.318 15.584 63.506 11.911 89.03-9.553 38.248-32.161 30.827-85.302-4.69-116.145z" fill="url(#SVGID_1_)"/></g><g><g><g><g fill="#2626bc" opacity=".1"><path d="m256.385 109.306c-21-28.279-54.644-46.607-92.575-46.607-37.93 0-71.575 18.328-92.575 46.607-3.001 4.042-2.625 9.66.97 13.184l69.604 68.243c-2.307 1.723-3.856 4.416-4.013 7.5l-.773 15.162-1.534-1.534c-1.125-1.125-2.651-1.757-4.243-1.757h-44.075c-1.591 0-3.117.632-4.243 1.757l-31.167 31.167c-1.125 1.125-1.757 2.651-1.757 4.243v44.077c0 1.591.632 3.117 1.757 4.243l31.167 31.167c1.125 1.125 2.651 1.757 4.243 1.757h43.986l-2.67 52.389c-.159 3.113 1.128 5.946 3.251 7.887v31.414c0 2.761 2.239 5 5 5h.042v62.132c0 2.761 2.239 5 5 5h44.06c2.761 0 5-2.239 5-5v-62.132h.042c2.761 0 5-2.239 5-5v-31.415c2.123-1.94 3.41-4.773 3.251-7.887l-9.31-182.67c-.157-3.084-1.706-5.777-4.013-7.5l69.604-68.243c3.596-3.524 3.973-9.142.971-13.184z"/><path d="m314.909 227.146c0-13.168-16.087-48.426-26.552-69.971-3.561-7.33-14.008-7.33-17.568 0-10.465 21.545-26.552 56.803-26.552 69.971 0 12.261 6.247 23.06 15.729 29.397-3.59 1.379-6.199 4.764-6.406 8.822l-9.31 182.67c-.159 3.113 1.128 5.946 3.251 7.887v31.413c0 2.761 2.239 5 5 5h54.145c2.761 0 5-2.239 5-5v-31.413c2.123-1.94 3.41-4.773 3.251-7.887l-9.31-182.67c-.207-4.059-2.816-7.443-6.406-8.822 9.482-6.337 15.728-17.136 15.728-29.397z"/><path d="m422.47 448.036-9.31-182.67c-.271-5.318-4.662-9.491-9.987-9.491h-1.431c.935 0 1.851-.262 2.645-.757l7.904-4.926c4.408-2.747 7.075-7.574 7.067-12.767-.034-21.699-2.634-80.447-28.027-119.997-1.946-3.031-6.422-3.031-8.368 0-25.394 39.551-27.993 98.299-28.028 119.997-.008 5.194 2.659 10.021 7.067 12.767l7.905 4.926c.793.494 1.709.757 2.644.757h-1.431c-5.325 0-9.716 4.173-9.987 9.491l-9.31 182.67c-.159 3.113 1.128 5.946 3.251 7.887v31.413c0 2.761 2.239 5 5 5h54.145c2.761 0 5-2.239 5-5v-31.413c2.123-1.941 3.409-4.774 3.251-7.887z"/></g><g><g><g><path d="m136.781 361.726h54.06v106.61h-54.06z" fill="#01eca5"/><path d="m136.781 361.726h54.06v63.48h-54.06z" fill="#00d890"/></g><path d="m255.416 98.49c3.595-3.524 3.971-9.143.97-13.184-21-28.279-54.644-46.607-92.575-46.607s-71.575 18.328-92.575 46.607c-3.001 4.042-2.625 9.66.97 13.184l91.605 89.813z" fill="#ffa8cf"/><path d="m229.018 124.372c2.559-2.509 2.827-6.508.69-9.385-14.948-20.13-38.898-33.176-65.898-33.176s-50.949 13.046-65.898 33.176c-2.136 2.877-1.868 6.876.69 9.385l65.207 63.932z" fill="#ff7eb8"/><path d="m190.883 401.204h-54.145c-2.761 0-5-2.239-5-5v-34.478h64.145v34.478c0 2.761-2.238 5-5 5z" fill="#8399fe"/><g><path d="m137.797 174.233-9.31 182.67c-.291 5.715 4.264 10.509 9.987 10.509h50.672c5.723 0 10.278-4.794 9.987-10.509l-9.31-182.67c-.271-5.318-4.662-9.491-9.987-9.491h-32.053c-5.324 0-9.715 4.173-9.986 9.491z" fill="#b7c5ff"/><g><path d="m168.41 247.267v44.08c0 1.59-.63 3.12-1.75 4.24l-31.17 31.17c-1.12 1.13-2.65 1.76-4.24 1.76h-1.31l5.92-116.29 30.8 30.8c1.12 1.13 1.75 2.65 1.75 4.24z" fill="#9fb0fe"/></g><path d="m198.136 337.323-1.256-24.644h-66.139l-1.256 24.644z" fill="#8399fe"/><g><path d="m149.57 312.677-14.08 14.08c-1.12 1.13-2.65 1.76-4.24 1.76h-1.31l.8-15.84z" fill="#6583fe"/></g><path d="m195.883 293.108-.926-18.121h-62.3l-.92 18.121z" fill="#8399fe"/><path d="m168.41 274.987v16.36c0 .6-.09 1.19-.27 1.76h-36.4l.92-18.12z" fill="#6583fe"/></g></g><g><path d="m314.909 203.146c0 19.516-15.821 35.336-35.336 35.336-19.516 0-35.336-15.821-35.336-35.336 0-13.168 16.087-48.426 26.552-69.971 3.561-7.33 14.008-7.33 17.569 0 10.465 21.545 26.551 56.803 26.551 69.971z" fill="#ffa8cf"/><path d="m300.332 217.723c0 11.465-9.294 20.759-20.759 20.759s-20.759-9.294-20.759-20.759c0-7.736 9.451-28.449 15.599-41.106 2.092-4.306 8.229-4.306 10.321 0 6.148 12.657 15.598 33.37 15.598 41.106z" fill="#ff7eb8"/><g><path d="m306.645 468.336h-54.145c-2.761 0-5-2.239-5-5v-34.478h64.145v34.478c0 2.761-2.238 5-5 5z" fill="#8399fe"/><g><path d="m253.56 241.365-9.31 182.67c-.291 5.715 4.264 10.509 9.987 10.509h50.672c5.723 0 10.278-4.794 9.987-10.509l-9.31-182.67c-.271-5.318-4.662-9.491-9.987-9.491h-32.053c-5.324 0-9.715 4.173-9.986 9.491z" fill="#b7c5ff"/><g fill="#8399fe"><path d="m313.898 404.455-1.256-24.644h-66.138l-1.256 24.644z"/><path d="m311.645 360.24-.926-18.121h-62.3l-.919 18.121z"/></g></g></g></g><g><g><g><path d="m414.219 468.336h-54.145c-2.761 0-5-2.239-5-5v-34.478h64.145v34.478c0 2.761-2.239 5-5 5z" fill="#8399fe"/><g><path d="m361.133 241.365-9.31 182.67c-.291 5.715 4.264 10.509 9.987 10.509h50.672c5.723 0 10.278-4.794 9.987-10.509l-9.31-182.67c-.271-5.318-4.662-9.491-9.987-9.491h-32.052c-5.325 0-9.716 4.173-9.987 9.491z" fill="#b7c5ff"/><g fill="#8399fe"><path d="m421.472 404.455-1.256-24.644h-66.139l-1.256 24.644z"/><path d="m419.219 360.24-.926-18.121h-62.3l-.92 18.121z"/></g></g></g></g><path d="m382.963 93.427c-25.394 39.55-27.993 98.299-28.028 119.997-.008 5.194 2.659 10.021 7.067 12.767l7.904 4.926c.793.494 1.71.757 2.645.757h14.596 14.596c.935 0 1.851-.262 2.645-.757l7.904-4.926c4.408-2.747 7.075-7.574 7.067-12.767-.034-21.699-2.634-80.447-28.028-119.997-1.947-3.031-6.422-3.031-8.368 0z" fill="#ffa8cf"/><path d="m384.639 148.898c-15.22 23.704-16.777 58.914-16.798 71.919-.005 3.113 1.594 6.006 4.235 7.652l4.737 2.952c.476.296 1.025.453 1.585.453h8.748 8.748c.56 0 1.109-.157 1.585-.453l4.737-2.952c2.642-1.646 4.24-4.539 4.235-7.652-.021-13.005-1.578-48.215-16.798-71.919-1.165-1.817-3.848-1.817-5.014 0z" fill="#ff7eb8"/></g></g></g><g><g><path d="m131.248 186.104h-44.077c-1.591 0-3.117.632-4.243 1.757l-31.167 31.167c-1.125 1.125-1.757 2.651-1.757 4.243v44.077c0 1.591.632 3.117 1.757 4.243l31.167 31.167c1.125 1.125 2.651 1.757 4.243 1.757h44.077c1.591 0 3.117-.632 4.243-1.757l31.167-31.167c1.125-1.125 1.757-2.651 1.757-4.243v-44.077c0-1.591-.632-3.117-1.757-4.243l-31.167-31.167c-1.126-1.125-2.652-1.757-4.243-1.757z" fill="#97ffd2"/></g><g><circle cx="109.209" cy="245.309" fill="#01eca5" r="45.126"/><g fill="#2626bc"><path d="m260.399 82.325c-22.61-30.448-58.718-48.626-96.589-48.626s-73.979 18.178-96.589 48.626c-4.479 6.031-3.84 14.516 1.484 19.736l66.235 64.939c-1.237 2.053-2.004 4.428-2.134 6.984l-.365 7.188c-.394-.042-.791-.068-1.193-.068h-44.077c-2.938 0-5.701 1.144-7.778 3.222l-31.167 31.167c-2.078 2.078-3.222 4.84-3.222 7.778v44.077c0 2.938 1.144 5.701 3.222 7.778l31.167 31.167c2.078 2.078 4.84 3.222 7.778 3.222h38.728l-2.402 47.14c-.185 3.642.992 7.245 3.244 10.087v29.466c0 3.711 2.036 6.949 5.045 8.675v63.451c0 2.761 2.239 5 5 5s5-2.239 5-5v-62.125h44.05v62.125c0 2.761 2.239 5 5 5s5-2.239 5-5v-63.452c3.008-1.726 5.044-4.964 5.044-8.674v-29.462c2.258-2.846 3.435-6.454 3.244-10.093l-9.31-182.669c-.406-7.989-6.983-14.247-14.974-14.247h-32.06c-1.774 0-3.472.324-5.055.891l-67.018-65.708c-1.805-1.77-1.997-4.559-.457-6.633 21.042-28.336 53.321-44.588 88.561-44.588s67.519 16.251 88.561 44.588c1.541 2.074 1.349 4.864-.456 6.633l-49.603 48.632c-1.972 1.933-2.003 5.099-.07 7.071 1.934 1.972 5.099 2.004 7.071.07l49.603-48.632c5.324-5.221 5.961-13.705 1.482-19.736zm-173.935 216.896-31.167-31.167c-.186-.186-.293-.444-.293-.707v-44.077c0-.263.107-.521.293-.707l31.167-31.167c.189-.189.44-.293.707-.293h44.077c.267 0 .518.104.707.293l31.167 31.167c.186.186.293.444.293.707v44.077c0 .263-.107.521-.293.707l-31.167 31.167c-.189.189-.44.293-.707.293h-44.077c-.267 0-.518-.104-.707-.293zm104.416 96.986h-54.14v-23.896c.57.065 1.146.106 1.73.106h50.68c.581 0 1.157-.043 1.73-.111zm-11.04-226.47c2.661 0 4.851 2.088 4.986 4.754l9.311 182.679c.072 1.376-.412 2.686-1.363 3.688-.954 1.005-2.241 1.559-3.624 1.559h-50.68c-1.379 0-2.663-.551-3.615-1.553-.955-1.005-1.442-2.32-1.372-3.703l2.483-48.719c1.12-.533 2.157-1.247 3.06-2.15l31.167-31.167c2.078-2.078 3.222-4.84 3.222-7.778v-44.077c0-2.938-1.144-5.701-3.222-7.778l-28.057-28.057.657-12.945c.135-2.666 2.326-4.753 4.987-4.753z"/><path d="m319.91 203.147c0-10.913-9.102-35.188-27.053-72.155-2.49-5.127-7.58-8.312-13.283-8.312-5.702 0-10.792 3.185-13.282 8.311-12.341 25.39-27.053 58.518-27.053 72.156 0 11.212 4.641 21.752 12.649 29.306-1.929 2.385-3.156 5.37-3.324 8.658l-9.31 182.67c-.185 3.643.991 7.247 3.244 10.089v29.467c0 5.514 4.486 10 10 10h54.15c5.514 0 10-4.486 10-10v-29.472c2.25-2.841 3.425-6.443 3.24-10.084l-9.31-182.67c-.167-3.287-1.393-6.27-3.322-8.655 8.013-7.555 12.654-18.096 12.654-29.309zm-70.67 0c0-9.024 9.494-33.73 26.047-67.786 1.208-2.488 3.587-2.682 4.287-2.682.701 0 3.079.193 4.288 2.681 16.554 34.089 26.048 58.796 26.048 67.786 0 9.426-4.358 18.227-11.75 23.958-.834-.144-1.687-.231-2.561-.231h-32.052c-.873 0-1.725.087-2.557.231-7.392-5.731-11.75-14.531-11.75-23.957zm3.26 260.19v-23.904c.575.068 1.154.112 1.737.112h50.672c.584 0 1.164-.044 1.741-.112v23.905h-54.15zm56.034-35.348c-.954 1.003-2.241 1.556-3.625 1.556h-50.672c-1.384 0-2.671-.552-3.625-1.556-.953-1.003-1.439-2.317-1.369-3.699l9.31-182.67c.135-2.661 2.329-4.746 4.994-4.746h32.052c2.665 0 4.858 2.084 4.994 4.746l9.31 182.671c.07 1.382-.416 2.695-1.369 3.698z"/><path d="m427.463 423.782-9.31-182.671c-.199-3.89-1.871-7.362-4.45-9.908l1.232-.768c5.911-3.684 9.433-10.046 9.422-17.019-.037-23.451-2.919-82.351-28.82-122.691-1.838-2.863-4.975-4.572-8.392-4.571-3.416 0-6.553 1.709-8.391 4.571-25.899 40.338-28.783 99.239-28.82 122.691-.011 6.973 3.511 13.335 9.422 17.019l1.232.768c-2.58 2.545-4.252 6.018-4.45 9.908l-1.768 34.686c-.141 2.758 1.981 5.107 4.739 5.248 2.748.134 5.107-1.981 5.248-4.739l1.768-34.686c.135-2.661 2.329-4.746 4.993-4.746h32.053c2.665 0 4.858 2.085 4.994 4.746l9.31 182.671c.071 1.382-.416 2.695-1.369 3.698-.954 1.003-2.241 1.556-3.625 1.556h-50.672c-1.384 0-2.671-.552-3.625-1.556-.953-1.003-1.439-2.317-1.369-3.699l6.083-119.344c.141-2.758-1.981-5.107-4.739-5.248-2.755-.135-5.107 1.981-5.248 4.739l-6.083 119.344c-.185 3.641.99 7.243 3.24 10.084v29.472c0 5.514 4.486 10 10 10h54.15c5.514 0 10-4.486 10-10v-29.467c2.254-2.842 3.431-6.446 3.245-10.088zm-40.34-327.653c24.474 38.118 27.199 94.732 27.235 117.303.005 3.491-1.755 6.674-4.711 8.517l-7.903 4.925c-.001 0-.001 0-.001 0h-29.193l-7.904-4.926c-2.956-1.842-4.717-5.026-4.711-8.517.036-22.571 2.762-79.187 27.188-117.302zm-27.053 367.208v-23.905c.576.068 1.156.112 1.741.112h50.672c.583 0 1.162-.044 1.737-.112v23.904h-54.15z"/></g><g fill="#fff"><path d="m104.671 222.457c-.751-1.914-2.598-3.173-4.654-3.173h-.152c-2.056 0-3.903 1.259-4.654 3.173l-14.937 38.05c-1.009 2.57.257 5.472 2.827 6.481 2.569 1.007 5.472-.257 6.481-2.827l3.022-7.699h14.673l3.022 7.699c.773 1.97 2.66 3.174 4.656 3.174.607 0 1.226-.112 1.826-.347 2.57-1.009 3.836-3.911 2.827-6.481zm-8.141 24.006 3.411-8.689 3.411 8.689z"/><path d="m133.491 226.143h-1.859v-1.858c0-2.761-2.239-5-5-5s-5 2.239-5 5v1.858h-1.858c-2.761 0-5 2.239-5 5s2.239 5 5 5h1.858v1.859c0 2.761 2.239 5 5 5s5-2.239 5-5v-1.859h1.859c2.761 0 5-2.239 5-5s-2.239-5-5-5z"/></g></g></g></g><g><path d="m423.404 67.699c-1.031 0-2.062-.318-2.939-.955l-3.859-2.804-3.859 2.804c-1.752 1.273-4.125 1.273-5.878 0-1.752-1.273-2.486-3.53-1.816-5.59l1.474-4.537-3.859-2.804c-1.752-1.273-2.486-3.53-1.816-5.59s2.589-3.455 4.755-3.455h4.771l1.474-4.537c.669-2.06 2.589-3.455 4.755-3.455s4.086 1.395 4.755 3.455l1.474 4.537h4.771c2.166 0 4.086 1.395 4.755 3.455s-.064 4.317-1.816 5.59l-3.859 2.804 1.474 4.537c.669 2.06-.064 4.317-1.816 5.59-.879.637-1.91.955-2.941.955z" fill="#01eca5"/></g><g><path d="m468.588 348.671c-1.031 0-2.062-.318-2.939-.955l-3.859-2.804-3.859 2.804c-1.752 1.273-4.125 1.273-5.878 0-1.752-1.273-2.486-3.53-1.816-5.59l1.474-4.537-3.859-2.804c-1.752-1.273-2.486-3.53-1.816-5.59s2.589-3.455 4.755-3.455h4.771l1.474-4.537c.669-2.06 2.589-3.455 4.755-3.455s4.086 1.395 4.755 3.455l1.474 4.537h4.771c2.166 0 4.086 1.395 4.755 3.455s-.064 4.317-1.816 5.59l-3.859 2.804 1.474 4.537c.669 2.06-.064 4.317-1.816 5.59-.878.637-1.909.955-2.941.955z" fill="#ff7eb8"/></g><g><path d="m328.109 110.188c-1.031 0-2.062-.318-2.939-.955l-3.859-2.804-3.859 2.804c-1.753 1.272-4.125 1.273-5.878 0-1.752-1.273-2.486-3.53-1.816-5.59l1.474-4.537-3.859-2.804c-1.752-1.273-2.486-3.53-1.816-5.59s2.589-3.455 4.755-3.455h4.771l1.474-4.537c.669-2.06 2.589-3.455 4.755-3.455s4.086 1.395 4.755 3.455l1.474 4.537h4.771c2.166 0 4.086 1.395 4.755 3.455s-.064 4.317-1.816 5.59l-3.859 2.804 1.474 4.537c.669 2.06-.064 4.317-1.816 5.59-.878.636-1.909.955-2.941.955z" fill="#8399fe"/></g><g><path d="m95.42 377.226c-1.28 0-2.559-.488-3.536-1.464l-10.5-10.5c-1.953-1.953-1.953-5.119 0-7.071l10.5-10.5c1.953-1.952 5.118-1.952 7.071 0l10.5 10.5c1.953 1.953 1.953 5.119 0 7.071l-10.5 10.5c-.976.976-2.255 1.464-3.535 1.464zm-3.429-15.5 3.429 3.429 3.429-3.429-3.429-3.429z" fill="#ff7eb8"/></g><g><path d="m72.007 430.529c-1.28 0-2.559-.488-3.536-1.464l-10.5-10.5c-1.953-1.953-1.953-5.119 0-7.071l10.5-10.5c1.953-1.952 5.118-1.952 7.071 0l10.5 10.5c1.953 1.953 1.953 5.119 0 7.071l-10.5 10.5c-.976.976-2.255 1.464-3.535 1.464zm-3.429-15.5 3.429 3.429 3.429-3.429-3.429-3.429z" fill="#8399fe"/></g></g></g></svg>