<svg id="Capa_1" enable-background="new 0 0 512 512" height="512" viewBox="0 0 512 512" width="512" xmlns="http://www.w3.org/2000/svg" xmlns:xlink="http://www.w3.org/1999/xlink"><linearGradient id="SVGID_1_" gradientUnits="userSpaceOnUse" x1="141.121" x2="514.929" y1="484.696" y2="110.888"><stop offset="0" stop-color="#ffdbed"/><stop offset="1" stop-color="#dcfdee"/></linearGradient><g><g><path d="m500.232 407.113c-22.727-30.158-64.915-53.759-64.561-95.661.185-21.915 13.118-41.294 22.546-61.079 31.104-65.266 38.868-163.195-17.178-213.121-22.629-20.158-72.025-27.587-101.05-19.692-75.041 20.413-16.158 70.286-30.04 104.178-45.058 110-292.932 92.458-308.846 174.437-9.376 48.302 40.633 137.822 163.722 81.126 91.981-42.367 187.226 147.747 291.785 112.924 41.213-13.727 73.763-43.115 43.622-83.112z" fill="url(#SVGID_1_)"/></g><g><g><path d="m451.956 250.204-2.979-1.136c65.06-180.468-180.742-225.113-228.934-208.26-26.981 9.435-22.328 24.121-12.368 35.617 7.698 8.885 4.462 22.726-6.237 27.596-122.084 55.562-193.389 206.5-129.283 222.499 21.011 5.244 46.708-21.985 77.97-57.323l-25.815 177.167c-.879 6.033 3.799 11.442 9.896 11.442h106.772c.904 0 1.772-.132 2.601-.354.828.222 1.696.354 2.601.354h39.353c.754 3.056 2.932 5.733 6.148 6.959l99.768 38.033c5.697 2.172 11.994-1.216 13.322-7.166l40.909-183.352c1.081-4.847-1.558-9.753-6.198-11.522l-1.263-.481 16.629-43.62c.983-2.58-.312-5.47-2.892-6.453zm-61.625 31.818c-4.64-1.769-9.875.135-12.295 4.472l-30.515 54.695-11.761-80.722c-.716-4.914-4.93-8.558-9.896-8.558h-1.351v-21.217c4.492-.982 7.857-4.977 7.857-9.764v-38.416c0-5.523-4.477-10-10-10h-45.611c-5.523 0-10 4.477-10 10v38.416c0 4.786 3.365 8.782 7.857 9.764v21.217h-1.351c-4.966 0-9.18 3.644-9.896 8.558l-19.791 135.83-19.791-135.83c-.716-4.914-4.93-8.558-9.896-8.558h-1.351v-21.217c4.492-.982 7.857-4.977 7.857-9.764v-26.065c34.428-31.114 73.629-55.913 118.21-57.742 80.101-3.286 80.321 63.583 75.016 98.602-2.27-.336-4.548.927-5.399 3.16l-16.629 43.62z" fill="#2626bc" opacity=".1"/><g><g><g><g><path d="m274.616 206.226h49.897v22.384h-49.897z" fill="#6583fe"/><path d="m322.37 206.928h-45.611c-5.523 0-10-4.477-10-10v-38.416c0-5.523 4.477-10 10-10h45.611c5.523 0 10 4.477 10 10v38.416c0 5.523-4.477 10-10 10z" fill="#b7c5ff"/><g fill="#8399fe"><path d="m294.129 206.928h-14.013v-34.346c0-3.87 3.137-7.007 7.007-7.007 3.87 0 7.007 3.137 7.007 7.007v34.346z"/><path d="m319.014 206.928h-14.013v-34.346c0-3.87 3.137-7.007 7.007-7.007 3.87 0 7.007 3.137 7.007 7.007v34.346z"/></g><path d="m352.951 433.806h-106.772c-6.097 0-10.775-5.409-9.896-11.442l27.086-185.897c.716-4.914 4.93-8.558 9.896-8.558h52.6c4.966 0 9.18 3.644 9.896 8.558l27.086 185.897c.878 6.033-3.8 11.442-9.896 11.442z" fill="#fff"/><path d="m336.978 244.824-1.218-8.357c-.716-4.914-4.93-8.558-9.896-8.558h-52.6c-4.966 0-9.18 3.644-9.896 8.558l-1.218 8.357z" fill="#97ffd2"/><path d="m359.86 401.87h-120.591l-2.986 20.494c-.879 6.033 3.799 11.442 9.896 11.442h106.772c6.097 0 10.775-5.409 9.896-11.442z" fill="#01eca5"/></g><g><circle cx="299.565" cy="313.817" fill="#01eca5" r="28.787"/><circle cx="299.565" cy="282.904" fill="#97ffd2" r="21.269"/></g><g><g><path d="m263 391.54h6.583c2.761 0 5-2.239 5-5s-2.239-5-5-5h-6.583c-2.761 0-5 2.239-5 5s2.239 5 5 5z" fill="#ff5ba8"/></g><g><path d="m309.546 391.54h26.583c2.761 0 5-2.239 5-5s-2.239-5-5-5h-26.583c-2.761 0-5 2.239-5 5s2.239 5 5 5z" fill="#ff5ba8"/></g></g></g></g><g><path d="m409.209 232.42s37.663-123.742-70.603-119.3c-128.954 5.292-212.912 202.762-266.451 189.4-64.106-15.999 7.2-166.937 129.282-222.499 10.7-4.87 13.935-18.711 6.237-27.596-9.959-11.496-14.613-26.182 12.368-35.617 49.881-17.443 311.475 30.989 220.943 227.726z" fill="#8399fe"/><g><g><g><g><path d="m437.968 276.933-46.624-17.774 16.879-44.276c.984-2.58 3.873-3.875 6.453-2.891l37.28 14.212c2.58.984 3.875 3.873 2.891 6.453z" fill="#b7c5ff"/></g><g><path d="m400.394 233.206h49.897v13.616h-49.897z" fill="#d2deff" transform="matrix(.934 .356 -.356 .934 113.396 -135.768)"/></g></g><path d="m391.448 478.798-99.768-38.033c-5.697-2.172-8.141-8.892-5.171-14.216l91.528-164.055c2.419-4.337 7.655-6.241 12.295-4.472l49.15 18.737c4.64 1.769 7.279 6.675 6.198 11.522l-40.91 183.351c-1.328 5.95-7.626 9.338-13.322 7.166z" fill="#fff"/><path d="m443.84 296.522 1.839-8.242c1.081-4.847-1.558-9.753-6.198-11.522l-49.15-18.737c-4.64-1.769-9.876.135-12.295 4.472l-4.114 7.375z" fill="#d2deff"/><path d="m409.28 451.419-112.681-42.956-10.09 18.086c-2.97 5.324-.526 12.044 5.171 14.216l99.768 38.033c5.697 2.172 11.995-1.216 13.322-7.166z" fill="#8399fe"/></g><g><circle cx="384.305" cy="347.663" fill="#8399fe" r="28.787"/><circle cx="395.316" cy="318.778" fill="#b7c5ff" r="21.269"/></g><g><g><path d="m322.453 407.263 6.151 2.345c2.58.984 5.469-.311 6.453-2.891s-.311-5.47-2.891-6.453l-6.151-2.345c-2.58-.984-5.469.311-6.453 2.891s.311 5.47 2.891 6.453z" fill="#ff5ba8"/></g><g><path d="m365.946 423.844 24.839 9.469c2.58.984 5.469-.311 6.453-2.891s-.311-5.469-2.891-6.453l-24.839-9.469c-2.58-.984-5.469.311-6.453 2.891s.311 5.469 2.891 6.453z" fill="#ff5ba8"/></g></g></g></g><g><g><path d="m162.643 206.226h49.897v22.384h-49.897z" fill="#6583fe"/><path d="m210.397 206.928h-45.611c-5.523 0-10-4.477-10-10v-38.416c0-5.523 4.477-10 10-10h45.611c5.523 0 10 4.477 10 10v38.416c0 5.523-4.477 10-10 10z" fill="#b7c5ff"/><g fill="#8399fe"><path d="m182.156 206.928h-14.013v-34.346c0-3.87 3.137-7.007 7.007-7.007 3.87 0 7.007 3.137 7.007 7.007v34.346z"/><path d="m207.041 206.928h-14.013v-34.346c0-3.87 3.137-7.007 7.007-7.007 3.87 0 7.007 3.137 7.007 7.007v34.346z"/></g><path d="m240.978 433.806h-106.772c-6.097 0-10.775-5.409-9.896-11.442l27.086-185.897c.716-4.914 4.93-8.558 9.896-8.558h52.6c4.966 0 9.18 3.644 9.896 8.558l27.086 185.897c.878 6.033-3.8 11.442-9.896 11.442z" fill="#fff"/><path d="m225.005 244.824-1.218-8.357c-.716-4.914-4.93-8.558-9.896-8.558h-52.6c-4.966 0-9.18 3.644-9.896 8.558l-1.218 8.357z" fill="#ffdbed"/><path d="m247.887 401.87h-120.591l-2.986 20.494c-.879 6.033 3.799 11.442 9.896 11.442h106.772c6.097 0 10.775-5.409 9.896-11.442z" fill="#ff7eb8"/><path d="m455.017 222.937c10.138-29.815 12.467-57.728 6.877-83.013-5.168-23.377-17.071-44.603-35.378-63.088-35.702-36.049-86.998-52.811-114.397-59.594-37.393-9.257-75.935-11.377-93.729-5.155-13.053 4.567-20.766 10.986-22.923 19.079-2 7.506.833 15.759 8.427 24.536 2.573 2.967 3.563 6.899 2.716 10.786-.875 4.009-3.513 7.281-7.24 8.978-43.761 19.918-84.755 53.607-115.429 94.862-27.858 37.466-43.02 75.89-40.559 102.783 1.654 18.068 11.441 30.234 27.559 34.257 2.202.549 4.417.815 6.659.815 19.07 0 39.795-19.27 65.184-47.273l-23.419 160.733c-.628 4.313.646 8.678 3.497 11.975 2.852 3.297 6.987 5.188 11.346 5.188h148.004c1.707 3.014 4.402 5.377 7.689 6.63l99.768 38.033c1.728.659 3.538.985 5.344.985 2.452 0 4.895-.602 7.105-1.791 3.838-2.065 6.584-5.689 7.534-9.944l40.909-183.352c1.338-5.994-1.2-12.125-6.055-15.544l14.766-38.732c1.755-4.609-.145-9.721-4.255-12.154zm-381.656 74.728c-12.014-2.999-18.75-11.567-20.022-25.466-2.209-24.142 12.591-60.891 38.625-95.905 29.683-39.921 69.298-72.497 111.547-91.727 6.625-3.015 11.315-8.828 12.868-15.949 1.525-6.999-.271-14.094-4.928-19.463-3.638-4.205-7.688-10.292-6.323-15.413 1.235-4.633 6.962-8.857 16.562-12.216 29.129-10.187 139.546 3.608 197.72 62.347 35.655 36.001 44.489 81.525 26.314 135.355l-26.678-10.17c3.308-24.796 2.687-57.475-16.786-79.208-13.962-15.582-35.445-22.89-63.856-21.729-32.071 1.32-63.747 13.993-96.839 38.742-2.211 1.654-2.663 4.787-1.009 6.999 1.654 2.211 4.787 2.664 6.999 1.009 31.422-23.5 61.273-35.523 91.26-36.758 25.274-1.033 44.124 5.16 55.998 18.412 17.768 19.83 16.869 52.116 14.289 71.457-.182.069-.365.133-.544.213-2.438 1.092-4.304 3.068-5.255 5.563l-14.765 38.732c-5.897-.68-11.873 2.206-14.866 7.569l-23.323 41.804-2.58-17.687c-.398-2.732-2.937-4.624-5.669-4.226-2.732.399-4.625 2.937-4.226 5.669l4.464 30.603-60.193 107.891c-.825 1.477-1.376 3.065-1.664 4.694h-25.38c.804-2.271 1.078-4.722.723-7.163l-7.189-49.34 19.686-135.112c.358-2.443 2.483-4.285 4.942-4.285h52.6c2.465 0 4.595 1.842 4.952 4.281l2.88 19.76c.398 2.733 2.939 4.624 5.669 4.227 2.732-.398 4.625-2.937 4.227-5.669l-2.881-19.764c-.891-6.075-5.445-10.897-11.194-12.364v-13.262c4.676-2.543 7.857-7.501 7.857-13.187v-38.416c0-8.271-6.729-15-15-15h-45.611c-8.271 0-15 6.729-15 15v38.416c0 5.687 3.181 10.644 7.857 13.187v13.26c-5.748 1.465-10.302 6.289-11.194 12.37l-14.843 101.879-14.844-101.878c-.885-6.078-5.441-10.903-11.194-12.368v-13.263c4.676-2.543 7.856-7.501 7.856-13.187v-38.416c0-8.271-6.729-15-15-15h-45.61c-8.271 0-15 6.729-15 15v38.416c0 5.686 3.181 10.644 7.856 13.187v13.263c-5.754 1.465-10.309 6.29-11.194 12.368l-1.056 7.248c-28.87 32.594-54.211 59.123-72.035 54.67zm246.152-85.737v10.979h-39.897v-10.979zm7.857-15c0 2.757-2.243 5-5 5h-45.611c-2.757 0-5-2.243-5-5v-38.416c0-2.757 2.243-5 5-5h45.611c2.757 0 5 2.243 5 5zm-111.973 0c0 2.757-2.243 5-5 5h-45.61c-2.757 0-5-2.243-5-5v-38.416c0-2.757 2.243-5 5-5h45.61c2.757 0 5 2.243 5 5zm-47.754 15h39.897v10.981h-39.897zm-33.437 216.878c-1.475 0-2.818-.614-3.782-1.729s-1.378-2.533-1.166-3.992l27.086-185.897c.355-2.439 2.482-4.279 4.948-4.279h52.6c2.465 0 4.592 1.839 4.948 4.279l27.086 185.897c.213 1.458-.201 2.876-1.166 3.991s-2.308 1.729-3.782 1.729h-106.772zm306.593-141.615-40.909 183.352c-.321 1.439-1.213 2.616-2.511 3.315-1.298.698-2.771.794-4.149.269l-99.768-38.033c-1.378-.525-2.415-1.578-2.918-2.963-.504-1.385-.386-2.857.333-4.145l91.528-164.055c.901-1.615 2.614-2.56 4.386-2.56.59 0 1.186.104 1.761.324l49.148 18.735c2.303.879 3.635 3.355 3.099 5.761zm-5.472-17.367-37.28-14.212 14.598-38.292 37.28 14.211z" fill="#2626bc"/></g><g><circle cx="187.592" cy="313.817" fill="#ff7eb8" r="28.787"/><circle cx="187.592" cy="282.904" fill="#ffa8cf" r="21.269"/></g><g><g><path d="m151.027 391.54h6.583c2.761 0 5-2.239 5-5s-2.239-5-5-5h-6.583c-2.761 0-5 2.239-5 5s2.239 5 5 5z" fill="#ff5ba8"/></g><g><path d="m197.574 391.54h26.583c2.761 0 5-2.239 5-5s-2.239-5-5-5h-26.583c-2.761 0-5 2.239-5 5s2.238 5 5 5z" fill="#ff5ba8"/></g></g></g><g><g><path d="m382.887 89.128c-52.039-15.175-98.666-3.138-128.631 9.644-12.362 5.273-22.901 11.037-31.263 16.194-2.27 1.4-3.027 4.336-1.717 6.66.016.029.033.058.049.088 1.385 2.459 4.524 3.275 6.925 1.792 8.091-4.997 18.316-10.603 30.237-15.667 28.428-12.076 72.632-23.448 121.776-9.06 2.797.821 5.747-.925 6.316-3.861.497-2.556-1.191-5.06-3.692-5.79z" fill="#9fb0fe"/></g><g><path d="m371.662 73.826c-.584 0-1.177-.103-1.756-.32-18.548-6.962-37.941-9.041-38.134-9.062-2.746-.286-4.741-2.744-4.456-5.489.285-2.746 2.732-4.74 5.487-4.458.841.087 20.826 2.217 40.618 9.646 2.585.971 3.894 3.853 2.924 6.438-.754 2.007-2.659 3.245-4.683 3.245z" fill="#b7c5ff"/></g><circle cx="278.295" cy="58.729" fill="#b7c5ff" r="7.5"/><circle cx="103.885" cy="243.691" fill="#6583fe" r="7.5"/><circle cx="106.995" cy="215.918" fill="#9fb0fe" r="7.5"/></g></g></g><g><path d="m456.75 61.822c-1.031 0-2.062-.318-2.939-.955l-3.859-2.804-3.859 2.804c-1.752 1.273-4.125 1.273-5.878 0-1.752-1.273-2.486-3.53-1.816-5.59l1.474-4.537-3.859-2.804c-1.752-1.273-2.486-3.53-1.816-5.59s2.589-3.455 4.755-3.455h4.771l1.474-4.537c.669-2.06 2.589-3.455 4.755-3.455s4.086 1.395 4.755 3.455l1.474 4.537h4.771c2.166 0 4.086 1.395 4.755 3.455s-.064 4.317-1.816 5.59l-3.859 2.804 1.474 4.537c.669 2.06-.064 4.317-1.816 5.59-.879.637-1.91.955-2.941.955z" fill="#01eca5"/></g><g><path d="m98.981 465.938c-1.031 0-2.062-.318-2.939-.955l-3.859-2.804-3.859 2.804c-1.752 1.273-4.125 1.273-5.878 0-1.752-1.273-2.486-3.53-1.816-5.59l1.474-4.537-3.859-2.804c-1.752-1.273-2.486-3.53-1.816-5.59s2.589-3.455 4.755-3.455h4.771l1.474-4.537c.669-2.06 2.589-3.455 4.755-3.455s4.086 1.395 4.755 3.455l1.474 4.537h4.771c2.166 0 4.086 1.395 4.755 3.455s-.064 4.317-1.816 5.59l-3.859 2.804 1.474 4.537c.669 2.06-.064 4.317-1.816 5.59-.878.636-1.909.955-2.941.955z" fill="#ff7eb8"/></g><g><path d="m84.595 407.04c-1.28 0-2.559-.488-3.536-1.464l-10.5-10.5c-1.953-1.953-1.953-5.119 0-7.071l10.5-10.5c1.953-1.952 5.118-1.952 7.071 0l10.5 10.5c1.953 1.953 1.953 5.119 0 7.071l-10.5 10.5c-.976.976-2.255 1.464-3.535 1.464zm-3.428-15.5 3.429 3.429 3.429-3.429-3.429-3.429z" fill="#8399fe"/></g><g><path d="m132.204 95.729c-1.28 0-2.559-.488-3.536-1.464l-10.5-10.5c-1.953-1.953-1.953-5.119 0-7.071l10.5-10.5c1.953-1.952 5.118-1.952 7.071 0l10.5 10.5c1.953 1.953 1.953 5.119 0 7.071l-10.5 10.5c-.976.976-2.255 1.464-3.535 1.464zm-3.429-15.5 3.429 3.429 3.429-3.429-3.429-3.429z" fill="#ff7eb8"/></g><g><path d="m467.759 391.958c-1.28 0-2.559-.488-3.536-1.464l-10.5-10.5c-1.953-1.953-1.953-5.119 0-7.071l10.5-10.5c1.953-1.952 5.118-1.952 7.071 0l10.5 10.5c1.953 1.953 1.953 5.119 0 7.071l-10.5 10.5c-.976.976-2.255 1.464-3.535 1.464zm-3.429-15.5 3.429 3.429 3.429-3.429-3.429-3.429z" fill="#ff7eb8"/></g></g></g></svg>