<svg id="Capa_1" enable-background="new 0 0 512 512" height="512" viewBox="0 0 512 512" width="512" xmlns="http://www.w3.org/2000/svg" xmlns:xlink="http://www.w3.org/1999/xlink"><linearGradient id="SVGID_1_" gradientUnits="userSpaceOnUse" x1="121.911" x2="457.155" y1="412.399" y2="77.156"><stop offset=".0485" stop-color="#d2deff"/><stop offset=".9993" stop-color="#dcfdee"/></linearGradient><g><g><path d="m499.921 416.962c-23.422-54.774-46.584-75.804-124.145-135.196-52.998-40.584-29.401-92.717-9.407-112.711 58.876-58.876 83.995-82.063 59.47-119.965-78.45-121.24-254.135 97.438-328.768-5.2-57.441-64.938-97.085 38.643-97.071 162.753.024 217.123 255.412 209.575 411.996 278.505 70.247 30.924 125.319 19.262 87.925-68.186z" fill="url(#SVGID_1_)"/></g><g><g><g><g><path d="m390.63 263.317h-5.267v-191.203c0-5.932-4.809-10.74-10.74-10.74h-205.557c-5.932 0-10.74 4.809-10.74 10.74v30.673h-29.905c-1.591 0-3.117.632-4.243 1.757l-31.167 31.167c-1.125 1.125-1.757 2.651-1.757 4.243v44.077c0 1.591.632 3.117 1.757 4.243l31.167 31.167c1.125 1.125 2.651 1.757 4.243 1.757h29.905v42.119h-5.267c-7.118 0-12.888 5.77-12.888 12.888v22.374c0 7.118 5.77 12.888 12.888 12.888h5.267v15.733c0 5.932 4.809 10.74 10.74 10.74h34.898l-22.012 87.686h-2.813c-2.76 0-5 2.24-5 5v18.723c-.568-2.138-2.499-3.723-4.815-3.723h-45.84c-2.76 0-5 2.24-5 5v35c0 2.76 2.24 5 5 5h45.84c1.881 0 3.501-1.053 4.354-2.589.35.276.715.532 1.095.769 0 0 .001.001.001.001.38.237.775.452 1.183.646.867.721 1.966 1.172 3.18 1.172h39.307 6.533 39.307c2.76 0 5-2.24 5-5v-35c0-2.76-2.24-5-5-5h-34.307v-15c0-2.76-2.24-5-5-5h-18.084l8.49-33.821 1.623-6.466h109.673l24.133 96.135c1.351 5.379 6.186 9.151 11.732 9.151 7.874 0 13.65-7.404 11.732-15.042l-34.55-137.642h34.897c5.932 0 10.74-4.809 10.74-10.74v-15.732h5.267c7.118 0 12.888-5.77 12.888-12.888v-22.374c.001-7.119-5.769-12.889-12.888-12.889z" fill="#2626bc" opacity=".1"/><g><g><path d="m213.345 287.47h117v73.87h-117z" fill="#ffa8cf"/><path d="m213.345 287.47h117v50.47h-117z" fill="#ff7eb8"/><g><path d="m333.08 287.468h-24.943l42.677 170.007c1.35 5.379 6.186 9.151 11.732 9.151 7.874 0 13.65-7.404 11.732-15.041z" fill="#ff7eb8"/><path d="m345.754 337.94h-24.949l-12.67-50.47h24.95z" fill="#ff5ba8"/><path d="m210.609 287.468-41.198 164.117c-1.917 7.637 3.858 15.041 11.732 15.041 5.546 0 10.382-3.772 11.732-9.151l42.677-170.007z" fill="#ff7eb8"/><path d="m210.605 287.47h24.95l-12.67 50.47h-24.95z" fill="#ff5ba8"/></g><g><path d="m385.36 48.11v255.09c0 5.93-4.81 10.74-10.74 10.74h-205.55c-5.94 0-10.74-4.81-10.74-10.74v-255.09c0-5.93 4.8-10.74 10.74-10.74h205.55c5.93 0 10.74 4.81 10.74 10.74z" fill="#fff"/><g><path d="m209.66 139.95v44.08c0 1.59-.63 3.12-1.75 4.24l-31.17 31.17c-1.12 1.13-2.65 1.76-4.24 1.76h-14.17v-118.41h14.17c1.59 0 3.12.63 4.24 1.75l31.17 31.17c1.12 1.13 1.75 2.65 1.75 4.24z" fill="#d2deff"/></g><g><path d="m247.769 62.184v-5.961c0-7.118 5.77-12.888 12.888-12.888h22.374c7.118 0 12.888 5.77 12.888 12.888v5.961c0 2.966-2.404 5.37-5.37 5.37h-37.411c-2.965 0-5.369-2.404-5.369-5.37z" fill="#d2deff"/></g><path d="m181.18 60.22h181.33v230.87h-181.33z" fill="#97ffd2"/><g><path d="m209.66 139.95v44.08c0 1.59-.63 3.12-1.75 4.24l-26.73 26.73v-106.02l26.73 26.73c1.12 1.13 1.75 2.65 1.75 4.24z" fill="#02ffb3"/></g></g><g fill="#ffa8cf"><path d="m159.02 287.468h-5.961c-7.118 0-12.888-5.77-12.888-12.888v-22.374c0-7.118 5.77-12.888 12.888-12.888h5.961c2.966 0 5.37 2.404 5.37 5.37v37.411c0 2.965-2.404 5.369-5.37 5.369z"/><path d="m384.669 287.468h5.961c7.118 0 12.888-5.77 12.888-12.888v-22.374c0-7.118-5.77-12.888-12.888-12.888h-5.961c-2.966 0-5.37 2.404-5.37 5.37v37.411c0 2.965 2.404 5.369 5.37 5.369z"/></g><g><path d="m247.769 38.184v-5.961c0-7.118 5.77-12.888 12.888-12.888h22.374c7.118 0 12.888 5.77 12.888 12.888v5.961c0 2.966-2.404 5.37-5.37 5.37h-37.411c-2.965 0-5.369-2.404-5.369-5.37z" fill="#ffa8cf"/></g></g><g><g><path d="m269.285 426.626v35c0 2.76-2.24 5-5 5h-45.84c-2.76 0-5-2.24-5-5v-35c0-2.76 2.24-5 5-5h45.84c2.76 0 5 2.24 5 5z" fill="#97ffd2"/><path d="m213.445 444.755v16.871c0 2.76 2.24 5 5 5h45.84c2.76 0 5-2.24 5-5v-16.871z" fill="#01eca5"/></g><g><path d="m229.975 406.63v55c0 2.76-2.24 5-5 5h-45.84c-2.76 0-5-2.24-5-5v-55c0-2.76 2.24-5 5-5h45.84c2.76 0 5 2.24 5 5z" fill="#ff5ba8"/><path d="m229.975 404.648v56.057c0 3.272-2.652 5.924-5.924 5.924h-10.143v-29.848h-8.825c-2.673 0-4.011-3.231-2.121-5.121z" fill="#fff"/></g><g><path d="m174.324 426.626v35c0 2.76-2.24 5-5 5h-45.84c-2.76 0-5-2.24-5-5v-35c0-2.76 2.24-5 5-5h45.84c2.76 0 5 2.24 5 5z" fill="#b7c5ff"/><path d="m169.324 421.626h-18.865v45h18.865c2.76 0 5-2.24 5-5v-35c0-2.76-2.24-5-5-5z" fill="#6583fe"/></g></g></g></g><g><path d="m295.92 60.22v1.96c0 2.97-2.4 5.37-5.37 5.37h-37.41c-2.97 0-5.37-2.4-5.37-5.37v-1.96z" fill="#02ffb3"/></g><g><g><circle cx="245.455" cy="117.528" fill="#ff5ba8" r="36.839"/><circle cx="245.455" cy="117.528" fill="#ff7eb8" r="25"/><circle cx="298.234" cy="117.528" fill="#6583fe" r="36.839"/><path d="m298.234 142.528c-13.786 0-25-11.215-25-25s11.215-25 25-25 25 11.215 25 25-11.215 25-25 25z" fill="#8399fe"/></g><g><circle cx="271.844" cy="162.993" fill="#00d890" r="36.839"/><path d="m271.845 187.993c-13.786 0-25-11.215-25-25s11.215-25 25-25 25 11.215 25 25c-.001 13.785-11.216 25-25 25z" fill="#01eca5"/></g></g><path d="m341.044 271.344h-138.4c-2.761 0-5-2.239-5-5v-14.774c0-2.761 2.239-5 5-5h138.4c2.761 0 5 2.239 5 5v14.774c0 2.762-2.238 5-5 5z" fill="#fff"/><path d="m238.675 246.57h-36.03c-2.761 0-5 2.239-5 5v14.774c0 2.761 2.239 5 5 5h36.03z" fill="#8399fe"/><g><g><g><path d="m201.422 214.432h12.583c2.761 0 5-2.239 5-5s-2.239-5-5-5h-12.583c-2.761 0-5 2.239-5 5s2.239 5 5 5z" fill="#ff5ba8"/></g><g><path d="m201.422 234.813h28.583c2.761 0 5-2.239 5-5s-2.239-5-5-5h-28.583c-2.761 0-5 2.239-5 5s2.239 5 5 5z" fill="#6583fe"/></g></g><g><path d="m334.171 234.813h6.583c2.761 0 5-2.239 5-5s-2.239-5-5-5h-6.583c-2.761 0-5 2.239-5 5s2.239 5 5 5z" fill="#6583fe"/></g></g></g><g><g><path d="m172.498 78.787h-44.077c-1.591 0-3.117.632-4.243 1.757l-31.167 31.167c-1.125 1.125-1.757 2.651-1.757 4.243v44.077c0 1.591.632 3.117 1.757 4.243l31.167 31.167c1.125 1.125 2.651 1.757 4.243 1.757h44.077c1.591 0 3.117-.632 4.243-1.757l31.167-31.167c1.125-1.125 1.757-2.651 1.757-4.243v-44.077c0-1.591-.632-3.117-1.757-4.243l-31.168-31.166c-1.125-1.126-2.651-1.758-4.242-1.758z" fill="#ffa8cf"/></g><g><circle cx="150.459" cy="137.993" fill="#ff5ba8" r="45.126"/><path d="m390.631 234.317-.271-186.207c0-8.679-7.062-15.74-15.74-15.74h-73.7v-.147c0-9.864-8.024-17.888-17.889-17.888h-22.374c-9.864 0-17.888 8.024-17.888 17.888v5.961c0 5.718 4.652 10.371 10.37 10.371h37.411c4.228 0 7.867-2.547 9.48-6.184h74.591c3.165 0 5.74 2.575 5.74 5.74v187.156c-3.571 1.64-6.062 5.241-6.062 9.421v37.411c0 4.18 2.491 7.781 6.062 9.421v11.68c0 3.165-2.575 5.74-5.74 5.74h-205.551c-3.165 0-5.74-2.575-5.74-5.74v-11.682c3.57-1.64 6.06-5.241 6.06-9.42v-37.411c0-4.179-2.49-7.78-6.06-9.42v-33.069h9.167c2.939 0 5.702-1.145 7.778-3.222l31.166-31.167c2.078-2.077 3.223-4.84 3.223-7.779v-44.077c0-2.939-1.145-5.702-3.222-7.778l-31.166-31.165c-2.077-2.079-4.84-3.223-7.779-3.223h-9.167v-25.677c0-3.165 2.575-5.74 5.74-5.74h51.24c2.761 0 5-2.239 5-5s-2.239-5-5-5h-51.24c-8.679 0-15.74 7.061-15.74 15.74v25.677h-24.909c-2.939 0-5.702 1.145-7.778 3.222l-31.166 31.167c-2.078 2.077-3.223 4.84-3.223 7.779v44.077c0 2.939 1.145 5.702 3.222 7.778l31.167 31.166c2.077 2.078 4.84 3.223 7.779 3.223h24.909l-.271 32.119c-9.864 0-17.888 8.025-17.888 17.889v22.374c0 9.864 8.024 17.888 17.888 17.888l.271 10.732c0 8.679 7.061 15.74 15.74 15.74h28.48l-19.516 77.756c-4.997.551-8.898 4.795-8.898 9.936v9.999h-45.657c-5.514 0-10 4.486-10 10v34.99c0 5.514 4.486 10 10 10h45.85c1.762 0 3.439-.467 4.9-1.291 1.451.821 3.123 1.296 4.906 1.296l85.154-.004c5.514 0 10-4.486 10-10v-34.99c0-5.514-4.486-10-10-10h-29.31v-9.999c0-5.514-4.486-10-10-10h-11.67l7.603-30.29h101.869l23.183 92.352c1.912 7.615 8.73 12.934 16.582 12.934 5.305 0 10.218-2.399 13.48-6.582s4.393-9.532 3.102-14.677l-27.739-110.503c-.673-2.679-3.388-4.303-6.067-3.632-2.678.672-4.304 3.389-3.632 6.067l27.739 110.503c.536 2.135.066 4.356-1.287 6.092-1.354 1.736-3.395 2.732-5.596 2.732-3.259 0-6.089-2.208-6.883-5.369l-34.47-137.318h53.427c8.68 0 15.74-7.061 15.74-15.74l.271-10.732c9.863 0 17.888-8.024 17.888-17.888v-22.374c-.001-9.867-8.026-17.892-17.889-17.892zm-99.711-196.133c0 .205-.166.371-.37.371h-37.411c-.204 0-.37-.166-.37-.371v-5.961c0-4.35 3.539-7.888 7.888-7.888h22.374c4.35 0 7.889 3.539 7.889 7.888zm-163.206 153.721-31.168-31.167c-.188-.188-.292-.439-.292-.707v-44.077c0-.267.104-.518.293-.707l31.167-31.168c.186-.186.443-.292.707-.292h44.077c.263 0 .521.106.707.293l31.168 31.167c.188.188.292.439.292.707v44.077c0 .267-.104.518-.293.707l-31.167 31.168c-.188.188-.439.292-.707.292h-44.077c-.267 0-.518-.103-.707-.293zm17.456 82.675v-22.374c0-4.35 3.539-7.889 7.888-7.889h5.242c.01 0 .019.003.029.003s.019-.003.029-.003h.661c.204 0 .37.166.37.37v37.411c0 .204-.166.37-.37.37h-5.961c-4.349 0-7.888-3.539-7.888-7.888zm-21.69 152.05 45.656-.021v35.013l-45.656-.001zm140.81 0v34.99h-29.31v-34.99zm-39.303 34.994h-45.851v-54.993h45.845zm-36.627-64.993 19.5-77.691h14.64l-19.501 77.691zm131.911-40.29h-96.848l9.388-37.401h78.072zm78.248-81.761c0 4.35-3.538 7.888-7.888 7.888h-5.962c-.204 0-.37-.166-.37-.37v-37.411c0-.204.166-.37.37-.37h.662c.01 0 .019.003.029.003s.019-.003.029-.003h5.241c4.35 0 7.888 3.539 7.888 7.889v22.374z" fill="#2626bc"/><g fill="#fff"><path d="m145.921 115.141c-.751-1.914-2.598-3.173-4.654-3.173h-.152c-2.056 0-3.903 1.259-4.654 3.173l-14.937 38.05c-1.009 2.57.257 5.472 2.827 6.481 2.569 1.007 5.472-.257 6.481-2.827l3.022-7.699h14.673l3.022 7.699c.773 1.97 2.66 3.174 4.656 3.174.607 0 1.226-.112 1.826-.347 2.57-1.009 3.836-3.911 2.827-6.481zm-8.141 24.005 3.411-8.689 3.411 8.689z"/><path d="m174.741 118.827h-1.859v-1.858c0-2.761-2.239-5-5-5s-5 2.239-5 5v1.858h-1.858c-2.761 0-5 2.239-5 5s2.239 5 5 5h1.858v1.859c0 2.761 2.239 5 5 5s5-2.239 5-5v-1.859h1.859c2.761 0 5-2.239 5-5s-2.239-5-5-5z"/></g></g></g></g><g><path d="m458.434 267.989c-1.031 0-2.062-.318-2.938-.955l-3.86-2.804-3.858 2.804c-1.754 1.273-4.126 1.273-5.878 0-1.753-1.273-2.486-3.53-1.816-5.59l1.474-4.537-3.859-2.804c-1.753-1.273-2.486-3.53-1.816-5.59.669-2.06 2.589-3.455 4.755-3.455h4.771l1.475-4.537c.669-2.06 2.589-3.455 4.755-3.455s4.086 1.395 4.755 3.455l1.476 4.538h4.77c2.166 0 4.086 1.395 4.755 3.455.67 2.06-.063 4.317-1.815 5.59l-3.859 2.804 1.474 4.537c.67 2.06-.063 4.317-1.815 5.59-.884.636-1.915.954-2.946.954z" fill="#01eca5"/></g><g><path d="m137.307 376.802c-1.031 0-2.062-.318-2.939-.955l-3.859-2.804-3.859 2.804c-1.752 1.273-4.125 1.273-5.878 0-1.752-1.273-2.486-3.53-1.816-5.59l1.474-4.538-3.859-2.804c-1.752-1.273-2.486-3.53-1.816-5.59s2.589-3.455 4.755-3.455h4.771l1.474-4.537c.669-2.06 2.589-3.455 4.755-3.455s4.086 1.395 4.755 3.455l1.474 4.537h4.771c2.166 0 4.086 1.395 4.755 3.455s-.064 4.317-1.816 5.59l-3.859 2.804 1.474 4.538c.669 2.06-.064 4.317-1.816 5.59-.878.636-1.91.955-2.941.955z" fill="#8399fe"/></g><g><path d="m424.642 215.333c-1.279 0-2.56-.488-3.535-1.464l-10.5-10.5c-1.953-1.953-1.953-5.119 0-7.071l10.5-10.5c1.951-1.952 5.119-1.952 7.07 0l10.5 10.5c1.953 1.953 1.953 5.119 0 7.071l-10.5 10.5c-.976.975-2.256 1.464-3.535 1.464zm-3.429-15.5 3.429 3.429 3.429-3.429-3.429-3.429z" fill="#8399fe"/></g><g><path d="m105.333 63.374c-1.28 0-2.559-.488-3.536-1.464l-10.5-10.5c-1.953-1.953-1.953-5.119 0-7.071l10.5-10.5c1.953-1.952 5.118-1.952 7.071 0l10.5 10.5c1.953 1.953 1.953 5.119 0 7.071l-10.5 10.5c-.976.975-2.255 1.464-3.535 1.464zm-3.429-15.5 3.429 3.429 3.429-3.429-3.429-3.429z" fill="#ff7eb8"/></g><g><path d="m415.912 413.311c-1.279 0-2.56-.488-3.535-1.464l-10.5-10.5c-1.953-1.953-1.953-5.119 0-7.071l10.5-10.5c1.951-1.952 5.119-1.952 7.07 0l10.5 10.5c1.953 1.953 1.953 5.119 0 7.071l-10.5 10.5c-.975.975-2.256 1.464-3.535 1.464zm-3.429-15.5 3.429 3.429 3.429-3.429-3.429-3.429z" fill="#ff7eb8"/></g></g></g></svg>