<svg id="Capa_1" enable-background="new 0 0 512 512" height="512" viewBox="0 0 512 512" width="512" xmlns="http://www.w3.org/2000/svg" xmlns:xlink="http://www.w3.org/1999/xlink"><linearGradient id="SVGID_1_" gradientUnits="userSpaceOnUse" x1="121.911" x2="457.155" y1="412.399" y2="77.156"><stop offset=".0485" stop-color="#ffdbed"/><stop offset=".9993" stop-color="#d2deff"/></linearGradient><g><g><path d="m499.921 416.962c-23.422-54.774-46.584-75.804-124.145-135.196-52.998-40.584-29.401-92.717-9.407-112.711 58.876-58.876 83.995-82.063 59.47-119.965-78.45-121.24-254.135 97.438-328.768-5.2-57.441-64.938-97.085 38.643-97.071 162.753.024 217.123 255.412 209.575 411.996 278.505 70.247 30.924 125.319 19.262 87.925-68.186z" fill="url(#SVGID_1_)"/></g><g><g><g><path d="m450.954 231.905-72.88-72.88 6.125-6.783c3.569-3.952 3.415-10.008-.351-13.773l-2.692-2.692c.553.553 1.251.941 2.013 1.118l7.595 1.763c4.235.983 8.671-.295 11.741-3.375 12.824-12.865 46.062-49.18 54.442-87.624.642-2.946-2.007-5.596-4.953-4.953-38.444 8.38-74.759 41.618-87.624 54.442-3.079 3.069-4.358 7.506-3.375 11.741l1.763 7.595c.177.762.564 1.46 1.118 2.013l-2.692-2.692c-3.765-3.765-9.821-3.92-13.773-.351l-7.117 6.426c-69.21-60.114-174.147-57.27-239.966 8.549l-.008.008c-67.177 67.177-68.75 175.101-4.744 244.202l-36.063 36.063c-8.129 8.129-8.129 21.309 0 29.437 8.129 8.129 21.308 8.129 29.437 0l35.961-35.961 76.884 76.884c16.436 16.436 43.084 16.436 59.52 0 13.031-13.031 16.005-32.993 7.487-49.336-19.339-37.104-13.43-83.943 17.725-115.099 9.099-9.099 19.543-16.028 30.687-20.819v38.348c0 1.591.632 3.117 1.757 4.243l31.167 31.167c1.125 1.125 2.651 1.757 4.243 1.757h44.077c1.591 0 3.117-.632 4.243-1.757l31.167-31.167c1.125-1.125 1.757-2.651 1.757-4.243v-32.971c5.636-2.048 10.886-5.319 15.329-9.762 16.436-16.434 16.436-43.082 0-59.518z" fill="#2626bc" opacity=".1"/><g><g><path d="m286.527 292.629c-31.155 31.155-37.064 77.995-17.725 115.099 8.518 16.343 5.545 36.304-7.487 49.336-16.436 16.436-43.084 16.436-59.52 0l-101.475-101.476c-68.801-68.801-68.801-180.35 0-249.151l.008-.008c68.801-68.801 180.35-68.801 249.151 0l101.476 101.476c16.436 16.436 16.436 43.084 0 59.52-13.032 13.032-32.993 16.005-49.336 7.487-37.105-19.339-83.943-13.431-115.092 17.717z" fill="#fff"/><path d="m347.411 115.454-67.241 60.72c-2.754 2.487-3.782 6.14-3.068 9.506l-18.352 18.352c-1.953 1.953-1.953 5.118 0 7.071l.179.179-151.458 151.457 29.437 29.437 151.458-151.458.185.185c1.953 1.953 5.118 1.953 7.071 0l18.352-18.352c3.366.714 7.019-.313 9.506-3.068l60.719-67.241c2.211-2.449 2.99-5.705 2.369-8.724l-30.434-30.434c-3.019-.62-6.275.159-8.723 2.37z" fill="#d2deff"/><g><g><g><circle cx="343.696" cy="182.605" fill="#6583fe" r="35.213"/></g><path d="m373.6 163.98-45.39 50.26c-3.4-1.67-6.58-3.91-9.41-6.74-13.76-13.75-13.76-36.04 0-49.79 13.75-13.76 36.04-13.76 49.8 0 1.94 1.94 3.6 4.04 5 6.27z" fill="#4369fd"/><g><circle cx="272.326" cy="123.426" fill="#8399fe" r="35.213"/><circle cx="272.326" cy="112.663" fill="#9fb0fe" r="13.624"/></g><g><circle cx="182.341" cy="127.556" fill="#02ffb3" r="35.213"/><circle cx="182.341" cy="116.793" fill="#97ffd2" r="13.624"/></g></g><g><g><circle cx="176.495" cy="349.806" fill="#ff5ba8" r="35.213"/><path d="m202.75 326.34-49.72 49.72c-.48-.43-.96-.88-1.43-1.35-13.76-13.76-13.76-36.05 0-49.8 13.75-13.76 36.04-13.76 49.79 0 .47.47.92.94 1.36 1.43z" fill="#fe2c8f"/></g><g><circle cx="117.316" cy="278.436" fill="#ff7eb8" r="35.213"/><circle cx="117.316" cy="267.673" fill="#ffa8cf" r="13.624"/></g><g><circle cx="121.446" cy="188.451" fill="#01eca5" r="35.213"/><circle cx="121.446" cy="177.687" fill="#02ffb3" r="13.624"/></g></g></g></g><g><g><g><path d="m59.513 416.141c-8.129-8.129-8.129-21.309 0-29.437l209.911-209.911 29.437 29.437-209.911 209.911c-8.129 8.129-21.308 8.129-29.437 0z" fill="#01eca5"/></g><path d="m250.99 184.422h38.84v41.63h-38.84z" fill="#00d890" transform="matrix(.707 -.707 .707 .707 -65.923 251.321)"/><path d="m288.551 216.904-29.801-29.801c-1.953-1.953-1.953-5.118 0-7.071l24.38-24.38 36.872 36.872-24.38 24.38c-1.953 1.952-5.119 1.952-7.071 0z" fill="#8399fe"/></g><path d="m323.48 195.484 60.719-67.241c3.569-3.952 3.415-10.008-.351-13.773l-22.665-22.665c-3.765-3.765-9.821-3.92-13.773-.351l-67.241 60.72c-4.247 3.835-4.416 10.446-.369 14.493l29.186 29.186c4.047 4.047 10.658 3.878 14.494-.369z" fill="#b7c5ff"/><path d="m297.258 136.743-10.055 9.08 42.628 42.628 9.079-10.055z" fill="#8399fe"/><g><path d="m451.994 18.706c-38.444 8.38-74.759 41.618-87.624 54.442-3.079 3.069-4.358 7.506-3.375 11.741l1.763 7.595c.177.762.564 1.46 1.118 2.013l8.64 8.64 8.64 8.64c.553.553 1.251.941 2.013 1.118l7.595 1.763c4.235.983 8.671-.295 11.741-3.375 12.824-12.865 46.062-49.18 54.442-87.624.643-2.946-2.007-5.595-4.953-4.953z" fill="#ffa8cf"/><path d="m420.558 52.101c-23.238 5.065-45.19 25.157-52.966 32.908-1.861 1.855-2.634 4.537-2.04 7.097l1.066 4.591c.107.461.341.882.676 1.217l5.223 5.223 5.223 5.223c.335.335.756.569 1.217.676l4.591 1.066c2.56.594 5.242-.178 7.097-2.04 7.752-7.776 27.843-29.728 32.908-52.966.387-1.781-1.214-3.383-2.995-2.995z" fill="#ff7eb8"/></g></g></g></g><g><g><path d="m398.458 228.914h-44.077c-1.591 0-3.117.632-4.243 1.757l-31.167 31.167c-1.125 1.125-1.757 2.651-1.757 4.243v44.077c0 1.591.632 3.117 1.757 4.243l31.167 31.167c1.125 1.125 2.651 1.757 4.243 1.757h44.077c1.591 0 3.117-.632 4.243-1.757l31.167-31.167c1.125-1.125 1.757-2.651 1.757-4.243v-44.077c0-1.591-.632-3.117-1.757-4.243l-31.167-31.167c-1.126-1.124-2.652-1.757-4.243-1.757z" fill="#ffa8cf"/></g><g><circle cx="376.42" cy="288.12" fill="#ff5ba8" r="45.126"/><path d="m468.28 237.67c0-12.586-4.899-24.411-13.795-33.295l-69.52-69.52 2.945-3.261c2.986-3.307 4.231-7.591 3.773-11.714.656.074 1.311.111 1.963.111 4.604 0 9.048-1.815 12.4-5.177 13.911-13.955 47.193-50.669 55.785-90.089.667-3.054-.261-6.203-2.479-8.422-2.22-2.221-5.37-3.148-8.423-2.481-39.42 8.592-76.134 41.875-90.09 55.786-3.839 3.827-5.655 9.076-5.062 14.364-4.124-.46-8.41.785-11.717 3.773l-3.863 3.489c-34.023-28.129-76.918-42.765-121.318-41.304-46.097 1.525-89.454 20.335-122.094 52.976-29.587 29.587-48.123 68.772-52.194 110.338-4.017 40.999 6.113 82.462 28.523 116.752.959 1.468 2.559 2.265 4.19 2.265.938 0 1.887-.264 2.73-.815 2.312-1.511 2.961-4.609 1.45-6.921-44.012-67.344-34.604-157.575 22.38-214.559 61.928-61.929 161.356-66.732 228.819-11.949l-55.865 50.446c-3.037 2.742-4.839 6.66-4.943 10.75-.005.202.013.403.016.604l-16.677 16.677c-2.687 2.687-3.521 6.534-2.505 9.942l-196.731 196.731c-4.876 4.876-7.562 11.359-7.562 18.254s2.686 13.378 7.562 18.254c5.032 5.033 11.644 7.549 18.254 7.549s13.222-2.516 18.254-7.549l32.425-32.425 73.353 73.343c8.891 8.896 20.715 13.795 33.293 13.795 12.577 0 24.403-4.899 33.299-13.794 8.87-8.87 13.755-20.684 13.755-33.266 0-7.604-1.86-15.182-5.377-21.911-18.942-36.348-12.178-80.253 16.833-109.254 6.594-6.595 14.026-12.081 22.147-16.404v30.397c0 2.94 1.145 5.703 3.223 7.778l31.167 31.167c2.077 2.078 4.84 3.222 7.777 3.222h44.077c2.938 0 5.7-1.144 7.777-3.222l31.168-31.167c2.078-2.078 3.222-4.84 3.222-7.778v-29.629c5.159-2.32 9.814-5.518 13.861-9.563 8.895-8.894 13.794-20.719 13.794-33.294zm-100.38-160.981c13.177-13.135 47.507-44.329 83.871-52.807-8.479 36.366-39.672 70.695-52.807 83.872-1.862 1.869-4.505 2.629-7.069 2.034l-7.368-1.71-16.951-16.95-1.711-7.369c-.594-2.564.166-5.207 2.035-7.07zm-84.379 79.196 67.242-60.72c.954-.862 2.152-1.29 3.35-1.29 1.281 0 2.562.491 3.536 1.466l22.664 22.664c1.884 1.884 1.961 4.909.176 6.887l-60.72 67.241c-.928 1.027-2.2 1.612-3.583 1.647-1.396.052-2.685-.484-3.664-1.463l-29.186-29.186c-.979-.979-1.498-2.28-1.463-3.663s.62-2.656 1.648-3.583zm-7.548 13.993c.1.106.189.221.293.325l29.186 29.186c.102.102.215.191.32.289l-13.686 13.686-29.8-29.799zm154.652 140.28c0 .264-.106.521-.292.707l-31.168 31.167c-.187.186-.444.293-.707.293h-44.077c-.263 0-.521-.107-.707-.293l-31.168-31.169c-.188-.188-.292-.438-.292-.706v-44.077c0-.267.104-.518.293-.707l31.168-31.168c.186-.186.443-.292.706-.292h44.077c.263 0 .521.106.707.293l31.167 31.166c.188.189.293.44.293.708zm10-40.913v-3.164c0-2.938-1.144-5.7-3.222-7.778l-31.167-31.166c-2.077-2.078-4.84-3.223-7.778-3.223h-44.077c-2.938 0-5.701 1.145-7.777 3.222l-31.167 31.167c-2.078 2.077-3.223 4.84-3.223 7.779v2.509c-10.843 5.08-20.668 11.952-29.219 20.503-15.878 15.874-25.98 35.974-29.215 58.129-3.126 21.412.634 43.722 10.588 62.823 2.775 5.31 4.242 11.287 4.242 17.284 0 9.911-3.845 19.213-10.825 26.194-7.007 7.007-16.322 10.866-26.229 10.866s-19.218-3.858-26.222-10.866l-73.354-73.344 141.356-141.356c1.953-1.953 1.953-5.119 0-7.071-1.951-1.952-5.119-1.952-7.07 0l-180.851 180.852c-6.168 6.167-16.199 6.167-22.367 0-2.986-2.987-4.632-6.958-4.632-11.183s1.646-8.196 4.632-11.183l195.885-195.885 26.073 26.073c1.888 1.898 4.402 2.943 7.079 2.943s5.191-1.045 7.07-2.935l16.665-16.665c.081.001.161.012.243.012.125 0 .251-.002.377-.005 4.09-.104 8.008-1.906 10.75-4.942l51.065-56.55 69.162 69.162c7.005 6.997 10.863 16.31 10.863 26.222 0 9.904-3.858 19.218-10.865 26.225-2.069 2.069-4.342 3.85-6.79 5.351z" fill="#2626bc"/><g fill="#fff"><path d="m371.881 265.268c-.751-1.914-2.598-3.173-4.654-3.173h-.152c-2.056 0-3.903 1.259-4.654 3.173l-14.937 38.05c-1.009 2.57.257 5.472 2.827 6.481 2.569 1.007 5.472-.257 6.481-2.827l3.022-7.699h14.673l3.022 7.699c.773 1.97 2.66 3.174 4.656 3.174.607 0 1.226-.112 1.826-.347 2.57-1.009 3.836-3.911 2.827-6.481zm-8.141 24.005 3.411-8.689 3.411 8.689z"/><path d="m400.701 268.954h-1.859v-1.858c0-2.761-2.239-5-5-5s-5 2.239-5 5v1.858h-1.858c-2.761 0-5 2.239-5 5s2.239 5 5 5h1.858v1.859c0 2.761 2.239 5 5 5s5-2.239 5-5v-1.859h1.859c2.761 0 5-2.239 5-5s-2.238-5-5-5z"/></g></g></g></g><g><path d="m440.556 154.861c-1.031 0-2.062-.318-2.939-.955-1.752-1.273-2.485-3.53-1.815-5.59l1.474-4.537-3.859-2.804c-1.752-1.273-2.485-3.53-1.815-5.59.669-2.06 2.589-3.455 4.755-3.455h4.771l1.475-4.537c.669-2.06 2.589-3.455 4.755-3.455s4.086 1.395 4.755 3.455l1.475 4.537h4.771c2.166 0 4.086 1.395 4.755 3.455.67 2.06-.063 4.317-1.816 5.59l-3.859 2.804 1.474 4.537c.67 2.06-.063 4.317-1.816 5.59-1.752 1.273-4.125 1.273-5.877 0l-3.859-2.804-3.86 2.804c-.883.636-1.914.955-2.945.955z" fill="#01eca5"/></g><g><path d="m300.507 391.521c-1.031 0-2.062-.318-2.939-.955-1.752-1.273-2.485-3.53-1.815-5.59l1.474-4.537-3.859-2.804c-1.752-1.273-2.485-3.53-1.815-5.59.669-2.06 2.589-3.455 4.755-3.455h4.771l1.475-4.537c.669-2.06 2.589-3.455 4.755-3.455s4.086 1.395 4.755 3.455l1.475 4.537h4.771c2.166 0 4.086 1.395 4.755 3.455.67 2.06-.063 4.317-1.816 5.59l-3.859 2.804 1.474 4.537c.67 2.06-.063 4.317-1.816 5.59-1.752 1.273-4.125 1.273-5.877 0l-3.859-2.804-3.86 2.804c-.883.637-1.914.955-2.945.955z" fill="#01eca5"/></g><g><path d="m146.07 55.963c-1.031 0-2.062-.318-2.939-.955l-3.858-2.804-3.86 2.804c-1.752 1.273-4.124 1.273-5.878 0-1.752-1.273-2.485-3.53-1.815-5.59l1.474-4.537-3.859-2.804c-1.752-1.273-2.485-3.53-1.815-5.59.669-2.06 2.589-3.455 4.755-3.455h4.771l1.475-4.537c.669-2.06 2.589-3.455 4.755-3.455s4.086 1.395 4.755 3.455l1.475 4.537h4.771c2.166 0 4.086 1.395 4.755 3.455.67 2.06-.063 4.317-1.816 5.59l-3.859 2.804 1.474 4.537c.67 2.06-.063 4.317-1.816 5.59-.882.637-1.913.955-2.945.955z" fill="#ff7eb8"/></g><g><path d="m45.942 362.826c-1.279 0-2.56-.488-3.535-1.464l-10.5-10.5c-1.953-1.953-1.953-5.119 0-7.071l10.5-10.5c1.951-1.952 5.119-1.952 7.07 0l10.5 10.5c1.953 1.953 1.953 5.119 0 7.071l-10.5 10.5c-.975.975-2.255 1.464-3.535 1.464zm-3.428-15.5 3.429 3.429 3.429-3.429-3.429-3.429z" fill="#8399fe"/></g><g><path d="m354.9 418.176c-1.279 0-2.56-.488-3.535-1.464l-10.5-10.5c-1.953-1.953-1.953-5.119 0-7.071l10.5-10.5c1.951-1.952 5.119-1.952 7.07 0l10.5 10.5c1.953 1.953 1.953 5.119 0 7.071l-10.5 10.5c-.975.976-2.255 1.464-3.535 1.464zm-3.428-15.5 3.429 3.429 3.429-3.429-3.429-3.429z" fill="#ff7eb8"/></g></g></g></svg>