<svg id="Capa_1" enable-background="new 0 0 512 512" height="512" viewBox="0 0 512 512" width="512" xmlns="http://www.w3.org/2000/svg" xmlns:xlink="http://www.w3.org/1999/xlink"><linearGradient id="SVGID_1_" gradientUnits="userSpaceOnUse" x1="141.121" x2="514.929" y1="486.209" y2="112.402"><stop offset=".0485" stop-color="#d2deff"/><stop offset=".9993" stop-color="#dcfdee"/></linearGradient><g><g><path d="m500.232 408.626c-22.727-30.158-64.915-53.759-64.561-95.661.185-21.915 13.118-41.294 22.546-61.079 31.104-65.266 38.868-163.195-17.178-213.121-22.628-20.158-72.025-27.587-101.049-19.692-75.041 20.413-16.158 70.286-30.04 104.178-45.058 110-292.932 92.458-308.846 174.437-9.376 48.302 40.633 137.822 163.722 81.126 91.981-42.367 187.226 147.747 291.785 112.924 41.212-13.726 73.762-43.115 43.621-83.112z" fill="url(#SVGID_1_)"/></g><g><g><g fill="#2626bc"><path d="m353.515 220.735c-1.834-.239-3.552.566-4.603 1.94-2.517-6.628-6.061-12.537-10.127-17.932 4.548-.667 8.926-1.386 13.064-2.169 18.626-3.522 43.389-9.723 43.389-22.86 0-6.652-6.227-12.094-19.037-16.637-9.963-3.533-24.186-6.611-41.192-8.927-4.724-6.987-20.467-10.016-34.48-11.885-.286-.038-.567-.037-.845-.026 1.25-3.122 3.171-6.407 5.911-9.913 13.805-17.657 16.942-31.893 17.494-39.466h8.83c2.761 0 5-2.239 5-5v-12.588c0-2.761-2.239-5-5-5h-151.839c-2.761 0-5 2.239-5 5v12.588c0 2.761 2.239 5 5 5h8.83c.553 7.573 3.69 21.809 17.494 39.466 2.719 3.477 4.63 6.739 5.882 9.838-.022.003-.042-.001-.064.002-23.893 3.107-32.411 7.753-35.284 11.991-16.983 2.315-31.186 5.391-41.139 8.92-12.81 4.542-19.037 9.984-19.037 16.637 0 13.137 24.763 19.338 43.389 22.86 4.138.782 8.516 1.502 13.064 2.169-4.066 5.395-7.61 11.303-10.127 17.932-1.05-1.373-2.767-2.178-4.603-1.939-51.018 6.634-76.885 17.011-76.885 30.842 0 11.588 17.566 20.493 53.701 27.223 10.552 1.965 22.24 3.639 34.776 5.006 18.43 30.399 53.67 42.75 53.67 42.75h-105.276c-6.16 0-11.154 4.994-11.154 11.154v13.531c0 3.08 2.497 5.577 5.577 5.577h37.115c-2.761 0-5 2.239-5 5v20.261c0 2.761 2.239 5 5 5h67.991c-.142 1.34-.219 2.7-.219 4.078 0 14.551 8.133 27.2 20.099 33.657v63.917c0 2.761 2.239 5 5 5h26.24c2.761 0 5-2.239 5-5v-63.917c11.967-6.456 20.099-19.106 20.099-33.657 0-1.378-.077-2.738-.219-4.078h67.99c2.761 0 5-2.239 5-5v-20.261c0-2.761-2.239-5-5-5h37.115c3.08 0 5.577-2.497 5.577-5.577v-13.53c0-6.16-4.994-11.154-11.154-11.154h-105.275s35.24-12.352 53.67-42.75c12.536-1.367 24.224-3.041 34.776-5.006 36.135-6.729 53.701-15.634 53.701-27.223 0-13.833-25.867-24.21-76.885-30.844zm-19.226-56.59c41.258 5.681 50.703 13.705 50.949 15.559-.009.067-2.403 6.979-36.348 13.249-5.526 1.021-11.467 1.933-17.718 2.746-7.491-8.1-15.577-15.122-21.911-22.027.328-.059.666-.115.99-.176 12.794-2.382 20.572-5.37 24.038-9.351zm-8.934-5.469c-3.126 1.838-10.902 4.178-23.145 6.013-2.581-4.129-4.18-8.365-4.328-12.904.416.181.852.328 1.325.391 15.829 2.112 23.301 4.864 26.148 6.5zm-111.843-6.594c.207-.027.4-.089.598-.14-.18 4.479-1.769 8.666-4.32 12.748-12.244-1.836-20.021-4.176-23.146-6.014 2.893-1.664 10.553-4.472 26.868-6.594zm-50.402 40.872c-33.945-6.27-36.339-13.182-36.348-13.231.246-1.872 9.691-9.896 50.949-15.577 3.465 3.981 11.244 6.969 24.039 9.351.323.06.661.117.99.176-6.333 6.905-14.42 13.927-21.911 22.027-6.252-.813-12.193-1.726-17.719-2.746zm-25.979 76.014c-44.293-8.248-45.531-17.302-45.531-17.391 0-3.129 12.525-13.688 68.174-20.925.33-.043.647-.12.952-.222-1.018 4.376-1.596 9.04-1.596 14.054 0 10.718 2.109 20.233 5.553 28.64-9.835-1.189-19.072-2.577-27.552-4.156zm237.738 0c-8.479 1.579-17.717 2.966-27.551 4.154 1.735-4.235 3.129-8.751 4.085-13.561 9.607-1.78 17.835-3.828 24.37-6.095 2.609-.905 3.99-3.754 3.085-6.363-.905-2.608-3.753-3.989-6.362-3.085-5.379 1.866-12.038 3.581-19.769 5.115.089-1.526.144-3.073.144-4.65 0-5.014-.578-9.678-1.596-14.054.304.102.621.18.952.222 55.649 7.237 68.174 17.796 68.174 20.925-.001.09-1.239 9.144-45.532 17.392z" opacity=".1"/><path d="m131.609 299.975c2.546 0 4.723-1.936 4.971-4.522.264-2.749-1.75-5.191-4.499-5.456-24.593-2.365-40.449-9.44-49.421-14.96-9.585-5.897-13.555-11.314-13.652-11.449-1.58-2.249-4.682-2.801-6.941-1.232-2.269 1.574-2.832 4.689-1.257 6.958.725 1.044 18.348 25.64 70.314 30.637.164.016.325.024.485.024z" opacity=".1"/><path d="m451.189 233.838c-.725-1.044-18.348-25.64-70.314-30.636-2.746-.263-5.191 1.75-5.456 4.499s1.75 5.191 4.499 5.456c24.593 2.365 40.449 9.44 49.421 14.959 9.57 5.888 13.542 11.297 13.651 11.448.972 1.384 2.521 2.126 4.095 2.126.983 0 1.977-.29 2.846-.893 2.269-1.575 2.832-4.69 1.258-6.959z" opacity=".1"/></g><g><g><g><path d="m237.88 384.07h36.24v85.66h-36.24z" fill="#b7c5ff"/><path d="m274.12 384.07v40.74c-5.39 2.92-11.56 4.57-18.12 4.57s-12.73-1.65-18.12-4.57v-40.74z" fill="#9fb0fe"/><g><circle cx="256" cy="367.156" fill="#ff7eb8" r="38.219"/><path d="m294.22 367.16c0 7.3-2.05 14.12-5.6 19.92h-65.24c-3.55-5.8-5.6-12.62-5.6-19.92 0-21.11 17.11-38.22 38.22-38.22s38.22 17.11 38.22 38.22z" fill="#ff5ba8"/></g><g><path d="m361.99 363.078h-211.98c-2.761 0-5-2.239-5-5v-20.261c0-2.761 2.239-5 5-5h211.98c2.761 0 5 2.239 5 5v20.261c0 2.761-2.238 5-5 5z" fill="#4369fd"/><g><path d="m399.106 332.817h-286.212c-3.08 0-5.577-2.497-5.577-5.577v-13.53c0-6.16 4.994-11.154 11.154-11.154h275.058c6.16 0 11.154 4.994 11.154 11.154v13.53c0 3.08-2.497 5.577-5.577 5.577z" fill="#6583fe"/><path d="m142.34 302.556h227.32v30.261h-227.32z" fill="#8399fe"/></g></g></g></g><g><path d="m305.595 108.326c20.778-26.577 17.396-45.423 17.396-45.423h-133.982s-3.383 18.846 17.396 45.423c32.359 41.39-47.275 52.721-47.275 112.157s64.617 82.073 64.617 82.073h64.506s64.617-22.637 64.617-82.073-79.634-70.768-47.275-112.157z" fill="#02ffb3"/><g fill="#01eca5"><path d="m256 278.12c26.19 0 51.45-1.1 74.24-3.19-4.02 4.19-8.25 7.86-12.43 11.04l-.01.01c-19.45 1.4-40.32 2.14-61.8 2.14s-42.35-.74-61.8-2.14l-.01-.01c-4.18-3.18-8.41-6.85-12.43-11.04 22.79 2.09 48.05 3.19 74.24 3.19z"/><path d="m346.62 193.36c-24.65 4.35-56.7 6.73-90.62 6.73s-65.97-2.38-90.62-6.73c-1.46 3-2.72 6.16-3.72 9.49 25.47 4.67 58.88 7.24 94.34 7.24s68.87-2.57 94.34-7.24c-1-3.33-2.26-6.49-3.72-9.49zm-26.3-32.59c-10.12 3.28-31.77 6.93-64.32 6.93s-54.21-3.65-64.33-6.93c-2.56 2.48-5.17 5.02-7.75 7.67 4.22 1.96 10.11 3.62 17.83 5.06 14.54 2.7 33.81 4.2 54.25 4.2s39.71-1.5 54.25-4.2c7.72-1.44 13.61-3.1 17.83-5.06-2.58-2.65-5.2-5.2-7.76-7.67z"/><path d="m346.87 250.23c-1.69 3.94-3.68 7.63-5.88 11.08-6.04.91-12.51 1.72-19.36 2.43-.18.02-.35.03-.52.03-2.53 0-4.7-1.91-4.97-4.48-.29-2.75 1.71-5.21 4.46-5.49 9.59-1 18.4-2.2 26.27-3.57z"/></g><g><path d="m315.66 92.86h-119.32c-9.45-18.13-7.33-29.96-7.33-29.96h133.98s2.12 11.83-7.33 29.96z" fill="#01eca5"/></g><g><path d="m331.92 68.86h-151.84c-2.761 0-5-2.239-5-5v-12.588c0-2.761 2.239-5 5-5h151.84c2.761 0 5 2.239 5 5v12.588c0 2.761-2.239 5-5 5z" fill="#dcfdee"/></g></g><g fill="#2626bc"><path d="m237.879 422.429c-2.762 0-5 2.239-5 5v42.299c0 2.761 2.238 5 5 5s5-2.239 5-5v-42.299c0-2.762-2.238-5-5-5z"/><path d="m353.516 196.735c-.001 0-.003 0-.004 0-2.371-6.178-5.557-11.751-9.181-16.851 2.57-.419 5.094-.852 7.519-1.31 38.89-7.354 43.388-16.568 43.388-22.86 0-6.652-6.227-12.094-19.036-16.637-9.939-3.525-24.116-6.596-41.067-8.91-2.618-4.026-10.152-8.206-30.326-11.286 1.095-2.345 2.654-4.814 4.73-7.47 11.932-15.26 16.461-28.271 17.982-37.55h4.399c5.514 0 10-4.486 10-10v-12.589c0-5.514-4.486-10-10-10h-151.84c-5.514 0-10 4.486-10 10v12.588c0 5.514 4.486 10 10 10h4.399c1.522 9.279 6.05 22.29 17.982 37.55 2.077 2.656 3.635 5.125 4.73 7.47-20.075 3.078-27.594 7.351-30.254 11.276-16.982 2.315-31.186 5.391-41.139 8.92-12.81 4.542-19.036 9.984-19.036 16.637 0 6.292 4.498 15.507 43.388 22.86 2.426.459 4.949.891 7.519 1.31-3.624 5.1-6.81 10.673-9.181 16.851-.001 0-.003 0-.004 0-51.017 6.634-76.885 17.011-76.885 30.842 0 16.759 38.34 26.369 82.319 31.487 5.716 10.501 13.884 20.132 24.373 28.632 4.831 3.915 9.646 7.182 14.067 9.861h-83.888c-8.907 0-16.153 7.247-16.153 16.154v13.53c0 5.833 4.744 10.577 10.576 10.577h27.116v20.261c0 5.514 4.486 10 10 10h62.794c.492 23.408 19.673 42.302 43.196 42.302 4.573 0 8.98-.72 13.121-2.042v61.391c0 2.761 2.238 5 5 5s5-2.239 5-5v-66.081c11.826-7.521 19.761-20.62 20.075-35.569h62.794c5.514 0 10-4.486 10-10v-20.261h27.116c5.832 0 10.576-4.745 10.576-10.577v-13.53c0-8.907-7.246-16.154-16.153-16.154h-83.888c4.421-2.678 9.235-5.946 14.067-9.861 10.49-8.5 18.657-18.13 24.373-28.632 43.979-5.118 82.319-14.728 82.319-31.487.001-13.831-25.867-24.208-76.883-30.842zm31.721-41.03c-.009.067-2.402 6.979-36.347 13.249-3.733.69-7.667 1.327-11.741 1.922-4.651-5.281-9.564-10.042-14.148-14.478-2.908-2.815-5.566-5.42-7.932-7.88 9.96-2.212 16.212-4.918 19.219-8.372 41.259 5.68 50.704 13.704 50.949 15.559zm-176.707-5.088c13.511 1.993 30.057 3.079 47.47 3.079s33.96-1.085 47.47-3.079c3.788 4.453 8.198 8.73 12.577 12.967 2.956 2.861 5.989 5.799 8.954 8.872-20.587 2.367-44.292 3.639-69.001 3.639s-48.414-1.272-69.001-3.639c2.965-3.073 5.998-6.011 8.954-8.872 4.378-4.238 8.789-8.514 12.577-12.967zm99.096-10.819c-2.694-3.791-4.344-7.381-4.72-11.09 13.302 2.024 19.836 4.466 22.449 5.968-2.637 1.552-8.582 3.46-17.729 5.122zm-112.968-65.938h22.093c2.762 0 5-2.239 5-5s-2.238-5-5-5h-36.671v-12.588h151.84v12.588h-86.359c-2.762 0-5 2.239-5 5s2.238 5 5 5h71.781c-1.487 7.305-5.449 18.303-15.682 31.391-11.168 14.286-10.479 25.863-4.74 36.164-10.803 1.346-24.465 2.281-40.92 2.281s-30.117-.934-40.92-2.281c5.739-10.301 6.428-21.879-4.741-36.165-10.233-13.087-14.194-24.086-15.681-31.39zm14.436 54.848c-.375 3.708-2.025 7.298-4.719 11.089-9.149-1.662-15.094-3.571-17.732-5.122 2.617-1.504 9.158-3.944 22.451-5.967zm-45.985 40.246c-33.944-6.27-36.338-13.182-36.347-13.231.246-1.872 9.69-9.896 50.948-15.577 3.007 3.454 9.259 6.16 19.219 8.372-2.365 2.46-5.023 5.065-7.932 7.88-4.584 4.436-9.496 9.197-14.148 14.478-4.073-.596-8.006-1.233-11.74-1.922zm15.831 12.584c22.506 2.958 49.142 4.556 77.06 4.556s54.554-1.598 77.06-4.556c8.403 10.507 14.81 22.879 14.81 38.942 0 1.89-.076 3.757-.213 5.606-8.066 1.433-17.138 2.682-27.06 3.711-2.747.285-4.742 2.742-4.458 5.489.267 2.571 2.438 4.484 4.968 4.484.172 0 .347-.009.521-.027 8.82-.915 17.013-2.007 24.481-3.25-1.036 4.575-2.532 9.006-4.482 13.288-25.632 2.831-54.992 4.342-85.627 4.342s-59.996-1.511-85.627-4.342c-4.148-9.11-6.243-18.893-6.243-29.301 0-16.063 6.407-28.435 14.81-38.942zm-41.809 63.43c-37.352-6.956-45.531-14.912-45.531-17.391 0-3.046 11.873-13.131 63.83-20.34-.836 4.158-1.299 8.561-1.299 13.244 0 9.728 1.672 19.084 4.947 27.937-7.754-1.023-15.097-2.174-21.947-3.45zm118.869 155.412c-18.01 0-32.707-14.408-33.196-32.302h66.393c-.49 17.894-15.187 32.302-33.197 32.302zm105.99-42.302h-211.98v-20.261h211.98zm37.693-44.369v13.53c0 .318-.259.577-.576.577h-286.213c-.317 0-.576-.259-.576-.577v-13.53c0-3.393 2.761-6.154 6.153-6.154h275.059c3.392.001 6.153 2.761 6.153 6.154zm-82.037-33.974c-13.378 10.902-26.979 16.539-30.29 17.82h-62.712c-3.318-1.284-16.916-6.921-30.291-17.82-7.338-5.98-13.346-12.443-18.023-19.358 28.271 2.719 57.576 3.746 79.67 3.746s51.399-1.027 79.67-3.746c-4.677 6.915-10.686 13.378-18.024 19.358zm57.223-34.767c-6.85 1.276-14.193 2.427-21.946 3.449 1.666-4.504 2.915-9.138 3.742-13.885 7.371-1.527 13.799-3.224 19.108-5.065 2.608-.905 3.99-3.754 3.085-6.363-.905-2.608-3.753-3.99-6.362-3.085-4.167 1.445-9.109 2.799-14.711 4.05.051-1.191.085-2.386.085-3.588 0-4.682-.463-9.086-1.299-13.244 51.956 7.209 63.83 17.295 63.83 20.34-.001 2.479-8.18 10.435-45.532 17.391z"/><path d="m131.609 275.975c2.546 0 4.723-1.936 4.971-4.522.265-2.749-1.749-5.191-4.498-5.456-46.781-4.499-62.812-26.049-63.072-26.408-1.578-2.249-4.679-2.803-6.941-1.233-2.269 1.574-2.832 4.689-1.258 6.958.726 1.044 18.35 25.64 70.314 30.637.163.016.324.024.484.024z"/><path d="m451.189 209.838c-.726-1.044-18.35-25.64-70.314-30.636-2.751-.263-5.191 1.75-5.455 4.499-.265 2.749 1.749 5.191 4.498 5.456 46.811 4.501 62.832 26.076 63.072 26.408.973 1.383 2.521 2.125 4.096 2.125.982 0 1.977-.29 2.846-.893 2.268-1.575 2.832-4.69 1.257-6.959z"/></g></g></g><g><path d="m404.85 108.322c-1.031 0-2.062-.318-2.938-.955l-3.86-2.804-3.858 2.804c-1.754 1.273-4.126 1.273-5.878 0-1.753-1.273-2.486-3.53-1.816-5.59l1.474-4.537-3.859-2.805c-1.753-1.273-2.486-3.53-1.816-5.59.669-2.06 2.589-3.455 4.755-3.455h4.771l1.475-4.537c.669-2.06 2.589-3.455 4.755-3.455s4.086 1.395 4.755 3.455l1.475 4.537h4.771c2.166 0 4.086 1.395 4.755 3.455.67 2.06-.063 4.317-1.815 5.59l-3.859 2.804 1.474 4.538c.67 2.06-.063 4.317-1.816 5.59-.883.636-1.914.955-2.945.955z" fill="#ff7eb8"/></g><g><path d="m343.719 442.362c-1.031 0-2.062-.318-2.938-.955l-3.86-2.804-3.858 2.804c-1.754 1.273-4.126 1.273-5.878 0-1.753-1.273-2.486-3.53-1.816-5.59l1.474-4.537-3.859-2.805c-1.753-1.273-2.486-3.53-1.816-5.59.669-2.06 2.589-3.455 4.755-3.455h4.771l1.475-4.537c.669-2.06 2.589-3.455 4.755-3.455s4.086 1.395 4.755 3.455l1.475 4.537h4.771c2.166 0 4.086 1.395 4.755 3.455.67 2.06-.063 4.317-1.815 5.59l-3.865 2.804 1.474 4.538c.67 2.06-.063 4.317-1.816 5.59-.877.636-1.908.955-2.939.955z" fill="#ff7eb8"/></g><g><path d="m440.283 152.205c-1.031 0-2.062-.318-2.938-.955-1.753-1.273-2.486-3.53-1.816-5.59l1.474-4.537-3.859-2.805c-1.753-1.273-2.486-3.53-1.816-5.59.669-2.06 2.589-3.455 4.755-3.455h4.771l1.475-4.537c.669-2.06 2.589-3.455 4.755-3.455s4.086 1.395 4.755 3.455l1.475 4.537h4.771c2.166 0 4.086 1.395 4.755 3.455.67 2.06-.063 4.317-1.815 5.59l-3.859 2.804 1.474 4.538c.67 2.06-.063 4.317-1.816 5.59-1.752 1.273-4.125 1.273-5.877 0l-3.86-2.804-3.858 2.804c-.883.637-1.915.955-2.946.955z" fill="#8399fe"/></g><g><path d="m137.099 431.938c-1.279 0-2.56-.488-3.535-1.464l-10.5-10.5c-1.953-1.953-1.953-5.119 0-7.071l10.5-10.5c1.951-1.952 5.119-1.952 7.07 0l10.5 10.5c1.953 1.953 1.953 5.119 0 7.071l-10.5 10.5c-.976.976-2.256 1.464-3.535 1.464zm-3.429-15.5 3.429 3.429 3.429-3.429-3.429-3.429z" fill="#ff7eb8"/></g><g><path d="m107.317 114.539c-1.279 0-2.56-.488-3.535-1.464l-10.5-10.5c-1.953-1.953-1.953-5.119 0-7.071l10.5-10.5c1.951-1.952 5.119-1.952 7.07 0l10.5 10.5c1.953 1.953 1.953 5.119 0 7.071l-10.5 10.5c-.975.975-2.255 1.464-3.535 1.464zm-3.428-15.5 3.429 3.429 3.429-3.429-3.429-3.429z" fill="#01eca5"/></g></g></g></svg>