<svg id="Capa_1" enable-background="new 0 0 512 512" height="512" viewBox="0 0 512 512" width="512" xmlns="http://www.w3.org/2000/svg" xmlns:xlink="http://www.w3.org/1999/xlink"><linearGradient id="SVGID_1_" gradientUnits="userSpaceOnUse" x1="121.911" x2="457.155" y1="412.399" y2="77.156"><stop offset=".0485" stop-color="#d2deff"/><stop offset=".9993" stop-color="#dcfdee"/></linearGradient><g><g><path d="m499.921 416.962c-23.422-54.774-46.584-75.804-124.145-135.196-52.998-40.584-29.401-92.717-9.407-112.711 58.876-58.876 83.995-82.063 59.47-119.965-78.45-121.24-254.135 97.438-328.768-5.2-57.441-64.938-97.085 38.643-97.071 162.753.024 217.123 255.412 209.575 411.996 278.505 70.247 30.924 125.319 19.262 87.925-68.186z" fill="url(#SVGID_1_)"/></g><g><g><path d="m457.971 39.914-92.757 28.673c-1.825.564-3.069 2.251-3.069 4.161v19.022h-290.408c-5.523 0-10 4.477-10 10l.003 260.47c0 5.53 4.47 10 10 10h25.451c-7.213 5.919-10.92 14.049-8.923 21.696 3.082 11.807 18.581 17.984 34.616 13.797 14.325-3.74 24.224-14.485 23.978-25.152l.002-10.342h49.584v29.546c0 5.523 4.477 10 10 10h17.632v72.274c0 2.761 2.239 5 5 5h54.27c2.761 0 5-2.239 5-5v-72.274h17.639c5.523 0 10-4.477 10-10v-29.545h124.711c5.52 0 10-4.47 10-10v-185.474c8.081-5.117 13.076-12.769 12.9-20.382l.013.003v-112.311c0-2.933-2.84-5.028-5.642-4.162z" fill="#2626bc" opacity=".1"/><g><path d="m450.7 77.77v251.29h-388.96v-251.29c0-5.52 4.47-10 10-10h368.96c5.52 0 10 4.48 10 10z" fill="#ff5ba8"/><path d="m450.7 77.77v98.99c-3.24 2.06-6.98 3.71-11.08 4.78-16.03 4.18-31.53-1.99-34.61-13.8-3.09-11.81 7.41-24.77 23.45-28.96 5.88-1.54 11.69-1.67 16.84-.65v-45.31l-64.84 20.04v66.33h-.02c.25 10.67-9.65 21.41-23.98 25.15-16.03 4.19-31.53-1.99-34.61-13.8-3.08-11.8 7.42-24.77 23.45-28.95 5.89-1.54 11.69-1.68 16.84-.66v-88.18c0-1.91 1.25-3.6 3.07-4.16l2.65-.82h72.84c5.52 0 10 4.48 10 10z" fill="#fe2c8f"/><g><g><g><path d="m256.218 315.76c26.437-9.411 54.766-14.531 84.244-14.531 27.055 0 53.143 4.313 77.689 12.299 3.236 1.053 6.555-1.341 6.555-4.743v-161.165c0-4.322-2.769-8.177-6.881-9.508-24.45-7.918-50.427-12.193-77.363-12.193-29.478 0-57.807 5.12-84.244 14.531z" fill="#9fb0fe"/><path d="m87.73 308.784c0 3.403 3.319 5.796 6.555 4.743 24.545-7.986 50.633-12.299 77.689-12.299 29.478 0 57.807 5.12 84.244 14.531v-175.309c-26.437-9.411-54.766-14.531-84.244-14.531-26.936 0-52.913 4.275-77.363 12.193-4.112 1.332-6.881 5.186-6.881 9.508z" fill="#9fb0fe"/><g><path d="m199.02 261.05v31.88c0 1.91-1.25 3.59-3.07 4.16l-14.03 4.34c-3.3-.13-6.62-.2-9.95-.2-14.79 0-29.29 1.29-43.41 3.76v-24.85c0-1.91 1.25-3.6 3.07-4.16l61.75-19.09c2.8-.86 5.64 1.23 5.64 4.16z" fill="#8399fe"/></g></g></g><g><g><g fill="#b7c5ff"><path d="m256.218 286.069c26.437-9.411 54.766-14.531 84.244-14.531 27.055 0 53.143 4.313 77.689 12.299 3.236 1.053 6.555-1.341 6.555-4.743v-161.165c0-4.322-2.769-8.177-6.881-9.508-24.45-7.918-50.427-12.193-77.363-12.193-29.478 0-57.807 5.12-84.244 14.531z"/><path d="m406.1 104.94-25.64 7.92v66.33h-.02c.25 10.67-9.65 21.41-23.98 25.15-16.03 4.19-31.53-1.99-34.61-13.8-3.08-11.8 7.42-24.77 23.45-28.95 5.89-1.54 11.69-1.68 16.84-.66v-63.77c15.05 1.29 29.73 3.92 43.96 7.78z"/><path d="m424.71 139.95v42.56c-9.81-1.34-17.61-6.76-19.7-14.77-2.84-10.86 5.81-22.7 19.7-27.79z"/></g><path d="m87.73 279.093c0 3.403 3.319 5.796 6.555 4.743 24.545-7.986 50.633-12.299 77.689-12.299 29.478 0 57.807 5.12 84.244 14.531v-175.31c-26.437-9.411-54.766-14.531-84.244-14.531-26.936 0-52.913 4.275-77.363 12.193-4.112 1.332-6.881 5.186-6.881 9.508z" fill="#d2deff"/></g></g></g></g><path d="m224.08 373.75h64.27v91.31h-64.27z" fill="#02ffb3"/><path d="m224.08 373.75h64.27v38.04h-64.27z" fill="#01eca5"/><path d="m305.989 387.786h-99.541c-5.523 0-10-4.477-10-10v-35.543h119.541v35.543c0 5.523-4.477 10-10 10z" fill="#97ffd2"/><g><path d="m450.7 309.87v28.37c0 5.53-4.48 10-10 10h-368.96c-5.53 0-10-4.47-10-10v-28.37c0-5.52 4.47-10 10-10h368.96c5.52 0 10 4.48 10 10z" fill="#ff7eb8"/><g><path d="m186.96 299.87-40.08 12.39-.01 35.98h-18.31v-48.37z" fill="#ff5ba8"/></g></g><g fill="#fe2c8f"><circle cx="102.577" cy="324.059" r="5"/><circle cx="163.946" cy="324.059" r="5"/><circle cx="225.315" cy="324.059" r="5"/><circle cx="286.685" cy="324.059" r="5"/><circle cx="348.053" cy="324.059" r="5"/><circle cx="409.423" cy="324.059" r="5"/></g><g><g><g><g><path d="m391.736 152.323h-107.413c-2.761 0-5-2.238-5-5s2.239-5 5-5h107.413c2.761 0 5 2.238 5 5s-2.238 5-5 5z" fill="#6583fe"/></g><g><path d="m396.74 169.05c0 2.77-2.24 5-5 5h-107.42c-2.76 0-5-2.23-5-5 0-2.76 2.24-5 5-5h107.42c2.76 0 5 2.24 5 5z" fill="#6583fe"/></g><path d="m380.46 164.05v10h-54.71c3-4.01 7.37-7.52 12.7-10z" fill="#4369fd"/><g><path d="m396.74 190.79c0 2.76-2.24 5-5 5h-107.42c-2.76 0-5-2.24-5-5 0-2.77 2.24-5 5-5h107.42c2.76 0 5 2.23 5 5z" fill="#6583fe"/></g><path d="m379.32 185.79c-1.28 3.6-3.65 7.03-6.85 10h-48.21c-1.09-1.59-1.91-3.35-2.41-5.25-.41-1.57-.58-3.16-.52-4.75z" fill="#4369fd"/><g><path d="m391.736 217.518h-107.413c-2.761 0-5-2.238-5-5s2.239-5 5-5h107.413c2.761 0 5 2.238 5 5s-2.238 5-5 5z" fill="#6583fe"/></g></g><g><path d="m391.736 239.249h-107.413c-2.761 0-5-2.238-5-5s2.239-5 5-5h107.413c2.761 0 5 2.238 5 5s-2.238 5-5 5z" fill="#8399fe"/></g></g><g><g><g><path d="m227.677 152.323h-107.413c-2.761 0-5-2.238-5-5s2.239-5 5-5h107.413c2.761 0 5 2.238 5 5s-2.239 5-5 5z" fill="#8399fe"/></g><g><path d="m227.677 174.055h-107.413c-2.761 0-5-2.238-5-5s2.239-5 5-5h107.413c2.761 0 5 2.238 5 5s-2.239 5-5 5z" fill="#8399fe"/></g><g><path d="m227.677 195.786h-107.413c-2.761 0-5-2.238-5-5s2.239-5 5-5h107.413c2.761 0 5 2.238 5 5s-2.239 5-5 5z" fill="#8399fe"/></g><g><path d="m227.677 217.518h-107.413c-2.761 0-5-2.238-5-5s2.239-5 5-5h107.413c2.761 0 5 2.238 5 5s-2.239 5-5 5z" fill="#8399fe"/></g></g><g><path d="m227.677 239.249h-107.413c-2.761 0-5-2.238-5-5s2.239-5 5-5h107.413c2.761 0 5 2.238 5 5s-2.239 5-5 5z" fill="#8399fe"/></g></g></g><path d="m362.145 56.749v80.185c-5.152-1.02-10.96-.884-16.843.652-16.036 4.186-26.537 17.151-23.454 28.958 3.082 11.807 18.581 17.984 34.616 13.797 14.325-3.74 24.224-14.485 23.978-25.152l.014.003v-66.328l64.847-20.046v45.31c-5.152-1.02-10.96-.884-16.843.652-16.036 4.186-26.537 17.151-23.454 28.958 3.082 11.807 18.581 17.984 34.616 13.797 14.325-3.74 24.224-14.485 23.978-25.152l.013.003v-104.31c0-2.933-2.84-5.027-5.642-4.161l-92.757 28.673c-1.825.564-3.069 2.251-3.069 4.161z" fill="#01eca5"/><g><path d="m193.376 232.894-61.742 19.086c-1.825.564-3.069 2.251-3.069 4.161v84.185c-5.152-1.02-10.96-.884-16.843.652-16.036 4.186-26.536 17.151-23.454 28.958s18.581 17.984 34.616 13.797c14.325-3.74 24.224-14.485 23.978-25.152l.014-70.326 49.073-15.17c1.825-.564 3.069-2.251 3.069-4.161v-31.87c0-2.932-2.84-5.026-5.642-4.16z" fill="#01eca5"/><g fill="#2626bc"><path d="m224.083 412.871c-2.761 0-5 2.238-5 5v47.188c0 2.762 2.239 5 5 5s5-2.238 5-5v-47.188c0-2.762-2.239-5-5-5z"/><path d="m464.812 20.548c-2.415-1.782-5.447-2.296-8.317-1.411l-92.757 28.675c-3.943 1.219-6.592 4.811-6.592 8.938v74.57c-4.306-.186-8.75.292-13.106 1.429-18.677 4.876-30.803 20.604-27.029 35.059 3.011 11.534 15.247 18.827 29.559 18.826 3.625 0 7.385-.468 11.159-1.453 16.186-4.227 27.766-16.663 27.719-29.682.006-.102.009-.203.009-.306v-62.641l54.847-16.954v32.917c-4.308-.188-8.751.292-13.106 1.429-8.78 2.292-16.422 7.021-21.519 13.312-5.456 6.736-7.412 14.459-5.51 21.746s7.385 13.068 15.437 16.277c7.522 2.998 16.502 3.388 25.28 1.095 1.657-.432 3.262-.955 4.814-1.551v134.922c-1.566-.556-3.244-.875-4.999-.875h-288.827l.001-2.926 45.549-14.081c3.944-1.218 6.594-4.81 6.594-8.938v-31.87c0-3.003-1.386-5.747-3.802-7.529-2.417-1.781-5.448-2.296-8.316-1.409l-61.743 19.087c-3.943 1.22-6.592 4.812-6.592 8.938v38.729h-51.825c-1.756 0-3.435.319-5.003.876v-217.976c0-2.757 2.243-5 5-5h261.917c2.761 0 5-2.238 5-5s-2.239-5-5-5h-261.917c-8.271 0-15 6.729-15 15l.003 260.47c0 8.271 6.729 15 15 15h14.562c-3.402 5.76-4.426 12.004-2.872 17.958 1.902 7.288 7.385 13.068 15.437 16.278 4.288 1.709 9.048 2.57 13.977 2.57 3.716 0 7.529-.49 11.304-1.476 16.337-4.266 27.982-16.894 27.714-30.044l.001-5.287h39.585v24.546c0 8.271 6.729 15 15 15h76.906v72.272c0 2.762 2.239 5 5 5s5-2.238 5-5v-72.272h12.635c8.271 0 15-6.729 15-15v-24.546h119.711c8.271 0 15-6.729 15-15l-.001-182.855c7.976-5.884 12.936-14.162 12.905-22.692.006-.102.009-.203.009-.306v-104.311c0-3.002-1.385-5.746-3.801-7.528zm-398.072 317.692v-28.37c0-2.757 2.243-5 5-5h51.824v29.842c-4.303-.186-8.749.291-13.106 1.428-5.58 1.457-10.697 3.9-14.996 7.101h-23.722c-2.757-.001-5-2.244-5-5.001zm75.121 20.341c.195 8.451-8.505 17.251-20.241 20.314-6.729 1.758-13.496 1.506-19.051-.708-5.024-2.003-8.385-5.382-9.464-9.515-1.079-4.134.201-8.725 3.605-12.927 3.763-4.646 9.543-8.174 16.273-9.931 2.92-.762 5.874-1.146 8.748-1.146 2.004 0 3.971.187 5.86.561 1.466.293 2.989-.091 4.145-1.04 1.156-.95 1.827-2.368 1.827-3.864v-83.71l60.453-18.688v30.521l-48.619 15.029c-2.095.647-3.523 2.584-3.523 4.776zm169.128 19.205c0 2.757-2.243 5-5 5h-99.541c-2.757 0-5-2.243-5-5v-24.546h109.541zm129.711-34.546h-288.836l.008-38.37h288.828c2.754 0 4.994 2.238 4.999 4.99v.014c0 .003.001.006.001.01v28.357c0 2.756-2.243 4.999-5 4.999zm17.913-211.225c-.012.161-.016.323-.012.485.195 8.452-8.507 17.135-20.242 20.198-6.729 1.757-13.496 1.506-19.051-.708-5.024-2.003-8.385-5.381-9.464-9.514-1.079-4.134.201-8.725 3.605-12.927 3.764-4.646 9.543-8.174 16.274-9.931 4.954-1.294 10.006-1.496 14.609-.585 1.469.288 2.989-.092 4.145-1.042 1.156-.949 1.826-2.367 1.826-3.863v-45.31c0-1.588-.754-3.081-2.032-4.023-1.278-.943-2.927-1.221-4.444-.754l-64.847 20.046c-2.095.647-3.523 2.585-3.523 4.777v65.955c-.012.161-.016.323-.012.485.195 8.451-8.507 17.136-20.242 20.199-13.117 3.425-26.175-1.257-28.516-10.223-2.34-8.966 6.763-19.434 19.88-22.857 2.919-.763 5.871-1.146 8.746-1.146 2.005 0 3.972.187 5.862.561 1.466.292 2.989-.091 4.145-1.04 1.156-.95 1.827-2.368 1.827-3.864v-79.71l91.468-28.275v103.066z"/></g></g></g><g><path d="m208.639 49.641c-1.031 0-2.062-.318-2.939-.955l-3.859-2.804-3.859 2.804c-1.752 1.273-4.125 1.273-5.878 0-1.752-1.273-2.486-3.53-1.816-5.59l1.474-4.537-3.859-2.805c-1.752-1.273-2.486-3.53-1.816-5.59.669-2.061 2.589-3.455 4.755-3.455h4.771l1.474-4.537c.669-2.061 2.589-3.455 4.755-3.455s4.086 1.395 4.755 3.455l1.474 4.537h4.771c2.166 0 4.086 1.395 4.755 3.455s-.064 4.316-1.816 5.59l-3.859 2.805 1.474 4.537c.669 2.06-.064 4.316-1.816 5.59-.878.636-1.91.955-2.941.955z" fill="#01eca5"/></g><g><path d="m393.945 436.562c-1.031 0-2.062-.318-2.939-.955l-3.859-2.804-3.859 2.804c-1.752 1.273-4.125 1.273-5.878 0-1.752-1.273-2.486-3.53-1.816-5.59l1.474-4.537-3.859-2.805c-1.752-1.273-2.486-3.53-1.816-5.59.669-2.061 2.589-3.455 4.755-3.455h4.771l1.474-4.537c.669-2.061 2.589-3.455 4.755-3.455s4.086 1.395 4.755 3.455l1.474 4.537h4.771c2.166 0 4.086 1.395 4.755 3.455s-.064 4.316-1.816 5.59l-3.859 2.805 1.474 4.537c.669 2.06-.064 4.316-1.816 5.59-.879.636-1.91.955-2.941.955z" fill="#8399fe"/></g><g><path d="m130.189 439.811c-1.28 0-2.559-.488-3.536-1.465l-10.5-10.5c-1.953-1.952-1.953-5.118 0-7.07l10.5-10.5c1.953-1.953 5.118-1.953 7.071 0l10.5 10.5c1.953 1.952 1.953 5.118 0 7.07l-10.5 10.5c-.975.976-2.255 1.465-3.535 1.465zm-3.428-15.5 3.429 3.429 3.429-3.429-3.429-3.429z" fill="#8399fe"/></g><g><path d="m330.63 44.717c-1.28 0-2.559-.488-3.536-1.465l-10.5-10.5c-1.953-1.952-1.953-5.118 0-7.07l10.5-10.5c1.953-1.953 5.118-1.953 7.071 0l10.5 10.5c1.953 1.952 1.953 5.118 0 7.07l-10.5 10.5c-.976.977-2.255 1.465-3.535 1.465zm-3.429-15.5 3.429 3.429 3.429-3.429-3.429-3.429z" fill="#ff7eb8"/></g><g><path d="m434.058 407.786c-1.28 0-2.559-.488-3.536-1.465l-10.5-10.5c-1.953-1.952-1.953-5.118 0-7.07l10.5-10.5c1.953-1.953 5.118-1.953 7.071 0l10.5 10.5c1.953 1.952 1.953 5.118 0 7.07l-10.5 10.5c-.976.977-2.256 1.465-3.535 1.465zm-3.429-15.5 3.429 3.429 3.429-3.429-3.429-3.429z" fill="#ff7eb8"/></g></g></g></svg>