<svg id="Capa_1" enable-background="new 0 0 512 512" height="512" viewBox="0 0 512 512" width="512" xmlns="http://www.w3.org/2000/svg" xmlns:xlink="http://www.w3.org/1999/xlink"><linearGradient id="SVGID_1_" gradientUnits="userSpaceOnUse" x1="56.637" x2="427.065" y1="418.703" y2="48.275"><stop offset=".0485" stop-color="#ffdbed"/><stop offset=".9993" stop-color="#d2deff"/></linearGradient><g><g><path d="m507.842 299.468c-.892-59.11-49.072-87.106-95.16-113.424-20.926-11.949-20.438-29.101-9.685-48.676 34.212-62.279 16.823-142.581-66.677-137.102-46.414 3.045-78.477 40.894-116.254 63.227-41.658 24.628-67.16 14.112-104.434-4.685-46.027-23.21-103.663 12.833-110.941 62.751-10.402 71.34 128.961 85.202 85.334 195.219-26.621 67.13-2.54 179.571 86.319 193.557 80.398 12.654 148.433-48.861 185.275-114.665 7.821-13.969 15.912-29.662 30.642-35.934 44.107-18.783 117.126 42.142 115.581-60.268z" fill="url(#SVGID_1_)"/></g><g><g><g><g opacity=".1"><path d="m454.024 89.649-19.673-19.673c-4.314-4.314-11.308-4.314-15.621 0l-28.401 28.401c-3.512 3.512-4.163 8.799-1.958 12.971l-101.435 97.82c-30.146-19.686-67.515-19.234-90.051 3.301-2.767 2.767-5.189 5.765-7.293 8.938v-88.227c0-2.933-2.84-5.027-5.642-4.161l-92.757 28.673c-1.825.564-3.069 2.251-3.069 4.161v80.185c-5.152-1.02-10.96-.884-16.843.652-16.036 4.186-26.537 17.151-23.454 28.958 2.805 10.746 15.897 16.826 30.317 14.675-38.874 43.608-26.435 100.78 16.159 143.374 32.439 32.439 73.334 47.39 110.252 35.505l23.477 23.477c1.125 1.125 2.651 1.757 4.243 1.757h44.077c1.591 0 3.117-.632 4.243-1.757l31.167-31.167c1.125-1.125 1.757-2.651 1.757-4.243v-44.077c0-1.591-.632-3.117-1.757-4.243l-31.167-31.167c-1.125-1.125-2.651-1.757-4.243-1.757h-1.428c.134-1.454.253-2.909.331-4.366.673-12.557 8.389-23.668 19.779-28.996 6.045-2.828 11.619-6.67 16.497-11.548 22.535-22.535 22.987-59.905 3.301-90.051l97.82-101.435c4.172 2.206 9.459 1.554 12.971-1.958l28.401-28.401c4.313-4.314 4.313-11.307 0-15.621zm-282.742 129.585c-5.152-1.02-10.96-.884-16.843.652-16.036 4.186-26.537 17.151-23.454 28.958.348 1.333.862 2.59 1.51 3.773-9.104 2.491-17.949 6.149-26.318 10.958.182-1.089.27-2.185.245-3.28l.013.003v-66.328l64.847-20.046z" fill="#2626bc"/><g opacity=".1"><g><g><g><path d="m347.907 118.238c-1.28 0-2.559-.488-3.536-1.465l-8.201-8.2c-1.953-1.952-1.953-5.118 0-7.07 1.952-1.953 5.118-1.953 7.071 0l8.201 8.2c1.953 1.952 1.953 5.118 0 7.07-.976.977-2.255 1.465-3.535 1.465z" fill="#2626bc"/></g><g><path d="m362.483 110.515c-2.208 0-4.228-1.473-4.827-3.707l-3.001-11.202c-.715-2.667.868-5.409 3.536-6.124 2.667-.71 5.409.868 6.124 3.536l3.001 11.202c.715 2.667-.868 5.409-3.536 6.124-.433.115-.868.171-1.297.171z" fill="#2626bc"/></g></g><g><g><path d="m418.962 189.294c-1.28 0-2.559-.488-3.536-1.465l-8.2-8.2c-1.953-1.952-1.953-5.118 0-7.07 1.953-1.953 5.118-1.953 7.071 0l8.2 8.2c1.953 1.952 1.953 5.118 0 7.07-.976.977-2.255 1.465-3.535 1.465z" fill="#2626bc"/></g><g><path d="m429.691 169.517c-.428 0-.864-.056-1.297-.171l-11.202-3.002c-2.667-.715-4.25-3.457-3.535-6.124.714-2.668 3.455-4.245 6.124-3.536l11.202 3.002c2.667.715 4.25 3.457 3.535 6.124-.599 2.234-2.619 3.707-4.827 3.707z" fill="#2626bc"/></g></g></g></g><path d="m429.348 246.446-61.742 19.086c-1.825.564-3.069 2.251-3.069 4.161v84.185c-5.152-1.02-10.96-.884-16.843.652-16.036 4.186-26.536 17.151-23.454 28.958s18.581 17.984 34.616 13.797c14.325-3.74 24.224-14.485 23.978-25.151l.013-70.326 49.073-15.17c1.825-.564 3.069-2.251 3.069-4.161v-31.87c.001-2.932-2.839-5.027-5.641-4.161z" fill="#2626bc"/></g><g><path d="m275.255 343.659c.673-12.557 8.389-23.668 19.779-28.996 6.045-2.828 11.619-6.67 16.497-11.548 26.574-26.574 22.453-73.782-9.205-105.44s-78.865-35.78-105.44-9.205c-4.878 4.878-8.721 10.452-11.548 16.497-5.328 11.39-16.439 19.106-28.996 19.779-26.855 1.438-53.294 12.411-73.808 32.925-44.127 44.127-32.357 103.9 11.77 148.027s103.9 55.897 148.027 11.77c20.513-20.515 31.485-46.954 32.924-73.809z" fill="#ff7eb8"/><g fill="#ff5ba8"><path d="m82.53 257.67c7.3-7.29 15.35-13.38 23.9-18.26v20.89h-.01c.25 10.66-9.65 21.41-23.98 25.15-6.99 1.82-13.88 1.68-19.68-.05 4.52-9.69 11.06-19.02 19.77-27.73z"/><path d="m189.59 197.38v40.11h-.01c.24 10.67-9.65 21.41-23.98 25.15-16.03 4.19-31.53-1.99-34.62-13.8-2.04-7.82 1.88-16.15 9.42-22.1 5.27-1.04 10.6-1.71 15.94-1.99 12.56-.68 23.67-8.39 29-19.78 1.22-2.63 2.64-5.16 4.25-7.59z"/></g><circle cx="237.654" cy="262.346" fill="#02ffb3" r="50.01"/><path d="m247.571 282.81-30.381-30.381 175.342-169.094 24.133 24.133z" fill="#b7c5ff"/><g><g><path d="m385.084 140.009-25.096-25.095 7.959-7.662 24.799 24.798z" fill="#8399fe"/></g><g><path d="m362.332 163.637-25.971-25.971 7.959-7.662 25.674 25.674z" fill="#8399fe"/></g><g><path d="m339.579 187.264-26.845-26.845 7.959-7.663 26.548 26.549z" fill="#8399fe"/></g><g><path d="m316.819 210.899-27.72-27.72 7.959-7.662 27.423 27.423z" fill="#8399fe"/></g><g><path d="m294.067 234.526-28.595-28.595 7.959-7.662 28.298 28.298z" fill="#8399fe"/></g></g><circle cx="237.654" cy="262.346" fill="#fe2c8f" r="33.253"/><path d="m410.002 109.671-19.673-19.673c-4.314-4.314-4.314-11.308 0-15.621l28.401-28.401c4.314-4.314 11.308-4.314 15.621 0l19.673 19.673c4.314 4.314 4.314 11.308 0 15.621l-28.401 28.401c-4.314 4.314-11.308 4.314-15.621 0z" fill="#4369fd"/><path d="m160.665 399.21-59.874-59.874c-2.157-2.157-2.157-5.654 0-7.811l9.633-9.633c2.157-2.157 5.654-2.157 7.811 0l59.874 59.874c2.157 2.157 2.157 5.654 0 7.811l-9.633 9.633c-2.158 2.157-5.655 2.157-7.811 0z" fill="#ffc4df"/><g fill="#6583fe"><circle cx="118.441" cy="339.543" r="5.523"/><circle cx="132.446" cy="353.548" r="5.523"/><circle cx="146.452" cy="367.554" r="5.523"/><circle cx="160.457" cy="381.559" r="5.523"/></g></g><g fill="#01eca5"><path d="m88.124 137.854v80.185c-5.152-1.02-10.96-.884-16.843.652-16.036 4.186-26.537 17.151-23.454 28.958 3.082 11.807 18.581 17.984 34.616 13.797 14.325-3.74 24.224-14.485 23.978-25.152l.014.003v-66.327l64.847-20.046v45.31c-5.152-1.02-10.96-.884-16.843.652-16.036 4.186-26.537 17.151-23.454 28.958 3.082 11.807 18.581 17.984 34.616 13.797 14.325-3.74 24.224-14.485 23.978-25.152l.014.003v-104.311c0-2.933-2.84-5.027-5.642-4.161l-92.757 28.673c-1.826.564-3.07 2.252-3.07 4.161z"/><path d="m429.348 222.446-61.742 19.086c-1.825.564-3.069 2.251-3.069 4.161v84.185c-5.152-1.02-10.96-.884-16.843.652-16.036 4.186-26.536 17.151-23.454 28.958s18.581 17.984 34.616 13.797c14.325-3.74 24.224-14.485 23.978-25.152l.014-70.326 49.073-15.17c1.825-.564 3.069-2.251 3.069-4.161v-31.87c0-2.931-2.84-5.026-5.642-4.16z"/></g></g><g><g><path d="m276.351 348.025h-44.077c-1.591 0-3.117.632-4.243 1.757l-31.167 31.167c-1.125 1.125-1.757 2.651-1.757 4.243v44.077c0 1.591.632 3.117 1.757 4.243l31.167 31.167c1.125 1.125 2.651 1.757 4.243 1.757h44.077c1.591 0 3.117-.632 4.243-1.757l31.167-31.167c1.125-1.125 1.757-2.651 1.757-4.243v-44.077c0-1.591-.632-3.117-1.757-4.243l-31.167-31.167c-1.125-1.125-2.651-1.757-4.243-1.757z" fill="#97ffd2"/></g><g><circle cx="254.313" cy="407.231" fill="#01eca5" r="45.126"/><g fill="#2626bc"><path d="m457.56 62.113-19.672-19.672c-3.031-3.031-7.061-4.701-11.347-4.701s-8.316 1.67-11.346 4.701l-28.4 28.399c-3.031 3.031-4.7 7.061-4.7 11.347 0 1.303.172 2.576.472 3.81l-143.26 138.154c-10.339-.443-20.825 3.269-28.702 11.146-14.915 14.915-14.915 39.183 0 54.098 7.225 7.226 16.831 11.204 27.049 11.204s19.824-3.979 27.049-11.204c7.877-7.877 11.59-18.362 11.147-28.702l38.065-39.474c15.364 27.666 13.195 59.248-5.921 78.356-4.382 4.382-9.455 7.933-15.083 10.557-13.085 6.124-21.719 18.706-22.621 32.894h-38.015c-2.938 0-5.7 1.144-7.778 3.222l-31.168 31.168c-2.077 2.078-3.22 4.841-3.22 7.777v44.077c0 2.938 1.144 5.7 3.222 7.777l1.521 1.521c-31.66 6.494-67.313-6.711-97.014-36.403-43.713-43.724-50.318-96.61-17.087-135.216.984-.188 1.97-.406 2.957-.664 13.57-3.543 23.898-12.858 26.856-23.448 6.322-3.468 12.979-6.298 19.868-8.421 7.336 8.901 21.755 12.896 36.433 9.064 16.187-4.226 27.767-16.661 27.719-29.68.006-.103.009-.204.009-.307v-14.536c1.759-2.486 3.708-4.826 5.833-6.952 14.44-14.44 36.59-19.526 59.25-13.607 2.67.696 5.403-.902 6.102-3.574.698-2.672-.902-5.403-3.574-6.102-25.508-6.664-50.635-1.042-67.611 15.019v-74.56c0-3.002-1.385-5.745-3.801-7.527-2.417-1.783-5.449-2.296-8.318-1.411l-92.758 28.675c-3.942 1.22-6.591 4.812-6.591 8.938v74.57c-4.304-.187-8.75.292-13.106 1.429-18.677 4.876-30.802 20.604-27.029 35.059 2.658 10.181 12.507 17.049 24.623 18.521-14.545 20.051-20.372 43.241-16.889 67.666 3.709 26.009 17.555 51.645 40.042 74.137 26.667 26.658 58.042 40.973 87.937 40.972 8.3-.001 16.488-1.112 24.427-3.362l21.369 21.369c2.078 2.077 4.84 3.222 7.777 3.222h44.077c2.937 0 5.699-1.145 7.778-3.223l31.167-31.167c2.078-2.077 3.222-4.84 3.222-7.777v-44.077c0-2.937-1.144-5.699-3.222-7.778l-31.168-31.168c-1.117-1.117-2.436-1.953-3.87-2.498.641-10.577 7.095-19.976 16.883-24.556 6.684-3.116 12.714-7.337 17.922-12.546 22.937-22.927 25.275-60.755 6.076-92.921l75.298-78.085c1.917-1.987 1.859-5.153-.128-7.07s-5.154-1.859-7.07.129l-115.823 120.107c-1.857-4.929-4.755-9.552-8.715-13.513-3.961-3.96-8.584-6.857-13.513-8.714l136.763-131.889 18.512 18.513v.001c3.128 3.128 7.237 4.691 11.346 4.691s8.218-1.564 11.346-4.692l28.402-28.4c6.256-6.256 6.256-16.437.001-22.693zm-331.585 163.237c-4.972 1.607-9.83 3.546-14.54 5.803v-57.496l54.847-16.954v32.917c-4.309-.185-8.751.292-13.106 1.429-18.352 4.791-30.367 20.058-27.201 34.301zm-73.31 21.037c-2.34-8.966 6.763-19.434 19.879-22.857 2.919-.763 5.872-1.146 8.746-1.146 2.005 0 3.972.187 5.862.561 1.467.293 2.989-.092 4.145-1.04 1.156-.95 1.827-2.368 1.827-3.864v-79.71l91.468-28.275v103.064c-.012.161-.016.322-.012.485.195 8.452-8.507 17.135-20.242 20.198-13.115 3.425-26.175-1.257-28.516-10.222-2.34-8.966 6.763-19.434 19.88-22.857 4.954-1.295 10.006-1.496 14.609-.585 1.47.289 2.989-.092 4.145-1.042 1.156-.949 1.826-2.367 1.826-3.863v-45.311c0-1.588-.754-3.081-2.032-4.023-1.277-.943-2.926-1.222-4.444-.754l-64.847 20.046c-2.095.647-3.523 2.585-3.523 4.777v65.955c-.012.161-.016.323-.012.485.195 8.451-8.507 17.136-20.242 20.199-13.118 3.427-26.177-1.255-28.517-10.221zm255.559 138.096c.19.189.294.441.294.709v44.077c0 .263-.107.521-.293.707l-31.166 31.166c-.19.189-.441.294-.708.294h-44.077c-.267 0-.518-.104-.707-.293l-31.167-31.166c-.186-.187-.293-.444-.293-.707v-44.077c0-.268.104-.52.293-.708l31.166-31.166c.189-.188.44-.293.708-.293h44.077c.268 0 .519.104.707.292zm-50.592-102.159c-5.336 5.336-12.431 8.274-19.978 8.274-7.546 0-14.642-2.938-19.978-8.274-11.016-11.017-11.016-28.94 0-39.957 5.508-5.508 12.742-8.261 19.978-8.261 7.234 0 14.471 2.754 19.978 8.261 11.016 11.017 11.016 28.941 0 39.957zm192.856-204.589-28.401 28.4c-2.356 2.355-6.193 2.356-8.55-.001v.001l-19.673-19.674c-1.142-1.142-1.771-2.659-1.771-4.274s.629-3.133 1.771-4.275l28.401-28.4c1.142-1.142 2.66-1.771 4.274-1.771s3.133.63 4.275 1.771l19.672 19.672c2.359 2.357 2.359 6.194.002 8.551z"/><path d="m436.187 219.078c-2.416-1.782-5.446-2.296-8.316-1.409l-61.743 19.087c-3.942 1.219-6.591 4.812-6.591 8.938v78.57c-4.306-.186-8.75.292-13.106 1.429-18.677 4.876-30.802 20.604-27.029 35.059 3.011 11.534 15.247 18.827 29.559 18.826 3.625 0 7.385-.468 11.159-1.453 16.337-4.266 27.981-16.894 27.714-30.044l.013-66.583 45.549-14.081c3.944-1.218 6.594-4.81 6.594-8.938v-31.87c0-3.005-1.386-5.749-3.803-7.531zm-6.197 38.924-48.619 15.029c-2.095.647-3.523 2.584-3.523 4.776l-.014 70.325c0 .039 0 .077.001.116.195 8.451-8.507 17.136-20.242 20.199-13.117 3.425-26.175-1.257-28.516-10.223-2.34-8.966 6.763-19.434 19.879-22.857 2.919-.763 5.872-1.146 8.746-1.146 2.005 0 3.972.187 5.862.561 1.465.293 2.988-.091 4.145-1.04 1.156-.95 1.827-2.368 1.827-3.864v-83.71l60.453-18.688v30.522z"/><path d="m344.371 92.773c.977.977 2.256 1.465 3.536 1.465s2.56-.488 3.536-1.465c1.953-1.952 1.953-5.118 0-7.07l-8.201-8.2c-1.953-1.953-5.119-1.953-7.071 0-1.953 1.952-1.953 5.118 0 7.07z"/><path d="m357.657 82.808c.599 2.234 2.619 3.707 4.827 3.707.428 0 .864-.056 1.297-.171 2.667-.715 4.25-3.457 3.536-6.124l-3.001-11.202c-.715-2.668-3.457-4.245-6.124-3.536-2.667.715-4.25 3.457-3.536 6.124z"/><path d="m407.226 148.559c-1.953 1.952-1.953 5.118 0 7.07l8.2 8.2c.977.977 2.256 1.465 3.536 1.465s2.559-.488 3.536-1.465c1.953-1.952 1.953-5.118 0-7.07l-8.2-8.2c-1.954-1.954-5.119-1.954-7.072 0z"/><path d="m417.192 142.344 11.202 3.002c.434.115.869.171 1.297.171 2.208 0 4.228-1.473 4.827-3.707.715-2.667-.868-5.409-3.535-6.124l-11.202-3.002c-2.669-.708-5.41.868-6.124 3.536-.715 2.667.868 5.409 3.535 6.124z"/></g><g fill="#fff"><path d="m249.775 384.379c-.751-1.914-2.598-3.173-4.654-3.173h-.152c-2.056 0-3.903 1.259-4.654 3.173l-14.937 38.05c-1.009 2.57.257 5.472 2.827 6.481 2.569 1.007 5.472-.257 6.481-2.827l3.022-7.699h14.673l3.022 7.699c.773 1.97 2.66 3.174 4.656 3.174.607 0 1.226-.112 1.826-.347 2.57-1.009 3.836-3.911 2.827-6.481zm-8.142 24.005 3.411-8.689 3.411 8.689z"/><path d="m278.595 388.064h-1.859v-1.858c0-2.761-2.239-5-5-5s-5 2.239-5 5v1.858h-1.858c-2.761 0-5 2.239-5 5s2.239 5 5 5h1.858v1.859c0 2.761 2.239 5 5 5s5-2.239 5-5v-1.859h1.859c2.761 0 5-2.239 5-5s-2.239-5-5-5z"/></g></g></g></g><g><path d="m372.377 452.698c-1.031 0-2.062-.318-2.939-.955l-3.859-2.804-3.859 2.804c-1.752 1.273-4.125 1.273-5.878 0-1.752-1.273-2.486-3.53-1.816-5.59l1.474-4.537-3.859-2.805c-1.752-1.273-2.486-3.53-1.816-5.59.669-2.061 2.589-3.455 4.755-3.455h4.771l1.474-4.537c.669-2.061 2.589-3.455 4.755-3.455s4.086 1.395 4.755 3.455l1.474 4.537h4.771c2.166 0 4.086 1.395 4.755 3.455s-.064 4.316-1.816 5.59l-3.859 2.805 1.474 4.537c.669 2.06-.064 4.316-1.816 5.59-.878.637-1.909.955-2.941.955z" fill="#01eca5"/></g><g><path d="m257.778 139.092c-1.031 0-2.062-.318-2.938-.955l-3.86-2.804-3.86 2.804c-1.752 1.273-4.125 1.273-5.877 0s-2.486-3.53-1.816-5.59l1.474-4.536-3.859-2.805c-1.752-1.273-2.486-3.53-1.816-5.59.669-2.061 2.589-3.455 4.755-3.455h4.771l1.474-4.537c.669-2.061 2.589-3.455 4.755-3.455s4.086 1.395 4.755 3.455l1.474 4.537h4.771c2.166 0 4.086 1.395 4.755 3.455s-.064 4.316-1.816 5.59l-3.859 2.805 1.474 4.536c.669 2.06-.064 4.316-1.816 5.59-.878.636-1.91.955-2.941.955z" fill="#ff7eb8"/></g><g><path d="m189.08 64.85c-1.031 0-2.062-.318-2.939-.955l-3.859-2.804-3.859 2.804c-1.752 1.273-4.125 1.273-5.878 0-1.752-1.273-2.486-3.53-1.816-5.59l1.474-4.537-3.859-2.804c-1.753-1.272-2.486-3.529-1.817-5.59s2.589-3.455 4.755-3.455h4.771l1.474-4.537c.669-2.061 2.589-3.455 4.755-3.455s4.086 1.395 4.755 3.455l1.474 4.537h4.771c2.166 0 4.086 1.395 4.755 3.455s-.064 4.317-1.817 5.59l-3.859 2.804 1.474 4.537c.669 2.06-.064 4.316-1.816 5.59-.876.636-1.908.955-2.939.955z" fill="#01eca5"/></g><g><path d="m400.262 407.77c-1.28 0-2.559-.488-3.536-1.465l-10.5-10.5c-1.953-1.952-1.953-5.118 0-7.07l10.5-10.5c1.953-1.953 5.118-1.953 7.071 0l10.5 10.5c1.953 1.952 1.953 5.118 0 7.07l-10.5 10.5c-.976.976-2.255 1.465-3.535 1.465zm-3.429-15.5 3.429 3.429 3.429-3.429-3.429-3.429z" fill="#ff7eb8"/></g><g><path d="m44.241 195.693c-1.28 0-2.559-.488-3.536-1.465l-10.5-10.5c-1.953-1.952-1.953-5.118 0-7.07l10.5-10.5c1.953-1.953 5.118-1.953 7.071 0l10.5 10.5c1.953 1.952 1.953 5.118 0 7.07l-10.5 10.5c-.976.977-2.255 1.465-3.535 1.465zm-3.429-15.5 3.429 3.429 3.429-3.429-3.429-3.429z" fill="#8399fe"/></g></g></g></svg>