<svg id="Capa_1" enable-background="new 0 0 512 512" height="512" viewBox="0 0 512 512" width="512" xmlns="http://www.w3.org/2000/svg" xmlns:xlink="http://www.w3.org/1999/xlink"><linearGradient id="SVGID_1_" gradientUnits="userSpaceOnUse" x1="94.259" x2="444.728" y1="433.435" y2="82.967"><stop offset=".0485" stop-color="#d2deff"/><stop offset=".9993" stop-color="#dcfdee"/></linearGradient><g><g><path d="m481.808 354.036c-42.523-36.927-115.465-51.988-132.458-107.397-13.252-43.213 59.076-69.122 74.377-108.559 36.967-95.283-78.393-157.131-139.438-81.716-18.502 22.857-45.278 103.725-76.82 90.574-45.979-19.17-34.827-107.526-121.533-103.963-86.948 3.573-110.224 127.819-59.235 193.013 32.013 40.932 83.832 64.937 108.594 111.596 36.218 68.246-23.323 84.408-7.861 116.339 12.701 26.229 54.025 27.518 78.851 14.688 24.459-12.64 38.839-38.455 59.269-56.909 53.165-48.022 89.836 35.665 131.914 58.032 29.318 15.584 63.506 11.911 89.03-9.553 38.248-32.162 30.827-85.303-4.69-116.145z" fill="url(#SVGID_1_)"/></g><g><g><path d="m37.1 221.066v206.17c0 5.52 4.48 10 10 10h42.54c5.53 0 10-4.48 10-10v-.022l.004.02c0 5.523 4.477 10 10 10h42.543c5.523 0 10-4.477 10-10l.004-.022v.023c0 5.52 4.47 10 10 10h42.54c5.516 0 9.993-4.474 9.999-9.989.007 5.517 4.481 9.987 9.999 9.987h42.542c5.519 0 9.992-4.47 9.999-9.987.006 5.515 4.483 9.989 9.999 9.989h42.54c5.53 0 10-4.48 10-10v-.018l.004.017c0 5.523 4.477 10 10 10h42.543c5.523 0 10-4.477 10-10v-.023l.004.025c0 5.52 4.47 10 10 10h42.54c5.52 0 10-4.48 10-10v-206.17z" fill="#2626bc" opacity=".1"/><g><g><g><g><path d="m99.64 197.066v206.17c0 5.52-4.47 10-10 10h-42.54c-5.52 0-10-4.48-10-10v-206.17z" fill="#fff"/><path d="m37.1 197.07h62.54v23.99h-62.54z" fill="#d2deff"/><path d="m99.64 221.066v108.41h-9.3c-5.52 0-10-4.48-10-10v-88.41c0-5.53 4.48-10 10-10z" fill="#d2deff"/><path d="m152.186 413.235h-42.543c-5.523 0-10-4.477-10-10v-206.173h62.543v206.173c0 5.522-4.477 10-10 10z" fill="#fff"/><g fill="#d2deff"><path d="m99.64 197.06h62.55v24h-62.55z"/><path d="m118.94 231.066v88.41c0 5.52-4.47 10-10 10h-9.3v-108.41h9.3c5.53 0 10 4.47 10 10z"/><path d="m162.19 221.066v108.41h-9.3c-5.53 0-10-4.48-10-10v-88.41c0-5.53 4.47-10 10-10z"/></g><path d="m224.73 197.066v206.17c0 5.52-4.48 10-10 10h-42.54c-5.53 0-10-4.48-10-10v-206.17z" fill="#fff"/><path d="m162.19 197.07h62.54v23.99h-62.54z" fill="#d2deff"/><path d="m181.49 231.066v88.41c0 5.52-4.48 10-10 10h-9.3v-108.41h9.3c5.52 0 10 4.47 10 10z" fill="#d2deff"/><path d="m224.73 221.066v108.41h-9.3c-5.52 0-10-4.48-10-10v-88.41c0-5.53 4.48-10 10-10z" fill="#d2deff"/><path d="m277.271 413.235h-42.543c-5.523 0-10-4.477-10-10v-206.173h62.543v206.173c0 5.522-4.477 10-10 10z" fill="#fff"/><path d="m224.73 197.06h62.54v24h-62.54z" fill="#d2deff"/><path d="m244.03 231.066v88.41c0 5.52-4.48 10-10 10h-9.3v-108.41h9.3c5.52 0 10 4.47 10 10z" fill="#d2deff"/><path d="m349.81 197.066v206.17c0 5.52-4.47 10-10 10h-42.54c-5.52 0-10-4.48-10-10v-206.17z" fill="#fff"/><path d="m287.27 197.07h62.54v23.99h-62.54z" fill="#d2deff"/><path d="m349.81 221.066v108.41h-9.3c-5.52 0-10-4.48-10-10v-88.41c0-5.53 4.48-10 10-10z" fill="#d2deff"/><path d="m402.356 413.235h-42.543c-5.523 0-10-4.477-10-10v-206.173h62.543v206.173c0 5.522-4.477 10-10 10z" fill="#fff"/><path d="m349.81 197.06h62.55v24h-62.55z" fill="#d2deff"/><path d="m369.11 231.066v88.41c0 5.52-4.47 10-10 10h-9.3v-108.41h9.3c5.53 0 10 4.47 10 10z" fill="#d2deff"/><path d="m412.36 221.066v108.41h-9.3c-5.53 0-10-4.48-10-10v-88.41c0-5.53 4.47-10 10-10z" fill="#d2deff"/><path d="m474.9 197.066v206.17c0 5.52-4.48 10-10 10h-42.54c-5.53 0-10-4.48-10-10v-206.17z" fill="#fff"/><path d="m412.36 197.07h62.54v23.99h-62.54z" fill="#d2deff"/><path d="m431.66 231.066v88.41c0 5.52-4.48 10-10 10h-9.3v-108.41h9.3c5.52 0 10 4.47 10 10z" fill="#d2deff"/></g><path d="m474.898 340.146c-2.762 0-5 2.238-5 5v58.088c0 2.757-2.243 5-5 5h-42.542c-2.757 0-5-2.243-5-5v-97.761c0-2.762-2.238-5-5-5s-5 2.238-5 5v97.761c0 2.757-2.243 5-5 5h-42.543c-2.757 0-5-2.243-5-5v-97.761c0-2.762-2.238-5-5-5s-5 2.238-5 5v97.761c0 2.757-2.243 5-5 5h-42.542c-2.757 0-5-2.243-5-5v-206.172c0-2.762-2.238-5-5-5s-5 2.238-5 5v206.173c0 2.757-2.243 5-5 5h-42.543c-2.757 0-5-2.243-5-5v-97.761c0-2.762-2.239-5-5-5s-5 2.238-5 5v97.761c0 2.757-2.243 5-5 5h-42.542c-2.757 0-5-2.243-5-5v-97.761c0-2.762-2.239-5-5-5s-5 2.238-5 5v97.761c0 2.757-2.243 5-5 5h-42.542c-2.757 0-5-2.243-5-5v-97.761c0-2.762-2.239-5-5-5s-5 2.238-5 5v97.761c0 8.271 6.729 15 15 15h42.542c3.844 0 7.343-1.465 10-3.851 2.657 2.386 6.156 3.851 10 3.851h42.542c3.844 0 7.343-1.465 10-3.851 2.657 2.386 6.156 3.851 10 3.851h42.543c3.844 0 7.343-1.465 10-3.851 2.657 2.386 6.156 3.851 10 3.851h42.542c3.844 0 7.343-1.465 10-3.851 2.657 2.386 6.156 3.851 10 3.851h42.543c3.844 0 7.343-1.465 10-3.851 2.657 2.386 6.156 3.851 10 3.851h42.542c8.271 0 15-6.729 15-15v-58.088c0-2.762-2.238-5.001-5-5.001z" fill="#2626bc"/><g><path d="m118.943 295.473v-88.412c0-5.523-4.477-10-10-10h-18.6c-5.523 0-10 4.477-10 10v88.412c0 5.523 4.477 10 10 10h18.6c5.523 0 10-4.477 10-10z" fill="#4369fd"/><path d="m118.94 207.06v13.97h-38.6v-13.97c0-5.52 4.48-10 10-10h18.6c5.53 0 10 4.48 10 10z" fill="#6583fe"/></g><g><path d="m181.486 295.473v-88.412c0-5.523-4.477-10-10-10h-18.6c-5.523 0-10 4.477-10 10v88.412c0 5.523 4.477 10 10 10h18.6c5.523 0 10-4.477 10-10z" fill="#4369fd"/></g><path d="m181.486 207.06v13.97h-38.6v-13.97c0-5.52 4.48-10 10-10h18.6c5.53 0 10 4.48 10 10z" fill="#6583fe"/><g><path d="m244.029 295.473v-88.412c0-5.523-4.477-10-10-10h-18.6c-5.523 0-10 4.477-10 10v88.412c0 5.523 4.477 10 10 10h18.6c5.522 0 10-4.477 10-10z" fill="#4369fd"/></g><path d="m244.029 207.06v13.97h-38.6v-13.97c0-5.52 4.48-10 10-10h18.6c5.53 0 10 4.48 10 10z" fill="#6583fe"/><g><path d="m369.114 295.473v-88.412c0-5.523-4.477-10-10-10h-18.6c-5.523 0-10 4.477-10 10v88.412c0 5.523 4.477 10 10 10h18.6c5.523 0 10-4.477 10-10z" fill="#4369fd"/></g><path d="m369.114 207.06v13.97h-38.6v-13.97c0-5.52 4.48-10 10-10h18.6c5.53 0 10 4.48 10 10z" fill="#6583fe"/><g><path d="m431.656 295.473v-88.412c0-5.523-4.477-10-10-10h-18.6c-5.523 0-10 4.477-10 10v88.412c0 5.523 4.477 10 10 10h18.6c5.523 0 10-4.477 10-10z" fill="#4369fd"/></g><path d="m431.656 207.06v13.97h-38.6v-13.97c0-5.52 4.48-10 10-10h18.6c5.53 0 10 4.48 10 10z" fill="#6583fe"/></g></g><g fill="#9fb0fe"><circle cx="381.085" cy="387.674" r="5"/><circle cx="193.46" cy="387.835" r="5"/><circle cx="130.915" cy="387.674" r="5"/></g></g><g><g><path d="m474.9 131.38v65.68h-437.8v-65.68c0-5.52 4.48-10 10-10h417.8c5.52 0 10 4.48 10 10z" fill="#ff7eb8"/><g><path d="m195.57 121.38v29.93c0 1.6-.63 3.12-1.76 4.25l-31.16 31.16c-1.13 1.13-2.65 1.76-4.25 1.76h-44.07c-1.59 0-3.12-.63-4.24-1.76l-31.17-31.16c-1.13-1.13-1.76-2.65-1.76-4.25v-29.93z" fill="#ff5ba8"/></g><path d="m454.14 176.79v20.27h-396.28v-20.27c0-5.52 4.48-10 10-10h376.28c5.52 0 10 4.48 10 10z" fill="#ff5ba8"/><g><path d="m182.58 166.79-19.93 19.93c-1.13 1.13-2.65 1.76-4.25 1.76h-44.07c-1.59 0-3.12-.63-4.24-1.76l-19.94-19.93z" fill="#fe2c8f"/></g></g><g><g><path d="m158.405 46.071h-44.077c-1.591 0-3.117.632-4.243 1.757l-31.167 31.167c-1.125 1.125-1.757 2.651-1.757 4.243v44.077c0 1.591.632 3.117 1.757 4.243l31.167 31.167c1.125 1.125 2.651 1.757 4.243 1.757h44.077c1.591 0 3.117-.632 4.243-1.757l31.167-31.167c1.125-1.125 1.757-2.651 1.757-4.243v-44.077c0-1.591-.632-3.117-1.757-4.243l-31.167-31.167c-1.126-1.125-2.652-1.757-4.243-1.757z" fill="#97ffd2"/></g><g><circle cx="136.366" cy="105.276" fill="#01eca5" r="45.126"/><path d="m464.898 116.384h-240.812c-2.761 0-5 2.238-5 5s2.239 5 5 5h240.812c2.757 0 5 2.243 5 5v60.678h-427.797v-60.678c0-2.757 2.243-5 5-5h25.06v.931c0 2.937 1.144 5.699 3.222 7.778l31.167 31.167c2.078 2.078 4.84 3.222 7.778 3.222h44.077c2.938 0 5.7-1.144 7.778-3.222l31.167-31.167c2.077-2.078 3.221-4.841 3.221-7.778v-44.078c0-2.938-1.145-5.701-3.222-7.777l-31.168-31.168c-2.078-2.077-4.84-3.222-7.777-3.222h-44.077c-2.938 0-5.7 1.145-7.778 3.223l-31.167 31.167c-2.078 2.077-3.222 4.84-3.222 7.777v33.146h-25.06c-8.271 0-15 6.729-15 15v271.851c0 8.271 6.729 15 15 15h42.542c8.271 0 15-6.729 15-15 0-2.762-2.239-5-5-5s-5 2.238-5 5c0 2.757-2.243 5-5 5h-42.541c-2.757 0-5-2.243-5-5v-201.172h427.797v114.274c0 2.762 2.238 5 5 5s5-2.238 5-5v-184.952c0-8.272-6.728-15-15-15zm-382.737-33.147c0-.263.107-.521.293-.707l31.167-31.167c.187-.187.444-.293.707-.293h44.077c.267 0 .518.104.707.293l31.168 31.168c.186.186.292.443.292.706v44.077c0 .268-.104.519-.293.708l-31.166 31.166c-.189.188-.44.293-.708.293h-44.077c-.264 0-.521-.106-.707-.292l-31.166-31.166c-.19-.189-.294-.441-.294-.709z" fill="#2626bc"/><g fill="#fff"><path d="m131.828 82.424c-.751-1.914-2.598-3.173-4.654-3.173h-.152c-2.056 0-3.903 1.259-4.654 3.173l-14.937 38.05c-1.009 2.57.257 5.472 2.827 6.481 2.569 1.007 5.472-.257 6.481-2.827l3.022-7.699h14.673l3.022 7.699c.773 1.97 2.66 3.174 4.656 3.174.607 0 1.226-.112 1.826-.347 2.57-1.009 3.836-3.911 2.827-6.481zm-8.141 24.006 3.411-8.689 3.411 8.689z"/><path d="m160.648 86.11h-1.859v-1.858c0-2.761-2.239-5-5-5s-5 2.239-5 5v1.858h-1.858c-2.761 0-5 2.239-5 5s2.239 5 5 5h1.858v1.859c0 2.761 2.239 5 5 5s5-2.239 5-5v-1.859h1.859c2.761 0 5-2.239 5-5s-2.239-5-5-5z"/></g></g></g></g></g><g><path d="m240.825 98.6c-1.031 0-2.062-.318-2.939-.955l-3.859-2.804-3.859 2.804c-1.752 1.273-4.125 1.273-5.878 0-1.752-1.273-2.486-3.53-1.816-5.59l1.474-4.537-3.859-2.804c-1.753-1.272-2.486-3.529-1.817-5.59s2.589-3.455 4.755-3.455h4.771l1.474-4.537c.669-2.061 2.589-3.455 4.755-3.455s4.086 1.395 4.755 3.455l1.474 4.537h4.771c2.166 0 4.086 1.395 4.755 3.455s-.064 4.317-1.817 5.59l-3.859 2.804 1.474 4.537c.669 2.06-.064 4.316-1.816 5.59-.877.636-1.908.955-2.939.955z" fill="#01eca5"/></g><g><path d="m401.77 61.364c-1.031 0-2.062-.318-2.938-.955-1.753-1.272-2.486-3.529-1.816-5.59l1.474-4.537-3.859-2.805c-1.753-1.273-2.486-3.53-1.816-5.59.669-2.061 2.589-3.455 4.755-3.455h4.771l1.475-4.537c.669-2.061 2.589-3.455 4.755-3.455s4.086 1.395 4.755 3.455l1.475 4.537h4.771c2.166 0 4.086 1.395 4.755 3.455.67 2.06-.063 4.316-1.815 5.59l-3.859 2.805 1.474 4.537c.67 2.06-.063 4.316-1.816 5.59-1.752 1.273-4.125 1.273-5.877 0l-3.86-2.804-3.858 2.804c-.884.637-1.915.955-2.946.955z" fill="#01eca5"/></g><g><path d="m107.123 459.159c-1.031 0-2.062-.318-2.939-.955l-3.86-2.804-3.859 2.804c-1.752 1.274-4.125 1.272-5.878 0-1.752-1.273-2.486-3.53-1.816-5.591l1.475-4.535-3.86-2.805c-1.752-1.273-2.486-3.53-1.816-5.59.669-2.061 2.589-3.455 4.755-3.455h4.771l1.474-4.537c.669-2.061 2.589-3.455 4.755-3.455s4.086 1.395 4.755 3.455l1.474 4.537h4.771c2.166 0 4.086 1.395 4.755 3.455s-.064 4.316-1.816 5.59l-3.859 2.804 1.475 4.536c.669 2.061-.064 4.317-1.816 5.591-.878.637-1.91.955-2.941.955z" fill="#ff7eb8"/></g><g><path d="m273.788 71.864c-1.279 0-2.56-.488-3.535-1.465l-10.5-10.5c-1.953-1.952-1.953-5.118 0-7.07l10.5-10.5c1.951-1.953 5.119-1.953 7.07 0l10.5 10.5c1.953 1.952 1.953 5.118 0 7.07l-10.5 10.5c-.975.977-2.256 1.465-3.535 1.465zm-3.429-15.5 3.429 3.429 3.429-3.429-3.429-3.429z" fill="#ff7eb8"/></g><g><path d="m327.385 481.937c-1.279 0-2.56-.488-3.535-1.465l-10.5-10.5c-1.953-1.952-1.953-5.118 0-7.07l10.5-10.5c1.951-1.953 5.119-1.953 7.07 0l10.5 10.5c1.953 1.952 1.953 5.118 0 7.07l-10.5 10.5c-.976.976-2.256 1.465-3.535 1.465zm-3.429-15.5 3.429 3.429 3.429-3.429-3.429-3.429z" fill="#8399fe"/></g></g></g></svg>