<svg id="Capa_1" enable-background="new 0 0 512 512" height="512" viewBox="0 0 512 512" width="512" xmlns="http://www.w3.org/2000/svg" xmlns:xlink="http://www.w3.org/1999/xlink"><linearGradient id="SVGID_1_" gradientUnits="userSpaceOnUse" x1="141.121" x2="514.929" y1="483.334" y2="109.526"><stop offset="0" stop-color="#ffdbed"/><stop offset="1" stop-color="#dcfdee"/></linearGradient><g><g><path d="m500.232 405.751c-22.727-30.158-64.915-53.759-64.561-95.661.185-21.915 13.118-41.294 22.546-61.079 31.104-65.266 38.868-163.195-17.178-213.121-22.629-20.157-72.025-27.587-101.05-19.692-75.041 20.413-16.158 70.286-30.04 104.178-45.058 110-292.932 92.458-308.846 174.437-9.376 48.302 40.633 137.822 163.722 81.126 91.981-42.367 187.226 147.747 291.785 112.924 41.213-13.726 73.763-43.115 43.622-83.112z" fill="url(#SVGID_1_)"/></g><g><g><g fill="#2626bc" opacity=".1"><path d="m436.288 251.257c1.757.391 3.581.604 5.455.604 13.807 0 25-11.193 25-25 0-9.197-4.97-17.229-12.367-21.571 2.187-14.669.133-27.886-6.314-39.052-14.27-24.714-47.95-35.868-94.82-31.408-5.336.508-10.78 1.218-16.307 2.111-1.99-5.233-4.097-10.302-6.325-15.177-2.487-5.44-5.086-10.566-7.786-15.377 3.394-4.268 5.427-9.667 5.427-15.543 0-13.807-11.193-25-25-25-4.082 0-7.931.984-11.334 2.719-11.308-8.685-23.417-13.212-35.917-13.212-28.537 0-55.034 23.586-74.609 66.413-2.229 4.875-4.335 9.944-6.325 15.177-5.527-.893-10.97-1.603-16.307-2.111-46.873-4.457-80.552 6.693-94.82 31.408-14.269 24.714-7.092 59.454 20.21 97.82 3.108 4.368 6.445 8.726 9.981 13.066-3.536 4.34-6.873 8.699-9.981 13.066-5.514 7.749-10.193 15.346-14.054 22.747-1.846-.435-3.768-.672-5.747-.672-13.807 0-25 11.193-25 25 0 11.174 7.332 20.633 17.446 23.835.174 9.872 2.531 18.918 7.145 26.91 12.212 21.151 38.633 32.369 75.383 32.369 6.191 0 12.68-.318 19.438-.961 5.336-.508 10.78-1.218 16.307-2.111 1.991 5.233 4.097 10.302 6.325 15.177 19.575 42.827 46.072 66.413 74.609 66.413s55.034-23.586 74.609-66.413c2.229-4.875 4.335-9.944 6.325-15.177 5.527.893 10.97 1.603 16.307 2.111 6.761.643 13.244.961 19.438.961 36.746 0 63.172-11.219 75.383-32.369 14.269-24.714 7.092-59.454-20.21-97.82-3.108-4.368-6.445-8.726-9.981-13.066 3.536-4.34 6.873-8.699 9.981-13.066 3.071-4.317 5.874-8.585 8.435-12.801zm-90.95-40.384c-11.806-8.369-24.279-16.371-37.296-23.887-13.018-7.516-26.185-14.317-39.335-20.357 21.129-8.361 41.937-14.571 61.698-18.377 6.583 19.017 11.61 40.142 14.933 62.621zm1.792 13.637c1.948 16.987 2.953 34.627 2.953 52.615s-1.005 35.627-2.953 52.615c-13.737 10.181-28.51 19.871-44.088 28.864-15.577 8.994-31.356 16.943-47.042 23.749-15.686-6.806-31.465-14.756-47.042-23.749s-30.351-18.683-44.088-28.864c-1.948-16.987-2.953-34.627-2.953-52.615s1.005-35.627 2.953-52.615c13.737-10.181 28.51-19.871 44.088-28.864 15.577-8.994 31.356-16.943 47.042-23.749 15.686 6.806 31.465 14.756 47.042 23.749 15.577 8.994 30.351 18.684 44.088 28.864zm-156.645-98.589c17.854-39.059 41.12-60.57 65.515-60.57 9.556 0 18.937 3.315 27.89 9.679-3.524 4.309-5.64 9.814-5.64 15.814 0 13.807 11.193 25 25 25 4.251 0 8.253-1.064 11.758-2.936 2.238 4.095 4.411 8.428 6.506 13.013 1.889 4.133 3.687 8.415 5.4 12.819-22.712 4.512-46.696 12.065-70.914 22.288-24.218-10.223-48.202-17.776-70.914-22.288 1.713-4.404 3.51-8.685 5.399-12.819zm-8.89 22.331c19.761 3.807 40.569 10.016 61.698 18.377-13.151 6.04-26.318 12.841-39.335 20.357-13.018 7.516-25.491 15.518-37.297 23.887 3.324-22.479 8.351-43.604 14.934-62.621zm-89.299 110.009c-24.899-34.991-31.895-65.896-19.697-87.022 10.336-17.903 33.646-27.381 66.534-27.381 5.922 0 12.155.308 18.679.928 4.524.431 9.131 1.015 13.802 1.734-7.449 21.926-12.9 46.472-16.156 72.557-20.963 15.863-39.496 32.857-54.76 50.27-2.958-3.686-5.767-7.384-8.402-11.086zm61.659 63.108c-17.806-14.118-33.588-29.034-46.765-44.244 13.178-15.21 28.959-30.126 46.765-44.244-1.345 14.409-2.038 29.212-2.038 44.244s.693 29.835 2.038 44.244zm3.857 88.095c-6.526.621-12.754.928-18.679.928-32.886-.001-56.198-9.479-66.534-27.381-3.561-6.168-5.474-13.174-5.795-20.867 12.654-1.234 22.544-11.9 22.544-24.879 0-8.261-4.009-15.583-10.185-20.135 3.608-6.84 7.981-13.902 13.133-21.143 2.635-3.703 5.444-7.4 8.402-11.086 15.264 17.414 33.797 34.408 54.76 50.27 3.256 26.085 8.707 50.632 16.156 72.557-4.672.721-9.278 1.306-13.802 1.736zm8.849-66.087c11.806 8.369 24.279 16.371 37.297 23.887s26.185 14.317 39.335 20.357c-21.129 8.361-41.937 14.571-61.698 18.377-6.583-19.017-11.61-40.142-14.934-62.621zm154.854 84.951c-17.854 39.059-41.12 60.57-65.515 60.57s-47.661-21.511-65.515-60.57c-1.889-4.133-3.687-8.415-5.4-12.819 22.712-4.512 46.696-12.065 70.914-22.288 24.218 10.223 48.202 17.776 70.914 22.288-1.712 4.405-3.509 8.686-5.398 12.819zm8.89-22.33c-19.761-3.807-40.569-10.016-61.698-18.377 13.151-6.04 26.318-12.841 39.335-20.357 13.018-7.516 25.491-15.518 37.296-23.887-3.323 22.479-8.35 43.604-14.933 62.621zm89.299-110.009c24.899 34.991 31.895 65.896 19.697 87.022-12.196 21.126-42.457 30.522-85.213 26.453-4.524-.431-9.131-1.015-13.802-1.734 7.449-21.926 12.9-46.472 16.156-72.557 20.963-15.863 39.496-32.857 54.76-50.27 2.958 3.686 5.767 7.383 8.402 11.086zm-61.659-63.108c17.806 14.118 33.587 29.034 46.765 44.244-13.178 15.21-28.959 30.126-46.765 44.244 1.345-14.409 2.038-29.212 2.038-44.244s-.693-29.835-2.038-44.244zm53.257 36.466c-15.264-17.414-33.797-34.408-54.76-50.27-3.256-26.085-8.707-50.632-16.156-72.557 4.671-.719 9.277-1.303 13.802-1.734 42.752-4.068 73.016 5.326 85.213 26.453 5.042 8.733 6.795 19.14 5.369 30.812-.993-.12-2.002-.189-3.028-.189-13.807 0-25 11.193-25 25 0 8.338 4.086 15.718 10.361 20.26-2.263 3.662-4.721 7.376-7.399 11.14-2.635 3.701-5.444 7.399-8.402 11.085z"/><circle cx="256" cy="277.125" r="54.455"/></g><g><g><circle cx="256" cy="253.125" fill="#ff7eb8" r="54.455"/><circle cx="240.197" cy="243.624" fill="#ffa8cf" r="20.079"/></g><g><g><circle cx="303.25" cy="66.845" fill="#ff5ba8" r="25"/></g><g><circle cx="303.25" cy="66.845" fill="#ffa8cf" r="12.5"/></g></g><g><g><circle cx="64.347" cy="313.266" fill="#01eca5" r="25"/></g><g><circle cx="64.347" cy="313.266" fill="#97ffd2" r="12.5"/></g></g><g><g><circle cx="441.743" cy="202.861" fill="#6583fe" r="25"/></g><g fill="#2626bc"><path d="m270.539 195.468c-2.671-.673-5.395.951-6.068 3.629-.674 2.678.951 5.395 3.629 6.069 17.341 4.362 31.002 17.803 35.65 35.075.601 2.231 2.619 3.702 4.825 3.702.43 0 .867-.056 1.303-.173 2.666-.718 4.246-3.461 3.528-6.127-5.589-20.769-22.014-36.929-42.867-42.175z"/><path d="m309.792 262.935c-2.662-.742-5.417.815-6.158 3.477-5.926 21.295-25.514 36.168-47.634 36.168-27.27 0-49.455-22.186-49.455-49.455 0-21.743 14.551-41.24 35.385-47.413 2.648-.784 4.158-3.567 3.374-6.214-.783-2.647-3.559-4.159-6.215-3.374-25.049 7.422-42.544 30.861-42.544 57 0 32.784 26.672 59.455 59.455 59.455 26.593 0 50.143-17.883 57.269-43.488.74-2.659-.817-5.416-3.477-6.156z"/><path d="m441.743 232.861c16.542 0 30-13.458 30-30 0-11.803-6.854-22.031-16.788-26.926 1.023-12.648-1.282-23.973-6.895-33.7-14.269-24.714-47.936-35.868-94.819-31.406-5.339.508-10.785 1.219-16.315 2.112-3.497-9.21-7.357-17.86-11.562-25.848 4.894-5.34 7.886-12.451 7.886-20.248 0-16.542-13.458-30-30-30-5.818 0-11.251 1.67-15.855 4.549-10.081-6.657-20.625-10.039-31.395-10.039-28.536 0-55.032 23.585-74.607 66.412-2.228 4.875-4.334 9.943-6.324 15.175-5.528-.893-10.972-1.603-16.309-2.111-46.873-4.457-80.552 6.693-94.82 31.408-14.269 24.714-7.092 59.454 20.21 97.82 3.119 4.384 6.469 8.758 10.02 13.115-8.547 10.449-15.833 20.93-21.616 31.243-2.61-.743-5.36-1.15-8.205-1.15-16.542 0-30 13.458-30 30 0 14.054 9.717 25.877 22.784 29.117.795 7.887 3.069 15.151 6.808 21.632 12.211 21.151 38.63 32.368 75.38 32.368 6.19 0 12.682-.319 19.439-.962 5.338-.508 10.782-1.219 16.31-2.111 1.99 5.231 4.096 10.299 6.324 15.173 19.575 42.826 46.071 66.412 74.607 66.412s55.032-23.585 74.607-66.412c2.228-4.875 4.334-9.943 6.324-15.175 5.528.893 10.972 1.603 16.309 2.111 6.761.643 13.244.961 19.438.961 36.746 0 63.172-11.219 75.383-32.369 14.269-24.714 7.092-59.454-20.21-97.82-3.111-4.372-6.451-8.734-9.991-13.079 5.817-7.127 11.059-14.282 15.645-21.411 2.619.749 5.38 1.159 8.237 1.159zm20-30c0 11.028-8.972 20-20 20s-20-8.972-20-20 8.972-20 20-20 20 8.972 20 20zm-138.493-136.016c0 11.028-8.972 20-20 20s-20-8.972-20-20 8.972-20 20-20 20 8.972 20 20zm-132.763 35.079c17.853-39.059 41.119-60.569 65.513-60.569 8 0 15.938 2.35 23.665 6.982-4.013 5.102-6.415 11.528-6.415 18.507 0 16.542 13.458 30 30 30 5.087 0 9.88-1.277 14.082-3.52 3.443 6.686 6.641 13.845 9.582 21.415-22.713 4.512-46.696 12.065-70.915 22.289-24.217-10.222-48.199-17.775-70.911-22.287 1.713-4.404 3.51-8.685 5.399-12.817zm159.593 151.201c0 17.974-1.003 35.602-2.949 52.577-13.756 10.209-28.539 19.924-44.091 28.903-15.576 8.993-31.354 16.942-47.039 23.748-15.686-6.806-31.465-14.756-47.043-23.75-15.576-8.993-30.349-18.682-44.084-28.862-1.948-16.988-2.954-34.629-2.954-52.617 0-17.956 1.001-35.566 2.943-52.526 13.774-10.242 28.562-19.986 44.097-28.954 15.577-8.993 31.355-16.942 47.039-23.748 15.686 6.806 31.465 14.756 47.043 23.75 15.568 8.988 30.334 18.672 44.064 28.846 1.958 17.004 2.974 34.662 2.974 52.633zm7.938-44.266c17.815 14.123 33.604 29.044 46.788 44.26-13.128 15.126-28.936 30.055-46.759 44.199 1.342-14.393 2.033-29.179 2.033-44.194 0-15.021-.706-29.836-2.062-44.265zm-12.677 110.482c-3.323 22.492-8.352 43.63-14.939 62.656-19.76-3.807-40.566-10.016-61.694-18.377 13.15-6.04 26.316-12.84 39.333-20.356 12.999-7.505 25.476-15.527 37.3-23.923zm-102.046 44.28c-21.129 8.362-41.936 14.571-61.696 18.378-6.583-19.017-11.61-40.141-14.934-62.62 11.805 8.368 24.277 16.369 37.293 23.884 13.018 7.517 26.186 14.318 39.337 20.358zm-89.337-66.249c-17.796-14.11-33.57-29.016-46.743-44.217 13.106-15.072 28.923-30.009 46.732-44.166-1.338 14.375-2.028 29.142-2.028 44.136.001 15.033.695 29.837 2.039 44.247zm12.697-110.431c3.323-22.504 8.353-43.652 14.943-62.688 19.76 3.807 40.567 10.016 61.695 18.377-13.15 6.04-26.316 12.84-39.333 20.356-12.985 7.495-25.469 15.532-37.305 23.955zm141.387-23.955c-13.018-7.516-26.186-14.317-39.337-20.357 21.128-8.361 41.934-14.57 61.694-18.378 6.54 18.931 11.568 40.077 14.904 62.596-11.795-8.359-24.256-16.353-37.261-23.861zm-215.746 71.275c-24.899-34.991-31.895-65.896-19.697-87.022 10.336-17.903 33.646-27.381 66.534-27.381 5.922 0 12.155.308 18.679.928 4.525.431 9.133 1.015 13.805 1.734-7.458 21.952-12.913 46.532-16.167 72.653-20.942 15.904-39.492 32.958-54.696 50.242-2.979-3.709-5.807-7.429-8.458-11.154zm-47.948 79.005c0-11.028 8.972-20 20-20s20 8.972 20 20-8.972 20-20 20-20-8.972-20-20zm113.464 72.2c-42.759 4.067-73.016-5.325-85.211-26.45-2.75-4.766-4.521-10.099-5.313-15.895 15.167-1.482 27.06-14.304 27.06-29.854 0-10.126-5.048-19.09-12.755-24.525 5.19-9.178 11.618-18.502 19.121-27.82 15.262 17.408 33.79 34.397 54.747 50.255 3.256 26.085 8.707 50.631 16.156 72.556-4.672.718-9.28 1.302-13.805 1.733zm163.701 18.86c-17.853 39.059-41.119 60.569-65.513 60.569s-47.66-21.51-65.513-60.569c-1.889-4.132-3.686-8.413-5.398-12.816 22.712-4.512 46.695-12.065 70.912-22.288 24.217 10.222 48.199 17.774 70.91 22.287-1.712 4.403-3.509 8.684-5.398 12.817zm98.191-132.337c24.899 34.991 31.895 65.896 19.697 87.022-12.196 21.126-42.457 30.522-85.213 26.453-4.525-.431-9.133-1.015-13.805-1.734 7.453-21.939 12.906-46.502 16.161-72.604 20.968-15.891 39.519-32.917 54.737-50.248 2.966 3.694 5.782 7.4 8.423 11.111zm-8.4-26.64c-15.273-17.425-33.82-34.43-54.799-50.301-3.274-26.116-8.739-50.689-16.14-72.528 4.679-.72 9.293-1.306 13.825-1.737 42.742-4.068 73.014 5.325 85.21 26.45 4.273 7.406 6.184 16.076 5.723 25.822-1.11-.125-2.236-.195-3.379-.195-16.542 0-30 13.458-30 30 0 10.092 5.014 19.029 12.676 24.469-3.911 5.998-8.292 12.016-13.116 18.02z"/></g><g><circle cx="441.743" cy="202.861" fill="#9fb0fe" r="12.5"/></g></g></g></g><g><path d="m392.538 74.608c-1.031 0-2.062-.318-2.938-.955l-3.86-2.804-3.859 2.804c-1.752 1.273-4.125 1.273-5.877 0-1.753-1.273-2.486-3.53-1.816-5.59l1.474-4.537-3.859-2.804c-1.753-1.273-2.486-3.53-1.816-5.59.669-2.06 2.589-3.455 4.755-3.455h4.771l1.475-4.537c.669-2.06 2.589-3.455 4.755-3.455s4.086 1.395 4.755 3.455l1.476 4.538h4.77c2.166 0 4.086 1.395 4.755 3.455.67 2.06-.063 4.317-1.815 5.59l-3.859 2.804 1.474 4.537c.67 2.06-.063 4.317-1.815 5.59-.883.635-1.915.954-2.946.954z" fill="#01eca5"/></g><g><path d="m130.534 465.809c-1.031 0-2.062-.318-2.938-.955-1.753-1.273-2.486-3.53-1.816-5.59l1.474-4.537-3.859-2.804c-1.753-1.273-2.486-3.53-1.816-5.59.669-2.06 2.589-3.455 4.755-3.455h4.771l1.475-4.537c.669-2.06 2.589-3.455 4.755-3.455s4.086 1.395 4.755 3.455l1.475 4.537h4.771c2.166 0 4.086 1.395 4.755 3.455.67 2.06-.063 4.317-1.816 5.59l-3.858 2.804 1.474 4.538c.67 2.06-.063 4.317-1.816 5.59-1.752 1.273-4.125 1.273-5.877 0l-3.86-2.804-3.858 2.804c-.883.636-1.915.954-2.946.954z" fill="#01eca5"/></g><g><path d="m160.754 85.07c-1.031 0-2.062-.318-2.938-.955l-3.86-2.804-3.858 2.804c-1.754 1.273-4.126 1.273-5.878 0-1.753-1.273-2.486-3.53-1.816-5.59l1.474-4.537-3.859-2.805c-1.753-1.273-2.486-3.53-1.816-5.59.669-2.06 2.589-3.455 4.755-3.455h4.771l1.475-4.537c.669-2.06 2.589-3.455 4.755-3.455s4.086 1.395 4.755 3.455l1.475 4.537h4.771c2.166 0 4.086 1.395 4.755 3.455.67 2.06-.063 4.317-1.815 5.59l-3.859 2.804 1.474 4.538c.67 2.06-.063 4.317-1.816 5.59-.883.636-1.914.955-2.945.955z" fill="#8399fe"/></g><g><path d="m434.749 96.845c-1.279 0-2.56-.488-3.535-1.464l-10.5-10.5c-1.953-1.953-1.953-5.119 0-7.071l10.5-10.5c1.951-1.952 5.119-1.952 7.07 0l10.5 10.5c1.953 1.953 1.953 5.119 0 7.071l-10.5 10.5c-.975.975-2.256 1.464-3.535 1.464zm-3.429-15.5 3.429 3.429 3.429-3.429-3.429-3.429z" fill="#ff7eb8"/></g><g><path d="m76.848 439.875c-1.279 0-2.56-.488-3.535-1.464l-10.5-10.5c-1.953-1.953-1.953-5.119 0-7.071l10.5-10.5c1.951-1.952 5.119-1.952 7.07 0l10.5 10.5c1.953 1.953 1.953 5.119 0 7.071l-10.5 10.5c-.976.976-2.256 1.464-3.535 1.464zm-3.429-15.5 3.429 3.429 3.429-3.429-3.429-3.429z" fill="#8399fe"/></g></g></g></svg>